<svg width="63" height="185" viewBox="0 0 63 185" fill="none" xmlns="http://www.w3.org/2000/svg">
<mask id="path-1-outside-1_138_69" maskUnits="userSpaceOnUse" x="0" y="0" width="63" height="185" fill="black">
<rect fill="white" width="63" height="185"/>
<path d="M1 34V1.74999H61.25V184H25.25V34H1Z"/>
</mask>
<path d="M1 34H5.43892e-07V35H1V34ZM1 1.74999V0.749992H5.43892e-07V1.74999H1ZM61.25 1.74999H62.25V0.749992H61.25V1.74999ZM61.25 184V185H62.25V184H61.25ZM25.25 184H24.25V185H25.25V184ZM25.25 34H26.25V33H25.25V34ZM2 34V1.74999H5.43892e-07V34H2ZM1 2.74999H61.25V0.749992H1V2.74999ZM60.25 1.74999V184H62.25V1.74999H60.25ZM61.25 183H25.25V185H61.25V183ZM26.25 184V34H24.25V184H26.25ZM25.25 33H1V35H25.25V33Z" fill="#F5F5F5" mask="url(#path-1-outside-1_138_69)"/>
</svg>
