<svg width="127" height="187" viewBox="0 0 127 187" fill="none" xmlns="http://www.w3.org/2000/svg">
<mask id="path-1-outside-1_138_70" maskUnits="userSpaceOnUse" x="0" y="0" width="127" height="187" fill="black">
<rect fill="white" width="127" height="187"/>
<path d="M15.25 148.5C31.25 135.167 44 124.083 53.5 115.25C63 106.25 70.9167 96.9167 77.25 87.25C83.5833 77.5833 86.75 68.0833 86.75 58.75C86.75 50.25 84.75 43.5833 80.75 38.75C76.75 33.9167 70.5833 31.5 62.25 31.5C53.9167 31.5 47.5 34.3333 43 40C38.5 45.5 36.1667 53.0833 36 62.75H2C2.66667 42.75 8.58333 27.5833 19.75 17.25C31.0833 6.91665 45.4167 1.74998 62.75 1.74998C81.75 1.74998 96.3333 6.83332 106.5 17C116.667 27 121.75 40.25 121.75 56.75C121.75 69.75 118.25 82.1667 111.25 94C104.25 105.833 96.25 116.167 87.25 125C78.25 133.667 66.5 144.167 52 156.5H125.75V185.5H2.25V159.5L15.25 148.5Z"/>
</mask>
<path d="M15.25 148.5L14.6098 147.732L14.6041 147.737L15.25 148.5ZM53.5 115.25L54.181 115.982L54.1877 115.976L53.5 115.25ZM77.25 87.25L78.0865 87.798L78.0865 87.798L77.25 87.25ZM80.75 38.75L79.9796 39.3876L79.9796 39.3876L80.75 38.75ZM43 40L43.774 40.6332L43.7786 40.6276L43.7831 40.6219L43 40ZM36 62.75V63.75H36.9829L36.9999 62.7672L36 62.75ZM2 62.75L1.00056 62.7167L0.966112 63.75H2V62.75ZM19.75 17.25L19.0762 16.511L19.0708 16.516L19.75 17.25ZM106.5 17L105.793 17.7071L105.799 17.7129L106.5 17ZM111.25 94L112.111 94.5091L112.111 94.5091L111.25 94ZM87.25 125L87.9437 125.72L87.9505 125.714L87.25 125ZM52 156.5L51.3521 155.738L49.2809 157.5H52V156.5ZM125.75 156.5H126.75V155.5H125.75V156.5ZM125.75 185.5V186.5H126.75V185.5H125.75ZM2.25 185.5H1.25V186.5H2.25V185.5ZM2.25 159.5L1.60406 158.737L1.25 159.036V159.5H2.25ZM15.8902 149.268C31.8969 135.929 44.6622 124.833 54.1809 115.982L52.8191 114.518C43.3378 123.334 30.6031 134.404 14.6098 147.732L15.8902 149.268ZM54.1877 115.976C63.7368 106.93 71.7055 97.5374 78.0865 87.798L76.4135 86.702C70.1279 96.2959 62.2632 105.57 52.8123 114.524L54.1877 115.976ZM78.0865 87.798C84.501 78.0074 87.75 68.3198 87.75 58.75H85.75C85.75 67.8468 82.6657 77.1592 76.4135 86.702L78.0865 87.798ZM87.75 58.75C87.75 50.0998 85.7141 43.1798 81.5204 38.1124L79.9796 39.3876C83.7859 43.9869 85.75 50.4002 85.75 58.75H87.75ZM81.5204 38.1124C77.2726 32.9797 70.7769 30.5 62.25 30.5V32.5C70.3898 32.5 76.2274 34.8536 79.9796 39.3876L81.5204 38.1124ZM62.25 30.5C53.6638 30.5 46.9368 33.4345 42.2169 39.3781L43.7831 40.6219C48.0632 35.2321 54.1696 32.5 62.25 32.5V30.5ZM42.226 39.3668C37.5399 45.0943 35.1693 52.9216 35.0002 62.7327L36.9999 62.7672C37.164 53.245 39.4601 45.9057 43.774 40.6332L42.226 39.3668ZM36 61.75H2V63.75H36V61.75ZM2.99945 62.7833C3.66013 42.9627 9.51464 28.084 20.4292 17.984L19.0708 16.516C7.65202 27.0827 1.6732 42.5372 1.00056 62.7167L2.99945 62.7833ZM20.4238 17.9889C31.5486 7.84566 45.6311 2.74998 62.75 2.74998V0.749984C45.2023 0.749984 30.618 5.98764 19.0762 16.511L20.4238 17.9889ZM62.75 2.74998C81.5732 2.74998 95.8682 7.78236 105.793 17.7071L107.207 16.2929C96.7985 5.88428 81.9269 0.749984 62.75 0.749984V2.74998ZM105.799 17.7129C115.744 27.4951 120.75 40.4724 120.75 56.75H122.75C122.75 40.0276 117.589 26.5048 107.201 16.2871L105.799 17.7129ZM120.75 56.75C120.75 69.5604 117.304 81.8025 110.389 93.4909L112.111 94.5091C119.196 82.5309 122.75 69.9396 122.75 56.75H120.75ZM110.389 93.4909C103.43 105.256 95.4821 115.519 86.5495 124.286L87.9505 125.714C97.0179 116.814 105.07 106.411 112.111 94.5091L110.389 93.4909ZM86.5564 124.28C77.5767 132.927 65.8436 143.412 51.3521 155.738L52.6479 157.262C67.1564 144.921 78.9233 134.407 87.9436 125.72L86.5564 124.28ZM52 157.5H125.75V155.5H52V157.5ZM124.75 156.5V185.5H126.75V156.5H124.75ZM125.75 184.5H2.25V186.5H125.75V184.5ZM3.25 185.5V159.5H1.25V185.5H3.25ZM2.89594 160.263L15.8959 149.263L14.6041 147.737L1.60406 158.737L2.89594 160.263Z" fill="#F5F5F5" mask="url(#path-1-outside-1_138_70)"/>
</svg>
