<svg width="127" height="191" viewBox="0 0 127 191" fill="none" xmlns="http://www.w3.org/2000/svg">
<mask id="path-1-outside-1_138_71" maskUnits="userSpaceOnUse" x="0" y="0" width="127" height="191" fill="black">
<rect fill="white" width="127" height="191"/>
<path d="M3.75 53.75C4.58333 37.0833 10.4167 24.25 21.25 15.25C32.25 6.08332 46.6667 1.49999 64.5 1.49999C76.6667 1.49999 87.0833 3.66666 95.75 7.99999C104.417 12.1667 110.917 17.9167 115.25 25.25C119.75 32.4167 122 40.5833 122 49.75C122 60.25 119.25 69.1667 113.75 76.5C108.417 83.6667 102 88.5 94.5 91V92C104.167 95 111.667 100.333 117 108C122.5 115.667 125.25 125.5 125.25 137.5C125.25 147.5 122.917 156.417 118.25 164.25C113.75 172.083 107 178.25 98 182.75C89.1667 187.083 78.5 189.25 66 189.25C47.1667 189.25 31.8333 184.5 20 175C8.16667 165.5 1.91667 151.5 1.25 133H35.25C35.5833 141.167 38.3333 147.75 43.5 152.75C48.8333 157.583 56.0833 160 65.25 160C73.75 160 80.25 157.667 84.75 153C89.4167 148.167 91.75 142 91.75 134.5C91.75 124.5 88.5833 117.333 82.25 113C75.9167 108.667 66.0833 106.5 52.75 106.5H45.5V77.75H52.75C76.4167 77.75 88.25 69.8333 88.25 54C88.25 46.8333 86.0833 41.25 81.75 37.25C77.5833 33.25 71.5 31.25 63.5 31.25C55.6667 31.25 49.5833 33.4167 45.25 37.75C41.0833 41.9167 38.6667 47.25 38 53.75H3.75Z"/>
</mask>
<path d="M3.75 53.75L2.75125 53.7001L2.69875 54.75H3.75V53.75ZM21.25 15.25L21.889 16.0192L21.8902 16.0182L21.25 15.25ZM95.75 7.99999L95.3028 8.89442L95.3097 8.89789L95.3167 8.90125L95.75 7.99999ZM115.25 25.25L114.389 25.7587L114.396 25.7703L114.403 25.7818L115.25 25.25ZM113.75 76.5L112.95 75.9L112.948 75.903L113.75 76.5ZM94.5 91L94.1838 90.0513L93.5 90.2792V91H94.5ZM94.5 92H93.5V92.7367L94.2036 92.9551L94.5 92ZM117 108L116.179 108.571L116.183 108.577L116.187 108.583L117 108ZM118.25 164.25L117.391 163.738L117.387 163.745L117.383 163.752L118.25 164.25ZM98 182.75L98.4404 183.648L98.4472 183.644L98 182.75ZM20 175L19.374 175.78L19.374 175.78L20 175ZM1.25 133V132H0.213315L0.250649 133.036L1.25 133ZM35.25 133L36.2492 132.959L36.21 132H35.25V133ZM43.5 152.75L42.8046 153.469L42.8164 153.48L42.8285 153.491L43.5 152.75ZM84.75 153L84.0306 152.305L84.0302 152.306L84.75 153ZM45.5 106.5H44.5V107.5H45.5V106.5ZM45.5 77.75V76.75H44.5V77.75H45.5ZM81.75 37.25L81.0575 37.9714L81.0645 37.9782L81.0717 37.9848L81.75 37.25ZM45.25 37.75L45.9571 38.4571L45.9571 38.4571L45.25 37.75ZM38 53.75V54.75H38.9027L38.9948 53.852L38 53.75ZM4.74875 53.7999C5.57092 37.3565 11.3108 24.8072 21.889 16.0192L20.611 14.4808C9.52254 23.6927 3.59574 36.8102 2.75125 53.7001L4.74875 53.7999ZM21.8902 16.0182C32.6697 7.03524 46.8415 2.49999 64.5 2.49999V0.499987C46.4919 0.499987 31.8303 5.1314 20.6098 14.4818L21.8902 16.0182ZM64.5 2.49999C76.5501 2.49999 86.8059 4.64597 95.3028 8.89442L96.1972 7.10557C87.3608 2.68734 76.7832 0.499987 64.5 0.499987V2.49999ZM95.3167 8.90125C103.829 12.9936 110.169 18.617 114.389 25.7587L116.111 24.7413C111.664 17.2163 105.004 11.3397 96.1833 7.09874L95.3167 8.90125ZM114.403 25.7818C118.795 32.7759 121 40.7552 121 49.75H123C123 40.4115 120.705 32.0575 116.097 24.7182L114.403 25.7818ZM121 49.75C121 60.0665 118.302 68.7643 112.95 75.9L114.55 77.1C120.198 69.569 123 60.4335 123 49.75H121ZM112.948 75.903C107.72 82.9276 101.465 87.6243 94.1838 90.0513L94.8162 91.9487C102.535 89.3757 109.113 84.4057 114.552 77.097L112.948 75.903ZM93.5 91V92H95.5V91H93.5ZM94.2036 92.9551C103.677 95.8949 110.984 101.103 116.179 108.571L117.821 107.429C112.349 99.5638 104.657 94.1051 94.7964 91.0449L94.2036 92.9551ZM116.187 108.583C121.536 116.039 124.25 125.652 124.25 137.5H126.25C126.25 125.348 123.464 115.295 117.813 107.417L116.187 108.583ZM124.25 137.5C124.25 147.338 121.957 156.074 117.391 163.738L119.109 164.762C123.877 156.759 126.25 147.662 126.25 137.5H124.25ZM117.383 163.752C112.992 171.396 106.398 177.433 97.5528 181.856L98.4472 183.644C107.602 179.067 114.508 172.771 119.117 164.748L117.383 163.752ZM97.5596 181.852C88.8953 186.103 78.3874 188.25 66 188.25V190.25C78.6126 190.25 89.4381 188.064 98.4404 183.648L97.5596 181.852ZM66 188.25C47.338 188.25 32.2424 183.546 20.626 174.22L19.374 175.78C31.4243 185.454 46.9953 190.25 66 190.25V188.25ZM20.626 174.22C9.06851 164.942 2.90806 151.243 2.24935 132.964L0.250649 133.036C0.925271 151.757 7.26482 166.058 19.374 175.78L20.626 174.22ZM1.25 134H35.25V132H1.25V134ZM34.2508 133.041C34.5931 141.426 37.4278 148.265 42.8046 153.469L44.1954 152.031C39.2388 147.235 36.5736 140.907 36.2492 132.959L34.2508 133.041ZM42.8285 153.491C48.3919 158.533 55.9053 161 65.25 161V159C56.2613 159 49.2748 156.634 44.1715 152.009L42.8285 153.491ZM65.25 161C73.9332 161 80.7278 158.612 85.4698 153.694L84.0302 152.306C79.7722 156.722 73.5668 159 65.25 159V161ZM85.4694 153.695C90.3376 148.652 92.75 142.226 92.75 134.5H90.75C90.75 141.774 88.4957 147.681 84.0306 152.305L85.4694 153.695ZM92.75 134.5C92.75 124.281 89.5009 116.749 82.8147 112.175L81.6853 113.825C87.6657 117.917 90.75 124.719 90.75 134.5H92.75ZM82.8147 112.175C76.2322 107.671 66.1534 105.5 52.75 105.5V107.5C66.0133 107.5 75.6011 109.662 81.6853 113.825L82.8147 112.175ZM52.75 105.5H45.5V107.5H52.75V105.5ZM46.5 106.5V77.75H44.5V106.5H46.5ZM45.5 78.75H52.75V76.75H45.5V78.75ZM52.75 78.75C64.6633 78.75 73.7734 76.7632 79.9311 72.6436C86.1598 68.4765 89.25 62.2065 89.25 54H87.25C87.25 61.6269 84.4235 67.2318 78.819 70.9813C73.1432 74.7785 64.5034 76.75 52.75 76.75V78.75ZM89.25 54C89.25 46.6191 87.01 40.7444 82.4283 36.5152L81.0717 37.9848C85.1567 41.7556 87.25 47.0475 87.25 54H89.25ZM82.4425 36.5286C78.0279 32.2905 71.6575 30.25 63.5 30.25V32.25C71.3425 32.25 77.1388 34.2095 81.0575 37.9714L82.4425 36.5286ZM63.5 30.25C55.4788 30.25 49.1122 32.4736 44.5429 37.0429L45.9571 38.4571C50.0545 34.3597 55.8545 32.25 63.5 32.25V30.25ZM44.5429 37.0429C40.1957 41.3901 37.6926 46.9457 37.0052 53.648L38.9948 53.852C39.6407 47.5543 41.9709 42.4433 45.9571 38.4571L44.5429 37.0429ZM38 52.75H3.75V54.75H38V52.75Z" fill="#F5F5F5" mask="url(#path-1-outside-1_138_71)"/>
</svg>
