<svg width="313" height="316" viewBox="0 0 313 316" fill="none" xmlns="http://www.w3.org/2000/svg">
<g filter="url(#filter0_d_575_64)">
<path d="M78.467 0C75.6891 5.7125 69.5598 10.2469 63.4277 10.2469C71.7199 10.2469 80.0121 18.5339 80.0121 26.8209C80.0121 18.5339 88.3043 10.2469 96.5966 10.2469C90.4645 10.2469 84.3358 5.7125 81.5572 0H78.467ZM279.026 9.66816C279.026 15.1928 273.497 20.7175 267.969 20.7175C273.497 20.7175 279.026 26.2422 279.026 31.7668C279.026 26.2422 284.554 20.7175 290.082 20.7175C284.554 20.7175 279.026 15.1928 279.026 9.66816ZM229.272 37.2915C229.272 45.5785 220.98 53.8655 212.688 53.8655C220.98 53.8655 229.272 62.1525 229.272 70.4395C229.272 62.1525 237.564 53.8655 245.857 53.8655C237.564 53.8655 229.272 45.5785 229.272 37.2915ZM4 60.8183V279.201C68.9627 276.439 142.33 275.296 212.959 255.843C242.588 248.305 265.898 239.443 282.294 229.372C298.692 219.301 309 207.464 309 193.709C308.938 187.753 306.505 181.498 303.464 176.788C301.158 173.38 298.184 170.117 294.632 167C295.689 164.407 296.231 161.634 296.227 158.834C296.227 146.937 286.71 137.426 274.805 137.426C262.901 137.426 253.383 146.937 253.383 158.834C253.383 170.731 262.901 180.242 274.805 180.242C279.237 180.242 283.336 178.923 286.739 176.654C291.786 181.355 296.334 187.229 296.562 193.709C296.562 200.998 290.439 209.778 275.781 218.781C261.123 227.784 238.757 236.453 209.89 243.797C146.35 259.652 68.9869 265.439 11.8776 266.662C28.5885 263.377 43.8552 256.114 56.6577 245.899C75.2448 244.672 91.8513 243.196 109.484 241.011C107.639 236.704 106.75 232.896 107.047 228.78C94.4876 230.241 81.5102 231.57 70.6467 232.441C86.3923 214.182 95.9056 190.398 95.9056 164.359C95.9056 110.901 55.8195 66.9493 4 60.8183ZM96.3091 112.778C98.3996 117.002 100.23 121.351 101.792 125.798C142.071 129.723 179.02 135.766 209.89 143.62C221.495 146.571 232.028 149.74 241.454 153.057C242.171 148.93 243.653 144.973 245.824 141.391C235.928 137.907 224.973 134.63 212.961 131.573C179.557 123.074 139.657 116.711 96.3098 112.776L96.3091 112.778ZM105.241 137.581C106.237 141.812 106.993 146.095 107.508 150.41C125.943 152.711 142.823 155.522 157.623 158.768C178.809 163.416 195.83 168.975 207.037 174.787C212.641 177.693 216.756 180.674 219.203 183.297C221.649 185.919 222.362 187.879 222.362 189.566C222.362 191.252 221.65 193.212 219.203 195.835C216.757 198.458 212.64 201.439 207.037 204.344C195.83 210.156 178.809 215.716 157.623 220.363C155.34 220.863 153.053 221.344 150.761 221.804C152.34 226.127 152.935 230.017 152.293 234.176C154.926 233.654 157.754 233.061 160.291 232.505C182.123 227.716 199.914 222.042 212.765 215.378C219.191 212.046 224.415 208.477 228.301 204.312C232.187 200.148 234.801 195.079 234.801 189.566C234.801 184.053 232.187 178.985 228.301 174.819C224.415 170.655 219.191 167.086 212.765 163.754C199.915 157.09 182.124 151.415 160.292 146.627C144.009 143.056 125.489 140.005 105.243 137.582L105.241 137.581ZM129.766 220.296C123.968 220.296 119.4 224.861 119.4 230.655C119.4 236.449 123.968 241.013 129.766 241.013C135.563 241.013 140.131 236.449 140.131 230.655C140.131 224.861 135.563 220.296 129.766 220.296ZM168.463 285.901C168.463 291.426 162.934 296.951 157.406 296.951C162.934 296.951 168.463 302.475 168.463 308C168.463 302.475 173.991 296.951 179.519 296.951C173.991 296.951 168.463 291.426 168.463 285.901Z" fill="url(#paint0_linear_575_64)"/>
</g>
<defs>
<filter id="filter0_d_575_64" x="0" y="0" width="313" height="316" filterUnits="userSpaceOnUse" color-interpolation-filters="sRGB">
<feFlood flood-opacity="0" result="BackgroundImageFix"/>
<feColorMatrix in="SourceAlpha" type="matrix" values="0 0 0 0 0 0 0 0 0 0 0 0 0 0 0 0 0 0 127 0" result="hardAlpha"/>
<feOffset dy="4"/>
<feGaussianBlur stdDeviation="2"/>
<feComposite in2="hardAlpha" operator="out"/>
<feColorMatrix type="matrix" values="0 0 0 0 0 0 0 0 0 0 0 0 0 0 0 0 0 0 0.25 0"/>
<feBlend mode="normal" in2="BackgroundImageFix" result="effect1_dropShadow_575_64"/>
<feBlend mode="normal" in="SourceGraphic" in2="effect1_dropShadow_575_64" result="shape"/>
</filter>
<linearGradient id="paint0_linear_575_64" x1="156.5" y1="0" x2="156.5" y2="308" gradientUnits="userSpaceOnUse">
<stop stop-color="#FFAE00"/>
<stop offset="1" stop-color="#FF8600"/>
</linearGradient>
</defs>
</svg>
