<svg width="24" height="24" viewBox="0 0 24 24" fill="none" xmlns="http://www.w3.org/2000/svg">
<path d="M4.15 21.4599L5.47 19.5799C4.38089 18.64 3.50717 17.4764 2.90837 16.1683C2.30956 14.8603 1.99974 13.4385 2 11.9999C2 9.34773 3.05357 6.80419 4.92893 4.92882C6.8043 3.05346 9.34784 1.99989 12 1.99989C13.78 1.99989 15.44 2.45989 16.89 3.26989L18.21 1.38989L19.85 2.53989L18.53 4.41989C20.65 6.25989 22 8.96989 22 11.9999C22 14.6521 20.9464 17.1956 19.0711 19.071C17.1957 20.9463 14.6522 21.9999 12 21.9999C10.22 21.9999 8.56 21.5399 7.11 20.7299L5.79 22.6099L4.15 21.4599ZM12 3.99989C9.87827 3.99989 7.84344 4.84275 6.34315 6.34304C4.84285 7.84333 4 9.87816 4 11.9999C4 14.3499 5 16.4599 6.63 17.9299L15.73 4.91989C14.5813 4.31097 13.3001 3.99496 12 3.99989ZM12 19.9999C14.1217 19.9999 16.1566 19.157 17.6569 17.6567C19.1571 16.1565 20 14.1216 20 11.9999C20 9.64989 19 7.53989 17.37 6.06989L8.27 19.0799C9.38 19.6699 10.65 19.9999 12 19.9999Z" fill="url(#paint0_linear_621_24)"/>
<defs>
<linearGradient id="paint0_linear_621_24" x1="12" y1="1.38989" x2="12" y2="22.6099" gradientUnits="userSpaceOnUse">
<stop stop-color="#FF9D00"/>
<stop offset="1" stop-color="#FDCAA4"/>
</linearGradient>
</defs>
</svg>
