<svg width="42" height="42" viewBox="0 0 42 42" fill="none" xmlns="http://www.w3.org/2000/svg">
<path d="M21.5416 24.5115C23.1209 24.5115 24.4011 23.2312 24.4011 21.652C24.4011 20.0727 23.1209 18.7925 21.5416 18.7925C19.9624 18.7925 18.6821 20.0727 18.6821 21.652C18.6821 23.2312 19.9624 24.5115 21.5416 24.5115Z" stroke="url(#paint0_linear_501_66)" stroke-width="0.5" stroke-linecap="round" stroke-linejoin="round"/>
<path d="M26.1697 25.8475C27.2257 24.9113 27.9729 23.6769 28.3128 22.3073C28.6526 20.9376 28.569 19.497 28.0731 18.1758C27.5773 16.8546 26.6923 15.7149 25.5352 14.907C24.3781 14.0992 23.0032 13.6613 21.592 13.6511C20.1809 13.6409 18.7998 14.0589 17.6311 14.85C16.4625 15.641 15.5612 16.7679 15.0463 18.0818C14.5314 19.3957 14.427 20.8349 14.747 22.2093C15.0671 23.5837 15.7964 24.8288 16.8387 25.7801M16.5456 12.551C15.1678 12.8647 13.8819 13.4944 12.7893 14.3904C11.6967 15.2864 10.8274 16.4242 10.2501 17.7138C9.67272 19.0035 9.40316 20.4098 9.46268 21.8215C9.52219 23.2333 9.90915 24.6119 10.593 25.8484" stroke="url(#paint1_linear_501_66)" stroke-width="0.5" stroke-linecap="round" stroke-linejoin="round"/>
<path d="M12.3096 25.8476C12.8608 27.4929 13.803 28.9799 15.0552 30.181C16.3074 31.3822 17.8323 32.2617 19.499 32.744C21.1658 33.2264 22.9247 33.2973 24.6249 32.9505C26.3251 32.6038 27.9157 31.8498 29.2605 30.7533C30.6053 29.6567 31.664 28.2504 32.3458 26.6548C33.0277 25.0592 33.3123 23.322 33.1753 21.5923C33.0382 19.8626 32.4837 18.1919 31.5592 16.7235C30.6346 15.2552 29.3677 14.033 27.8671 13.1619" stroke="url(#paint2_linear_501_66)" stroke-width="0.5" stroke-linecap="round" stroke-linejoin="round"/>
<path d="M7.93629 30.7396C5.87471 27.9215 4.77957 24.5124 4.81428 21.021C4.84898 17.5295 6.01167 14.1429 8.12886 11.3664C10.2461 8.5899 13.2042 6.57239 16.562 5.61491C19.9198 4.65743 23.4972 4.81131 26.7603 6.05359C30.0235 7.29587 32.7975 9.55996 34.6684 12.508C36.5394 15.4561 37.4069 18.93 37.1417 22.4116C36.8765 25.8931 35.4926 29.1956 33.1967 31.8261C30.9007 34.4567 27.8157 36.2745 24.402 37.0081" stroke="url(#paint3_linear_501_66)" stroke-width="0.5" stroke-linecap="round" stroke-linejoin="round"/>
<defs>
<linearGradient id="paint0_linear_501_66" x1="18.6821" y1="21.652" x2="24.4011" y2="21.652" gradientUnits="userSpaceOnUse">
<stop stop-color="#E6007E"/>
<stop offset="1" stop-color="#006AFF"/>
</linearGradient>
<linearGradient id="paint1_linear_501_66" x1="9.45459" y1="19.1997" x2="28.518" y2="19.1997" gradientUnits="userSpaceOnUse">
<stop stop-color="#E6007E"/>
<stop offset="1" stop-color="#006AFF"/>
</linearGradient>
<linearGradient id="paint2_linear_501_66" x1="12.3096" y1="23.1644" x2="33.2088" y2="23.1644" gradientUnits="userSpaceOnUse">
<stop stop-color="#E6007E"/>
<stop offset="1" stop-color="#006AFF"/>
</linearGradient>
<linearGradient id="paint3_linear_501_66" x1="4.81348" y1="21.0012" x2="37.1885" y2="21.0012" gradientUnits="userSpaceOnUse">
<stop stop-color="#E6007E"/>
<stop offset="1" stop-color="#006AFF"/>
</linearGradient>
</defs>
</svg>
