<svg width="24" height="24" viewBox="0 0 24 24" fill="none" xmlns="http://www.w3.org/2000/svg">
<path d="M4.15 21.46L5.47 19.58C4.38089 18.6401 3.50717 17.4765 2.90837 16.1684C2.30956 14.8604 1.99974 13.4386 2 12C2 9.34785 3.05357 6.80431 4.92893 4.92895C6.8043 3.05358 9.34784 2.00001 12 2.00001C13.78 2.00001 15.44 2.46001 16.89 3.27001L18.21 1.39001L19.85 2.54001L18.53 4.42001C20.65 6.26001 22 8.97001 22 12C22 14.6522 20.9464 17.1957 19.0711 19.0711C17.1957 20.9464 14.6522 22 12 22C10.22 22 8.56 21.54 7.11 20.73L5.79 22.61L4.15 21.46ZM12 4.00001C9.87827 4.00001 7.84344 4.84287 6.34315 6.34316C4.84285 7.84345 4 9.87828 4 12C4 14.35 5 16.46 6.63 17.93L15.73 4.92001C14.5813 4.3111 13.3001 3.99509 12 4.00001ZM12 20C14.1217 20 16.1566 19.1572 17.6569 17.6569C19.1571 16.1566 20 14.1217 20 12C20 9.65001 19 7.54001 17.37 6.07001L8.27 19.08C9.38 19.67 10.65 20 12 20Z" fill="url(#paint0_linear_562_23)"/>
<defs>
<linearGradient id="paint0_linear_562_23" x1="12" y1="1.39001" x2="12" y2="22.61" gradientUnits="userSpaceOnUse">
<stop stop-color="#4D7BFA"/>
<stop offset="1" stop-color="#02C93E"/>
</linearGradient>
</defs>
</svg>
