<svg width="25" height="25" viewBox="0 0 25 25" fill="none" xmlns="http://www.w3.org/2000/svg">
<g clip-path="url(#clip0_318_104)">
<path d="M20.6552 6.88749L14.9052 1.12186C14.6008 0.808117 14.2365 0.558685 13.8339 0.388351C13.4313 0.218018 12.9986 0.130249 12.5614 0.130249C12.1243 0.130249 11.6916 0.218018 11.289 0.388351C10.8864 0.558685 10.5221 0.808117 10.2177 1.12186L4.44995 6.88749L12.5281 10.9187L20.6552 6.88749ZM22.8604 9.21561L24.001 10.3562C24.3167 10.6595 24.5679 11.0234 24.7395 11.4262C24.911 11.8289 24.9995 12.2622 24.9995 12.7C24.9995 13.1378 24.911 13.571 24.7395 13.9738C24.5679 14.3765 24.3167 14.7405 24.001 15.0437L14.8125 24.3229C14.5945 24.5455 14.341 24.7303 14.0625 24.8698V13.6219L22.8604 9.21561ZM2.1385 9.21561L0.997871 10.3562C0.682168 10.6595 0.430991 11.0234 0.259412 11.4262C0.0878329 11.8289 -0.000610352 12.2622 -0.000610352 12.7C-0.000610352 13.1378 0.0878329 13.571 0.259412 13.9738C0.430991 14.3765 0.682168 14.7405 0.997871 15.0437L10.1875 24.3229C10.4062 24.5458 10.6593 24.7312 10.9375 24.8698V13.6219L2.1385 9.21561Z" fill="url(#paint0_linear_318_104)"/>
</g>
<defs>
<linearGradient id="paint0_linear_318_104" x1="-0.000610352" y1="12.5" x2="24.9995" y2="12.5" gradientUnits="userSpaceOnUse">
<stop stop-color="#E6007E"/>
<stop offset="1" stop-color="#006AFF"/>
</linearGradient>
<clipPath id="clip0_318_104">
<rect width="25" height="25" fill="white"/>
</clipPath>
</defs>
</svg>
