<svg width="25" height="19" viewBox="0 0 25 19" fill="none" xmlns="http://www.w3.org/2000/svg">
<path d="M21.1532 2.02596C19.5698 1.31358 17.8554 0.79654 16.0697 0.497803C16.0383 0.498234 16.0083 0.510624 15.9863 0.532273C15.7721 0.911439 15.522 1.4055 15.3554 1.78467C13.4613 1.50909 11.535 1.50909 9.64094 1.78467C9.47427 1.39401 9.22426 0.911439 8.99806 0.532273C8.98616 0.509293 8.95044 0.497803 8.91473 0.497803C7.12896 0.79654 5.42653 1.31358 3.83125 2.02596C3.81935 2.02596 3.80744 2.03745 3.79554 2.04894C0.557354 6.72532 -0.335528 11.2753 0.10496 15.7794C0.10496 15.8023 0.116865 15.8253 0.140675 15.8368C2.28359 17.3535 4.34317 18.2727 6.37894 18.8816C6.41466 18.8931 6.45037 18.8816 6.46228 18.8586C6.93848 18.2267 7.36706 17.5603 7.73612 16.8594C7.75993 16.8134 7.73612 16.7675 7.6885 16.756C7.00991 16.5032 6.36704 16.2045 5.73607 15.8598C5.68845 15.8368 5.68845 15.7679 5.72416 15.7334C5.85512 15.6415 5.98607 15.5381 6.11703 15.4462C6.14084 15.4232 6.17656 15.4232 6.20037 15.4347C10.2957 17.2386 14.7125 17.2386 18.7602 15.4347C18.784 15.4232 18.8198 15.4232 18.8436 15.4462C18.9745 15.5496 19.1055 15.6415 19.2364 15.7449C19.2841 15.7794 19.2841 15.8483 19.2245 15.8713C18.6055 16.2275 17.9507 16.5147 17.2721 16.7675C17.2245 16.779 17.2126 16.8364 17.2245 16.8709C17.6054 17.5718 18.034 18.2382 18.4983 18.8701C18.534 18.8816 18.5698 18.8931 18.6055 18.8816C20.6531 18.2727 22.7127 17.3535 24.8556 15.8368C24.8794 15.8253 24.8914 15.8023 24.8914 15.7794C25.4152 10.5744 24.0223 6.05891 21.2008 2.04894C21.1889 2.03745 21.177 2.02596 21.1532 2.02596ZM8.35519 13.0333C7.12896 13.0333 6.10512 11.9417 6.10512 10.5974C6.10512 9.2531 7.10515 8.16156 8.35519 8.16156C9.61713 8.16156 10.6172 9.26459 10.6052 10.5974C10.6052 11.9417 9.60522 13.0333 8.35519 13.0333ZM16.653 13.0333C15.4268 13.0333 14.403 11.9417 14.403 10.5974C14.403 9.2531 15.403 8.16156 16.653 8.16156C17.915 8.16156 18.915 9.26459 18.9031 10.5974C18.9031 11.9417 17.915 13.0333 16.653 13.0333Z" fill="#F5F5F5"/>
</svg>
