<svg width="46" height="49" viewBox="0 0 46 49" fill="none" xmlns="http://www.w3.org/2000/svg">
<g filter="url(#filter0_d_501_29)">
<path d="M15.9019 1.65332C19.9242 8.28579 28.9074 17.3467 38.8964 24.8452C37.8339 23.0974 36.424 21.1759 34.741 19.1594C37.0989 18.3267 36.7877 14.3323 33.8105 14.3323C32.7047 14.3323 31.9684 14.8836 31.5981 15.6191C27.2288 10.9573 21.7294 6.03166 15.9021 1.65332H15.9019ZM28.1656 3.26581C25.8297 3.26581 25.8285 6.76493 28.1656 6.76493C30.503 6.76493 30.5016 3.26581 28.1656 3.26581ZM10.9418 4.40645C8.60587 4.40645 8.60448 7.9055 10.9418 7.9055C11.0402 7.9055 11.1335 7.89943 11.2237 7.88745C12.1392 9.606 13.2246 11.4771 13.6924 12.3762C10.8287 10.0796 7.79942 7.85464 4.63818 5.81124C8.39521 11.5108 12.45 16.5878 16.8069 21.1895C13.1738 17.9184 9.07525 14.743 4.73547 11.8968C8.58331 19.3417 18.1751 28.7792 29.2628 36.0423C27.7321 33.0902 25.2494 29.7869 22.1723 26.46C25.4189 29.4541 28.8197 32.242 32.3774 34.8708C30.2224 35.0452 30.281 38.3622 32.5569 38.3622C33.8905 38.3622 34.4602 37.2231 34.2718 36.2448C36.5167 37.844 38.8237 39.3852 41.1931 40.8796C39.7256 37.0274 36.8832 32.415 33.1591 27.6571C35.7164 29.7496 38.3892 31.6966 41.1649 33.4891C37.8057 26.2022 28.8136 17.0935 18.2191 10.246C18.7812 11.4699 19.501 12.7427 20.3597 14.0477C17.7249 11.6866 14.9726 9.45507 12.1771 7.43898C13.1538 6.4866 12.7426 4.40645 10.9415 4.40645H10.9418ZM10.5982 23.799C8.26232 23.799 8.26093 27.2982 10.5982 27.2982C12.9356 27.2982 12.9342 23.7991 10.5982 23.7991V23.799ZM11.8544 30.3C9.51847 30.3 9.51707 33.7992 11.8544 33.7992C14.1917 33.7992 14.1902 30.3001 11.8544 30.3001V30.3ZM17.6709 31.3279C13.662 31.3279 13.6596 37.3342 17.6709 37.3342C21.6821 37.3342 21.6798 31.3279 17.6709 31.3279Z" fill="url(#paint0_linear_501_29)"/>
</g>
<defs>
<filter id="filter0_d_501_29" x="-1" y="0" width="50" height="50" filterUnits="userSpaceOnUse" color-interpolation-filters="sRGB">
<feFlood flood-opacity="0" result="BackgroundImageFix"/>
<feColorMatrix in="SourceAlpha" type="matrix" values="0 0 0 0 0 0 0 0 0 0 0 0 0 0 0 0 0 0 127 0" result="hardAlpha"/>
<feOffset dy="4"/>
<feGaussianBlur stdDeviation="2"/>
<feComposite in2="hardAlpha" operator="out"/>
<feColorMatrix type="matrix" values="0 0 0 0 0 0 0 0 0 0 0 0 0 0 0 0 0 0 0.25 0"/>
<feBlend mode="normal" in2="BackgroundImageFix" result="effect1_dropShadow_501_29"/>
<feBlend mode="normal" in="SourceGraphic" in2="effect1_dropShadow_501_29" result="shape"/>
</filter>
<linearGradient id="paint0_linear_501_29" x1="4.63818" y1="21.2664" x2="41.1931" y2="21.2664" gradientUnits="userSpaceOnUse">
<stop stop-color="#E6007E"/>
<stop offset="1" stop-color="#006AFF"/>
</linearGradient>
</defs>
</svg>
