<svg width="35" height="35" viewBox="0 0 35 35" fill="none" xmlns="http://www.w3.org/2000/svg">
<g clip-path="url(#clip0_318_106)">
<path d="M17.5 26.1888C17.2822 26.1889 17.0666 26.1462 16.8653 26.0631C16.6641 25.9799 16.4812 25.858 16.3271 25.7041C16.173 25.5503 16.0507 25.3676 15.9672 25.1665C15.8837 24.9654 15.8406 24.7498 15.8404 24.5321V10.551C15.8532 10.1196 16.0336 9.71012 16.3433 9.40947C16.653 9.10881 17.0676 8.94065 17.4992 8.94065C17.9309 8.94065 18.3455 9.10881 18.6552 9.40947C18.9649 9.71012 19.1453 10.1196 19.1581 10.551V24.5365C19.1581 25.4479 18.4158 26.1888 17.5 26.1888ZM28.3485 29.7471C28.1303 29.7477 27.9141 29.7051 27.7123 29.622C27.5105 29.5388 27.3271 29.4166 27.1727 29.2625C27.0182 29.1083 26.8957 28.9251 26.8122 28.7235C26.7287 28.5219 26.6858 28.3057 26.686 28.0875V6.99417C26.686 6.55402 26.8609 6.1319 27.1721 5.82066C27.4833 5.50943 27.9054 5.33458 28.3456 5.33458C28.7857 5.33458 29.2079 5.50943 29.5191 5.82066C29.8303 6.1319 30.0052 6.55402 30.0052 6.99417V28.0875C30.0052 29.0019 29.2614 29.7442 28.3456 29.7442M22.925 35C22.7072 35.0002 22.4916 34.9575 22.2903 34.8743C22.0891 34.7912 21.9062 34.6692 21.7521 34.5154C21.598 34.3615 21.4757 34.1789 21.3922 33.9778C21.3087 33.7767 21.2656 33.5611 21.2654 33.3433V1.65958C21.2654 1.21943 21.4402 0.797313 21.7515 0.486081C22.0627 0.174848 22.4848 0 22.925 0C23.3651 0 23.7872 0.174848 24.0985 0.486081C24.4097 0.797313 24.5845 1.21943 24.5845 1.65958V33.3433C24.5845 34.2577 23.8423 35 22.925 35ZM12.0808 30.3917C11.8631 30.3919 11.6474 30.3492 11.4462 30.266C11.2449 30.1829 11.062 30.0609 10.9079 29.907C10.7538 29.7532 10.6315 29.5705 10.548 29.3694C10.4645 29.1683 10.4214 28.9527 10.4212 28.735V6.26792C10.4212 5.82777 10.5961 5.40565 10.9073 5.09441C11.2185 4.78318 11.6407 4.60833 12.0808 4.60833C12.5209 4.60833 12.9431 4.78318 13.2543 5.09441C13.5655 5.40565 13.7404 5.82777 13.7404 6.26792V28.735C13.7404 29.6508 12.9966 30.3917 12.0808 30.3917ZM6.6558 23.1175C6.21629 23.1179 5.79461 22.9438 5.48342 22.6334C5.17222 22.323 4.99699 21.9018 4.99622 21.4623V13.5421C4.99622 13.1019 5.17106 12.6798 5.4823 12.3686C5.79353 12.0573 6.21565 11.8825 6.6558 11.8825C7.09595 11.8825 7.51807 12.0573 7.8293 12.3686C8.14053 12.6798 8.31538 13.1019 8.31538 13.5421V21.4638C8.31538 22.3767 7.57163 23.1175 6.6558 23.1175Z" fill="url(#paint0_linear_318_106)"/>
</g>
<defs>
<linearGradient id="paint0_linear_318_106" x1="4.99622" y1="17.5" x2="30.0052" y2="17.5" gradientUnits="userSpaceOnUse">
<stop stop-color="#E6007E"/>
<stop offset="1" stop-color="#006AFF"/>
</linearGradient>
<clipPath id="clip0_318_106">
<rect width="35" height="35" fill="white"/>
</clipPath>
</defs>
</svg>
