<svg width="35" height="35" viewBox="0 0 35 35" fill="none" xmlns="http://www.w3.org/2000/svg">
<g clip-path="url(#clip0_318_114)">
<path d="M16.4003 14.2246L24.9287 9.30416C24.9734 9.27834 25.0105 9.24111 25.0361 9.19627C25.0617 9.15143 25.075 9.10059 25.0745 9.04895L25.0774 5.32583C25.0774 4.85333 24.8835 4.3852 24.5057 4.09937C24.2758 3.92065 23.9977 3.81486 23.7071 3.79562C23.4165 3.77639 23.1268 3.8446 22.8753 3.99145L19.3389 6.03312L9.95303 11.4465C9.72997 11.5756 9.54469 11.761 9.41571 11.9841C9.28674 12.2073 9.21857 12.4604 9.21803 12.7181L9.21366 25.4362V29.556C9.21366 30.0285 9.40616 30.4967 9.78241 30.784C10.271 31.1529 10.8995 31.1894 11.4157 30.8919L14.8618 28.9027C14.9068 28.8771 14.9441 28.8399 14.97 28.7951C14.9959 28.7502 15.0094 28.6993 15.0091 28.6475L15.0135 16.625C15.0135 16.1383 15.1416 15.6603 15.3851 15.2389C15.6286 14.8175 15.9787 14.4677 16.4003 14.2246ZM31.4445 7.90125C31.2215 7.77071 30.9679 7.70177 30.7095 7.70145C30.4516 7.70202 30.1985 7.77096 29.976 7.90125L17.0551 15.3562C16.8322 15.4849 16.6469 15.6698 16.5177 15.8924C16.3885 16.115 16.3199 16.3676 16.3187 16.625L16.3143 33.5285C16.3143 34.0594 16.5885 34.5348 17.0478 34.8002C17.2707 34.9301 17.5241 34.9985 17.7821 34.9985C18.0401 34.9985 18.2935 34.9301 18.5164 34.8002L31.4372 27.3452C31.6603 27.2161 31.8455 27.0307 31.9745 26.8075C32.1035 26.5844 32.1717 26.3313 32.1722 26.0735L32.178 9.17145C32.1789 8.9138 32.1114 8.66053 31.9826 8.43741C31.8537 8.2143 31.6681 8.0293 31.4445 7.90125ZM9.30116 10.3162L18.5382 4.98604C18.583 4.96022 18.62 4.92299 18.6457 4.87815C18.6713 4.83331 18.6845 4.78247 18.6841 4.73083L18.6855 1.5327C18.6855 1.0602 18.4916 0.590621 18.1139 0.307704C17.8841 0.128756 17.606 0.0227037 17.3154 0.00321013C17.0248 -0.0162834 16.7351 0.0516744 16.4835 0.198329L3.56262 7.65625C3.33955 7.78537 3.15427 7.97077 3.0253 8.19393C2.89632 8.41708 2.82816 8.67017 2.82762 8.92791L2.82324 25.7658C2.82324 26.2383 3.0172 26.7065 3.39199 26.9937C3.6222 27.1731 3.90091 27.2792 4.19209 27.2985C4.48327 27.3177 4.77353 27.2492 5.02533 27.1017L7.76262 25.5237C7.80734 25.4979 7.84441 25.4607 7.87003 25.4159C7.89566 25.371 7.90891 25.3202 7.90845 25.2685L7.91283 12.7196C7.91283 11.7279 8.4422 10.8121 9.30116 10.3162Z" fill="url(#paint0_linear_318_114)"/>
</g>
<defs>
<linearGradient id="paint0_linear_318_114" x1="2.82324" y1="17.4992" x2="32.178" y2="17.4992" gradientUnits="userSpaceOnUse">
<stop stop-color="#E6007E"/>
<stop offset="1" stop-color="#006AFF"/>
</linearGradient>
<clipPath id="clip0_318_114">
<rect width="35" height="35" fill="white"/>
</clipPath>
</defs>
</svg>
