<svg width="37" height="37" viewBox="0 0 37 37" fill="none" xmlns="http://www.w3.org/2000/svg">
<path d="M27.7131 4.01147C28.4269 3.61063 28.894 3.35163 29.2655 3.20363C29.6139 3.06488 29.7666 3.07259 29.8714 3.0988C29.9731 3.12655 30.1073 3.1913 30.3354 3.47959C30.5806 3.78638 30.8504 4.23501 31.262 4.92876L32.964 7.79009C33.3771 8.48384 33.6423 8.93401 33.7949 9.29168C33.9368 9.62776 33.926 9.76651 33.9029 9.85593C33.8766 9.94688 33.8134 10.0748 33.5128 10.2984C33.1968 10.5358 32.7327 10.7979 32.0174 11.1987L25.9556 14.5935C25.2803 14.9727 24.8425 15.2163 24.4956 15.3535C24.1719 15.483 24.0393 15.4722 23.956 15.4491C23.8712 15.4275 23.751 15.372 23.5351 15.0991C23.3039 14.8093 23.0495 14.3823 22.6564 13.7209L20.8372 10.6668C20.4333 9.98697 20.1743 9.54605 20.0248 9.19763C19.886 8.86926 19.8968 8.73513 19.9199 8.65188C19.9431 8.56863 20.0001 8.44684 20.2869 8.23255C20.5921 8.0013 21.0407 7.75001 21.736 7.35997L27.7131 4.01147ZM13.317 13.0271L18.6357 10.0502C18.83 10.4556 19.1029 10.9135 19.4112 11.4315L21.2828 14.5765C21.5649 15.0513 21.8177 15.4753 22.0598 15.8222L19.6748 17.1573L26.1128 32.2502C26.1744 32.3958 26.2065 32.5523 26.2072 32.7104C26.208 32.8686 26.1773 33.0253 26.1171 33.1715C26.0569 33.3177 25.9683 33.4506 25.8564 33.5624C25.7445 33.6741 25.6116 33.7626 25.4653 33.8227C25.1685 33.9474 24.8344 33.9501 24.5357 33.83C24.2369 33.7099 23.9976 33.4768 23.8697 33.1813L18.5001 20.5952L13.1304 33.1813C13.0025 33.4764 12.7635 33.7092 12.4651 33.8293C12.1667 33.9493 11.833 33.947 11.5364 33.8227C11.3901 33.7626 11.2571 33.6741 11.1452 33.5624C11.0334 33.4506 10.9448 33.3177 10.8845 33.1715C10.8243 33.0253 10.7937 32.8686 10.7944 32.7104C10.7952 32.5523 10.8273 32.3958 10.8889 32.2502L16.5869 18.887C15.9671 19.2339 15.5555 19.4605 15.2271 19.5916C14.9018 19.7211 14.7692 19.7103 14.686 19.6887C14.6012 19.6656 14.4809 19.6101 14.2651 19.3372C14.0354 19.0473 13.7795 18.6203 13.3864 17.9589L12.4197 16.334C12.0143 15.6557 11.7553 15.2148 11.6057 14.8648C11.467 14.5364 11.4778 14.4038 11.5009 14.3206C11.524 14.2358 11.5811 14.1156 11.8678 13.8997C12.1731 13.67 12.6232 13.4172 13.317 13.0287" fill="url(#paint0_linear_346_57)"/>
<path d="M10.2166 15.7189L4.98268 18.6511C4.26735 19.052 3.80331 19.314 3.48727 19.5499C3.18664 19.775 3.12343 19.903 3.09877 19.9924C3.0741 20.0818 3.06331 20.2205 3.20514 20.5566C3.35622 20.9143 3.62293 21.366 4.0361 22.0597C4.44927 22.7535 4.71752 23.2021 4.9611 23.5089C5.19081 23.7972 5.32493 23.8635 5.42668 23.8897C5.53152 23.9175 5.68414 23.9236 6.0341 23.7849C6.4041 23.6369 6.87122 23.3779 7.58502 22.977L12.7912 20.0602C12.5476 19.7149 12.2963 19.2894 12.0127 18.8161L10.9921 17.1002C10.6838 16.5822 10.4124 16.1243 10.2166 15.7189Z" fill="url(#paint1_linear_346_57)"/>
<defs>
<linearGradient id="paint0_linear_346_57" x1="10.7944" y1="18.5008" x2="33.9167" y2="18.5008" gradientUnits="userSpaceOnUse">
<stop stop-color="#E6007E"/>
<stop offset="1" stop-color="#006AFF"/>
</linearGradient>
<linearGradient id="paint1_linear_346_57" x1="3.08386" y1="19.8123" x2="12.7912" y2="19.8123" gradientUnits="userSpaceOnUse">
<stop stop-color="#E6007E"/>
<stop offset="1" stop-color="#006AFF"/>
</linearGradient>
</defs>
</svg>
