<svg width="115" height="115" viewBox="0 0 115 115" fill="none" xmlns="http://www.w3.org/2000/svg">
<path fill-rule="evenodd" clip-rule="evenodd" d="M57.4999 23.9583C58.6736 23.9582 59.8063 23.5273 60.6834 22.7474C61.5604 21.9675 62.1207 20.8929 62.258 19.7273L62.2916 19.1667L62.2916 14.375C62.2902 13.1537 61.8226 11.979 60.9842 11.091C60.1458 10.2029 58.9999 9.66847 57.7807 9.5969C56.5615 9.52533 55.361 9.92199 54.4245 10.7059C53.4879 11.4897 52.886 12.6016 52.7418 13.8144L52.7083 14.375L52.7083 19.1667C52.7083 20.4375 53.2131 21.6563 54.1117 22.5549C55.0103 23.4535 56.2291 23.9583 57.4999 23.9583ZM33.7812 33.7813C34.6795 32.8827 35.1841 31.6641 35.1841 30.3936C35.1841 29.123 34.6795 27.9044 33.7812 27.0058L30.3935 23.6181C29.9514 23.1605 29.4227 22.7954 28.8381 22.5443C28.2535 22.2932 27.6247 22.161 26.9885 22.1555C26.3523 22.1499 25.7213 22.2712 25.1324 22.5121C24.5436 22.7531 24.0086 23.1088 23.5587 23.5587C23.1087 24.0086 22.753 24.5437 22.512 25.1325C22.2711 25.7214 22.1499 26.3524 22.1554 26.9886C22.1609 27.6248 22.2931 28.2536 22.5442 28.8382C22.7954 29.4228 23.1604 29.9515 23.618 30.3936L27.0058 33.7813C27.9043 34.6796 29.1229 35.1842 30.3935 35.1842C31.664 35.1842 32.8826 34.6796 33.7812 33.7813ZM87.9941 33.7813L91.3818 30.3936C92.2546 29.4898 92.7376 28.2795 92.7267 27.0231C92.7158 25.7667 92.2118 24.5649 91.3234 23.6765C90.435 22.7881 89.2332 22.2842 87.9768 22.2732C86.7205 22.2623 85.5101 22.7453 84.6064 23.6181L81.2187 27.0058C80.3458 27.9096 79.8629 29.12 79.8738 30.3763C79.8847 31.6327 80.3886 32.8345 81.277 33.7229C82.1654 34.6113 83.3673 35.1152 84.6236 35.1262C85.88 35.1371 87.0904 34.6541 87.9941 33.7813ZM60.4564 105.417C62.7926 105.417 65.0485 104.564 66.8001 103.018C68.5516 101.472 69.6781 99.3399 69.9678 97.0217L71.7887 82.455C77.2879 79.3053 81.5924 74.4269 84.0328 68.5782C86.4732 62.7296 86.9128 56.2385 85.2831 50.1142C83.6535 43.9899 80.046 38.5757 75.0215 34.7134C69.9971 30.8511 63.8373 28.7572 57.4999 28.7572C51.1625 28.7572 45.0027 30.8511 39.9783 34.7134C34.9539 38.5757 31.3464 43.9899 29.7167 50.1142C28.0871 56.2385 28.5266 62.7296 30.967 68.5782C33.4074 74.4269 37.7119 79.3053 43.2112 82.455L45.032 97.0217C45.3217 99.3399 46.4482 101.472 48.1998 103.018C49.9513 104.564 52.2072 105.417 54.5435 105.417H60.4564ZM57.4999 76.6667C52.4166 76.6667 47.5415 74.6473 43.947 71.0529C40.3526 67.4585 38.3333 62.5833 38.3333 57.5C38.3333 52.4167 40.3526 47.5416 43.947 43.9471C47.5415 40.3527 52.4166 38.3333 57.4999 38.3333C62.5832 38.3333 67.4584 40.3527 71.0528 43.9471C74.6472 47.5416 76.6666 52.4167 76.6666 57.5C76.6666 62.5833 74.6472 67.4585 71.0528 71.0529C67.4584 74.6473 62.5832 76.6667 57.4999 76.6667ZM19.1666 62.2917C20.4374 62.2917 21.6562 61.7868 22.5548 60.8882C23.4534 59.9896 23.9583 58.7708 23.9583 57.5C23.9583 56.2292 23.4534 55.0104 22.5548 54.1118C21.6562 53.2132 20.4374 52.7084 19.1666 52.7084H14.3749C13.1041 52.7084 11.8853 53.2132 10.9867 54.1118C10.0881 55.0104 9.58325 56.2292 9.58325 57.5C9.58325 58.7708 10.0881 59.9896 10.9867 60.8882C11.8853 61.7868 13.1041 62.2917 14.3749 62.2917H19.1666ZM100.625 62.2917C101.896 62.2917 103.115 61.7868 104.013 60.8882C104.912 59.9896 105.417 58.7708 105.417 57.5C105.417 56.2292 104.912 55.0104 104.013 54.1118C103.115 53.2132 101.896 52.7084 100.625 52.7084L95.8332 52.7084C94.5624 52.7084 93.3436 53.2132 92.445 54.1118C91.5464 55.0104 91.0416 56.2292 91.0416 57.5C91.0416 58.7708 91.5464 59.9896 92.445 60.8882C93.3436 61.7868 94.5624 62.2917 95.8332 62.2917L100.625 62.2917ZM91.3818 91.3771C92.2801 90.4785 92.7847 89.26 92.7847 87.9894C92.7847 86.7188 92.2801 85.5003 91.3818 84.6017L87.9941 81.214C87.5521 80.7563 87.0233 80.3913 86.4387 80.1402C85.8541 79.889 85.2254 79.7568 84.5891 79.7513C83.9529 79.7458 83.3219 79.867 82.7331 80.108C82.1442 80.3489 81.6092 80.7047 81.1593 81.1546C80.7094 81.6045 80.3536 82.1395 80.1126 82.7284C79.8717 83.3172 79.7505 83.9482 79.756 84.5844C79.7615 85.2207 79.8937 85.8494 80.1448 86.434C80.396 87.0186 80.761 87.5474 81.2187 87.9894L84.6064 91.3771C85.5049 92.2754 86.7235 92.78 87.9941 92.78C89.2647 92.78 90.4832 92.2754 91.3818 91.3771ZM30.3935 91.3771L33.7812 87.9894C34.6324 87.0816 35.0971 85.8782 35.0769 84.6339C35.0567 83.3896 34.5532 82.202 33.6729 81.3223C32.7926 80.4426 31.6046 79.94 30.3603 79.9206C29.116 79.9013 27.9129 80.3669 27.0058 81.2188L23.618 84.6065C22.7668 85.5143 22.3021 86.7176 22.3223 87.9619C22.3425 89.2063 22.846 90.3939 23.7263 91.2736C24.6066 92.1532 25.7946 92.6559 27.0389 92.6752C28.2832 92.6946 29.4863 92.229 30.3935 91.3771ZM60.4564 95.8334H54.5435L53.3455 86.25H61.6543L60.4564 95.8334Z" fill="url(#paint0_linear_403_3)"/>
<defs>
<linearGradient id="paint0_linear_403_3" x1="9.58325" y1="57.5028" x2="105.417" y2="57.5028" gradientUnits="userSpaceOnUse">
<stop stop-color="#E6007E"/>
<stop offset="1" stop-color="#006AFF"/>
</linearGradient>
</defs>
</svg>
