<svg width="20" height="20" viewBox="0 0 20 20" fill="none" xmlns="http://www.w3.org/2000/svg">
<g clip-path="url(#clip0_139_344)">
<path d="M19.2248 6.46677C19.177 5.44839 19.0143 4.75299 18.7758 4.14611C18.5341 3.5079 18.1564 2.92992 17.6689 2.45227C17.19 1.96684 16.6112 1.59133 15.9727 1.35175C15.3634 1.11649 14.6664 0.956197 13.6488 0.911538C12.6313 0.866879 12.3027 0.856512 9.70372 0.861296C7.10474 0.866081 6.77936 0.878043 5.75859 0.927487C4.74021 0.976133 4.04481 1.13802 3.43713 1.37647C2.80792 1.62209 2.27521 1.95065 1.74408 2.48337C1.25846 2.96281 0.882938 3.54214 0.643562 4.1812C0.408306 4.78968 0.248013 5.48588 0.203354 6.50426C0.158695 7.52343 0.148329 7.8512 0.153114 10.4494C0.157898 13.0476 0.169861 13.3745 0.218508 14.3945C0.266356 15.4153 0.429838 16.1067 0.667488 16.7152C0.909346 17.3531 1.28704 17.9308 1.77439 18.4082C2.25383 18.8938 2.83316 19.2694 3.47222 19.5087C4.0807 19.744 4.7769 19.9043 5.79448 19.9482C6.81525 19.9928 7.14222 20.004 9.7404 19.9984C12.3386 19.9936 12.6648 19.9824 13.6855 19.9338C14.7063 19.8859 15.3985 19.7233 16.007 19.484C16.6448 19.2424 17.2225 18.865 17.7 18.3779C18.1856 17.8987 18.5611 17.3197 18.8006 16.6809C19.035 16.0716 19.1961 15.3762 19.2392 14.357C19.2846 13.3386 19.2966 13.0109 19.2918 10.4119C19.287 7.81292 19.2751 7.48755 19.2248 6.46677ZM1.92511 6.57842C1.96498 5.64537 2.12049 5.13897 2.25048 4.80164C2.4026 4.38532 2.64655 4.00862 2.96423 3.69952C3.272 3.38081 3.6476 3.1355 4.06315 2.98179C4.40049 2.85021 4.90688 2.69231 5.83993 2.64924C6.84795 2.60139 7.15099 2.59183 9.70611 2.58545C12.2612 2.58066 12.5635 2.59023 13.5723 2.63409C14.5045 2.67397 15.0117 2.83027 15.3491 2.95946C15.7965 3.13172 16.1146 3.33986 16.4512 3.67321C16.77 3.98121 17.0153 4.3571 17.1689 4.77293C17.3005 5.11026 17.4568 5.61586 17.5015 6.54891C17.5493 7.55773 17.5589 7.85997 17.5653 10.4151C17.57 12.9694 17.5605 13.2725 17.5158 14.2829C17.4759 15.2143 17.3212 15.7215 17.1904 16.0588C17.0182 16.5054 16.8116 16.8244 16.4767 17.161C16.1418 17.4975 15.8252 17.704 15.3778 17.8787C15.0412 18.0103 14.5356 18.1674 13.6018 18.2112C12.593 18.2591 12.2899 18.2703 9.73562 18.275C7.18129 18.279 6.87825 18.2703 5.86944 18.2264C4.93639 18.1857 4.42999 18.031 4.09106 17.901C3.64447 17.7288 3.32548 17.5206 2.99054 17.1865C2.67183 16.8787 2.42652 16.5031 2.27281 16.0876C2.14123 15.751 1.98413 15.2438 1.93946 14.3124C1.89162 13.3028 1.88205 13.0005 1.87646 10.4446C1.87088 7.88868 1.88205 7.58803 1.92511 6.57842ZM14.8371 14.3802C14.6099 14.3805 14.388 14.4481 14.1993 14.5746C14.0106 14.7011 13.8636 14.8807 13.777 15.0907C13.6904 15.3007 13.6681 15.5317 13.7128 15.7544C13.7574 15.9771 13.8672 16.1816 14.0281 16.342C14.189 16.5023 14.3938 16.6113 14.6167 16.6552C14.8396 16.6991 15.0705 16.676 15.2802 16.5886C15.4899 16.5013 15.669 16.3537 15.7948 16.1646C15.9206 15.9755 15.9875 15.7533 15.9871 15.5261C15.9864 15.2217 15.8649 14.93 15.6493 14.7151C15.4337 14.5002 15.1415 14.3797 14.8371 14.3802ZM9.71249 5.51698C8.40931 5.51952 7.1605 6.03964 6.24081 6.96292C5.32111 7.88621 4.80586 9.13703 4.80839 10.4402C4.81093 11.7434 5.33106 12.9922 6.25434 13.9119C7.17763 14.8316 8.42844 15.3468 9.73163 15.3443C11.0241 15.3255 12.2571 14.7983 13.1635 13.8768C14.0699 12.9553 14.5768 11.7138 14.5743 10.4212C14.5717 9.12862 14.06 7.88909 13.15 6.97113C12.24 6.05318 11.005 5.53073 9.71249 5.51698ZM9.71568 7.24033C10.3466 7.23907 10.9637 7.42492 11.489 7.77438C12.0142 8.12385 12.4241 8.62122 12.6667 9.20362C12.9093 9.78602 12.9738 10.4273 12.8519 11.0463C12.7301 11.6653 12.4274 12.2343 11.9822 12.6813C11.5369 13.1283 10.9692 13.4333 10.3506 13.5576C9.7321 13.6819 9.09059 13.62 8.50723 13.3798C7.92386 13.1395 7.42485 12.7316 7.07329 12.2078C6.72173 11.6839 6.53341 11.0675 6.53215 10.4366C6.53131 10.0177 6.61299 9.60275 6.77252 9.21541C6.93205 8.82807 7.16632 8.47595 7.46194 8.17914C7.75756 7.88234 8.10874 7.64667 8.49544 7.48559C8.88214 7.3245 9.29677 7.24117 9.71568 7.24033Z" fill="#F5F5F5"/>
</g>
<defs>
<clipPath id="clip0_139_344">
<rect width="19.1395" height="19.1395" fill="white" transform="translate(19.2919 0.860474) rotate(90)"/>
</clipPath>
</defs>
</svg>
