<?xml version="1.0" encoding="UTF-8"?>
<svg id="logo" xmlns="http://www.w3.org/2000/svg" viewBox="0 0 680.75 99.83">
  <defs>
    <style>
      .cls-1 {
        stroke-width: .54px;
      }

      .cls-1, .cls-2, .cls-3, .cls-4, .cls-5, .cls-6, .cls-7, .cls-8, .cls-9, .cls-10, .cls-11, .cls-12, .cls-13, .cls-14, .cls-15, .cls-16, .cls-17, .cls-18, .cls-19, .cls-20, .cls-21, .cls-22, .cls-23, .cls-24, .cls-25, .cls-26, .cls-27, .cls-28, .cls-29, .cls-30, .cls-31, .cls-32, .cls-33, .cls-34, .cls-35, .cls-36, .cls-37, .cls-38, .cls-39, .cls-40, .cls-41, .cls-42, .cls-43, .cls-44, .cls-45, .cls-46, .cls-47, .cls-48, .cls-49, .cls-50, .cls-51 {
        fill: none;
        stroke: #fff;
        stroke-miterlimit: 10;
      }

      .cls-2 {
        stroke-width: .59px;
      }

      .cls-3 {
        stroke-width: .04px;
      }

      .cls-4 {
        stroke-width: .03px;
      }

      .cls-5 {
        stroke-width: .39px;
      }

      .cls-6 {
        stroke-width: .03px;
      }

      .cls-7 {
        stroke-width: .07px;
      }

      .cls-8 {
        stroke-width: .09px;
      }

      .cls-9 {
        stroke-width: .24px;
      }

      .cls-10 {
        stroke-width: .46px;
      }

      .cls-11 {
        stroke-width: .02px;
      }

      .cls-12 {
        stroke-width: .22px;
      }

      .cls-13 {
        stroke-width: .13px;
      }

      .cls-14 {
        stroke-width: .03px;
      }

      .cls-15 {
        stroke-width: .16px;
      }

      .cls-16 {
        stroke-width: .07px;
      }

      .cls-17 {
        stroke-width: .03px;
      }

      .cls-18 {
        stroke-width: .06px;
      }

      .cls-19 {
        stroke-width: .08px;
      }

      .cls-20 {
        stroke-width: .26px;
      }

      .cls-21 {
        stroke-width: .04px;
      }

      .cls-22 {
        stroke-width: .43px;
      }

      .cls-23 {
        stroke-width: .19px;
      }

      .cls-24 {
        stroke-width: .75px;
      }

      .cls-25 {
        stroke-width: .01px;
      }

      .cls-26 {
        stroke-width: .1px;
      }

      .cls-27 {
        stroke-width: .05px;
      }

      .cls-28 {
        stroke-width: .21px;
      }

      .cls-29 {
        stroke-width: .18px;
      }

      .cls-30 {
        stroke-width: .34px;
      }

      .cls-31 {
        stroke-width: .12px;
      }

      .cls-32 {
        stroke-width: .02px;
      }

      .cls-33 {
        stroke-width: .02px;
      }

      .cls-34 {
        stroke-width: .11px;
      }

      .cls-35 {
        stroke-width: .06px;
      }

      .cls-36 {
        stroke-width: .02px;
      }

      .cls-37 {
        stroke-width: .05px;
      }

      .cls-38 {
        stroke-width: .36px;
      }

      .cls-39 {
        stroke-width: .29px;
      }

      .cls-40 {
        stroke-width: .04px;
      }

      .cls-41 {
        stroke-width: .02px;
      }

      .cls-52 {
        fill: #fff;
        stroke-width: 0px;
      }

      .cls-42 {
        stroke-width: .64px;
      }

      .cls-43 {
        stroke-width: .15px;
      }

      .cls-44 {
        stroke-width: .5px;
      }

      .cls-45 {
        stroke-width: .02px;
      }

      .cls-46 {
        stroke-width: .69px;
      }

      .cls-47 {
        stroke-width: .04px;
      }

      .cls-48 {
        stroke-width: .14px;
      }

      .cls-49 {
        stroke-width: .09px;
      }

      .cls-50 {
        stroke-width: .81px;
      }

      .cls-51 {
        stroke-width: .31px;
      }
    </style>
  </defs>
  <path class="cls-52" d="M162.49,6.07l-20.95,52.37c-.31.77-1.05,1.28-1.89,1.28h-8.54c-.83,0-1.58-.51-1.89-1.28L108.28,6.07c-.53-1.33.45-2.78,1.89-2.78h8.49c.84,0,1.59.51,1.89,1.3l14.84,38.21,14.49-38.19c.3-.79,1.05-1.31,1.9-1.31h8.82c1.44,0,2.42,1.45,1.89,2.78Z"/>
  <path class="cls-52" d="M326.45,57.57v-20.84l-20.77-31.15c-.95-1.43.07-3.34,1.79-3.34h9.25c.69,0,1.35.34,1.75.9l13.73,19.22,13.91-19.23c.4-.56,1.05-.89,1.74-.89h9.08c1.72,0,2.74,1.91,1.79,3.34l-20.77,31.15v20.84c0,1.19-.96,2.15-2.15,2.15h-7.2c-1.19,0-2.15-.96-2.15-2.15Z"/>
  <path class="cls-52" d="M455.98,48.22h-34.49v9.35c0,1.19-.96,2.15-2.15,2.15h-7.2c-1.19,0-2.15-.96-2.15-2.15v-26.59c0-7.9,2.81-14.67,8.44-20.3,5.63-5.63,12.39-8.44,20.3-8.44s14.67,2.81,20.3,8.44c5.63,5.63,8.44,12.39,8.44,20.3v26.59c0,1.19-.96,2.15-2.15,2.15h-7.2c-1.19,0-2.15-.96-2.15-2.15v-9.35ZM421.5,36.72h34.49v-5.75c0-4.79-1.68-8.86-5.03-12.22-3.35-3.35-7.43-5.03-12.22-5.03s-8.86,1.68-12.21,5.03c-3.35,3.35-5.03,7.43-5.03,12.22v5.75Z"/>
  <path class="cls-52" d="M574.58,27.37v30.19c0,1.19-.96,2.15-2.15,2.15h-26.59c-8.02,0-14.82-2.81-20.39-8.44-5.38-5.44-8.41-12.91-8.35-20.55.06-7.8,2.84-14.48,8.35-20.04,5.57-5.63,12.36-8.44,20.39-8.44h26.59c1.19,0,2.15.96,2.15,2.15v7.2c0,1.19-.96,2.15-2.15,2.15h-26.59c-4.79,0-8.86,1.68-12.21,5.03s-5.03,7.43-5.03,12.22,1.68,8.86,5.03,12.21c3.35,3.35,7.42,5.03,12.21,5.03h17.24v-11.5h-9.35c-1.19,0-2.15-.96-2.15-2.15v-7.2c0-1.19.96-2.15,2.15-2.15h18.7c1.19,0,2.15.96,2.15,2.15Z"/>
  <path class="cls-52" d="M678.6,36.72h-42.94c.84,2.4,2.22,4.55,4.13,6.47,3.35,3.35,7.42,5.03,12.21,5.03h26.59c1.19,0,2.15.96,2.15,2.15v7.2c0,1.19-.96,2.15-2.15,2.15h-26.59c-8.02,0-14.82-2.81-20.39-8.44-5.37-5.44-8.41-12.91-8.35-20.55.06-7.8,2.84-14.48,8.35-20.05,5.57-5.63,12.36-8.44,20.39-8.44h26.59c1.19,0,2.15.96,2.15,2.15v7.2c0,1.19-.96,2.15-2.15,2.15h-26.59c-4.79,0-8.86,1.68-12.21,5.03-1.92,1.92-3.3,4.07-4.13,6.47h42.94c1.19,0,2.15.96,2.15,2.15v7.2c0,1.19-.96,2.15-2.15,2.15Z"/>
  <g>
    <path class="cls-52" d="M111.44,77.26h2.7c.44,0,.79.36.79.8v19.94c0,.44-.35.8-.79.8h-2.7c-.44,0-.79-.36-.79-.79v-19.94c0-.44.35-.8.79-.8Z"/>
    <path class="cls-52" d="M161.99,97.99v-9.68c0-1.92-.72-3.82-2.13-5.11-1.2-1.09-2.62-1.63-4.28-1.63-1.74,0-3.45.72-4.66,1.99-1.18,1.24-1.77,2.73-1.77,4.47v9.97c0,.44-.35.79-.79.79h-2.7c-.44,0-.79-.36-.79-.79v-9.97c0-3.05,1.08-5.63,3.24-7.74,1.97-1.92,4.66-3.02,7.4-3.03,2.96-.01,5.5,1.03,7.61,3.13,2.09,2.09,3.14,4.63,3.14,7.64v9.97c0,.44-.35.79-.79.79h-2.7c-.44,0-.79-.36-.79-.79Z"/>
    <path class="cls-52" d="M187.67,80.77v-2.72c0-.44.35-.79.79-.79h19.82c.44,0,.79.36.79.79v2.72c0,.44-.35.79-.79.79h-7.77v16.43c0,.44-.35.79-.79.79h-2.7c-.44,0-.79-.36-.79-.79v-16.43h-7.77c-.44,0-.79-.36-.79-.79Z"/>
    <path class="cls-52" d="M251.06,90.17h-15.99c.35,1,.94,1.89,1.79,2.66,1.19,1.09,2.78,1.64,4.39,1.64h9.81c.44,0,.79.36.79.79v2.72c0,.44-.35.79-.79.79h-9.91c-3.04,0-5.6-1.09-7.69-3.27-1.9-1.98-2.99-4.69-3-7.45-.01-2.98,1.03-5.53,3.11-7.65,2.07-2.11,4.6-3.16,7.59-3.16h9.91c.44,0,.79.36.79.79v2.72c0,.44-.35.79-.79.79h-9.83c-1.6,0-3.19.55-4.37,1.64-.84.78-1.44,1.66-1.79,2.66h15.99c.44,0,.79.36.79.79v2.72c0,.44-.35.79-.79.79Z"/>
    <path class="cls-52" d="M288.14,98.61l-10.62-8.44v7.82c0,.44-.35.79-.79.79h-2.7c-.44,0-.79-.36-.79-.79v-19.94c0-.44.35-.79.79-.79h12.05c5.71,0,8.56,2.15,8.56,6.46s-2.85,6.46-8.56,6.46h-1.94l8.78,7.2c.57.47.24,1.41-.5,1.41h-3.79c-.18,0-.35-.06-.49-.17ZM277.53,85.87h8.56c2.85,0,4.28-.72,4.28-2.15s-1.43-2.15-4.28-2.15h-8.56v4.31Z"/>
    <path class="cls-52" d="M337.43,78.05v2.72c0,.44-.35.79-.79.79h-12.05c-2.85,0-4.28.72-4.28,2.15s1.43,2.15,4.28,2.15h4.28c5.71,0,8.56,2.15,8.56,6.46s-2.85,6.46-8.56,6.46h-12.05c-.44,0-.79-.36-.79-.79v-2.72c0-.44.35-.79.79-.79h12.05c2.85,0,4.28-.72,4.28-2.15s-1.43-2.15-4.28-2.15h-4.28c-5.71,0-8.56-2.15-8.56-6.46s2.85-6.46,8.56-6.46h12.05c.44,0,.79.36.79.79Z"/>
    <path class="cls-52" d="M358.83,80.77v-2.72c0-.44.35-.79.79-.79h19.82c.44,0,.79.36.79.79v2.72c0,.44-.35.79-.79.79h-7.77v16.43c0,.44-.35.79-.79.79h-2.7c-.44,0-.79-.36-.79-.79v-16.43h-7.77c-.44,0-.79-.36-.79-.79Z"/>
    <path class="cls-52" d="M422.22,90.17h-15.99c.35,1,.94,1.89,1.79,2.66,1.19,1.09,2.78,1.64,4.39,1.64h9.81c.44,0,.79.36.79.79v2.72c0,.44-.35.79-.79.79h-9.91c-3.04,0-5.6-1.09-7.69-3.27-1.9-1.98-2.99-4.69-3-7.45-.01-2.98,1.03-5.53,3.11-7.65,2.07-2.11,4.6-3.16,7.59-3.16h9.91c.44,0,.79.36.79.79v2.72c0,.44-.35.79-.79.79h-9.83c-1.6,0-3.19.55-4.37,1.64-.84.78-1.44,1.66-1.79,2.66h15.99c.44,0,.79.36.79.79v2.72c0,.44-.35.79-.79.79Z"/>
    <path class="cls-52" d="M448.69,78.05v9.97c0,1.51.5,3,1.48,4.15,1.32,1.54,2.97,2.31,4.94,2.31h9.91c.44,0,.79.36.79.79v2.72c0,.44-.35.79-.79.79h-9.91c-3.25,0-5.96-1.25-8.13-3.75-1.69-1.95-2.56-4.5-2.56-7.09v-9.89c0-.44.35-.79.79-.79h2.7c.44,0,.79.36.79.79Z"/>
    <path class="cls-52" d="M491.48,78.05v9.97c0,1.51.5,3,1.48,4.15,1.32,1.54,2.97,2.31,4.94,2.31h9.91c.44,0,.79.36.79.79v2.72c0,.44-.35.79-.79.79h-9.91c-3.25,0-5.96-1.25-8.13-3.75-1.69-1.95-2.56-4.5-2.56-7.09v-9.89c0-.44.35-.79.79-.79h2.7c.44,0,.79.36.79.79Z"/>
    <path class="cls-52" d="M547.1,94.48h-12.84v3.51c0,.44-.35.79-.79.79h-2.7c-.44,0-.79-.36-.79-.79v-9.97c0-2.96,1.05-5.49,3.14-7.6,2.09-2.11,4.61-3.16,7.55-3.16s5.46,1.05,7.56,3.16c2.09,2.11,3.14,4.64,3.14,7.6v9.97c0,.44-.35.79-.79.79h-2.7c-.44,0-.79-.36-.79-.79v-3.51ZM534.27,90.17h12.84v-1.87c0-1.92-.72-3.82-2.13-5.11-1.2-1.09-2.62-1.63-4.28-1.63-1.74,0-3.45.72-4.66,1.99s-1.77,2.73-1.77,4.47v2.15Z"/>
    <path class="cls-52" d="M582.12,77.26h2.7c.44,0,.79.36.79.79v19.94c0,.44-.35.79-.79.79h-2.7c-.44,0-.79-.36-.79-.79v-19.94c0-.44.35-.79.79-.79Z"/>
    <path class="cls-52" d="M630.46,98.61l-10.62-8.44v7.82c0,.44-.35.79-.79.79h-2.7c-.44,0-.79-.36-.79-.79v-19.94c0-.44.35-.79.79-.79h12.05c5.71,0,8.56,2.15,8.56,6.46s-2.85,6.46-8.56,6.46h-1.94l8.78,7.2c.57.47.24,1.41-.5,1.41h-3.79c-.18,0-.35-.06-.49-.17ZM619.85,85.87h8.56c2.85,0,4.28-.72,4.28-2.15s-1.43-2.15-4.28-2.15h-8.56v4.31Z"/>
    <path class="cls-52" d="M678.96,90.17h-15.99c.35,1,.94,1.89,1.79,2.66,1.19,1.09,2.78,1.64,4.39,1.64h9.81c.44,0,.79.36.79.79v2.72c0,.44-.35.79-.79.79h-9.91c-3.04,0-5.6-1.09-7.69-3.27-1.9-1.98-2.99-4.69-3-7.45-.01-2.98,1.03-5.53,3.11-7.65,2.07-2.11,4.6-3.16,7.59-3.16h9.91c.44,0,.79.36.79.79v2.72c0,.44-.35.79-.79.79h-9.83c-1.6,0-3.19.55-4.37,1.64-.84.78-1.44,1.66-1.79,2.66h15.99c.44,0,.79.36.79.79v2.72c0,.44-.35.79-.79.79Z"/>
  </g>
  <path class="cls-52" d="M233.98,59.72c-8.21,0-15.24-2.92-21.09-8.77-5.85-5.85-8.77-12.88-8.77-21.09s2.92-15.24,8.77-21.09c5.85-5.85,12.88-8.77,21.09-8.77s15.24,2.92,21.09,8.77c5.85,5.85,8.77,12.88,8.77,21.09s-2.92,15.24-8.77,21.09c-5.85,5.85-12.88,8.77-21.09,8.77ZM233.98,47.77c4.97,0,9.21-1.74,12.69-5.23,3.48-3.48,5.22-7.71,5.22-12.69s-1.74-9.21-5.22-12.69c-3.48-3.48-7.72-5.22-12.69-5.22s-9.21,1.74-12.69,5.22c-3.48,3.48-5.23,7.72-5.23,12.69s1.74,9.21,5.23,12.69c3.48,3.48,7.71,5.23,12.69,5.23Z"/>
  <path class="cls-25" d="M48.59,52.18c-.39.75-.77.98-.83.53s.21-1.43.6-2.17.77-.98.83-.53-.21,1.43-.6,2.17Z"/>
  <path class="cls-36" d="M48.43,50.39c.46-.82.86-1.06.88-.53s-.33,1.63-.8,2.45-.86,1.06-.88.53.33-1.63.8-2.45Z"/>
  <path class="cls-11" d="M48.43,52.48c-.54.91-.96,1.14-.93.52s.48-1.86,1.02-2.76.96-1.14.93-.52-.48,1.86-1.02,2.76Z"/>
  <path class="cls-45" d="M48.62,50.06c.62-1,1.06-1.22.98-.51s-.64,2.1-1.27,3.1c-.62,1-1.06,1.22-.98.51s.64-2.1,1.27-3.1Z"/>
  <path class="cls-32" d="M48.22,52.84c-.71,1.09-1.18,1.31-1.03.49s.83-2.37,1.55-3.46,1.18-1.31,1.03-.49-.83,2.37-1.55,3.46Z"/>
  <path class="cls-41" d="M48.87,49.66c.81-1.19,1.3-1.4,1.08-.46s-1.05,2.66-1.86,3.85c-.81,1.19-1.3,1.4-1.08.46s1.05-2.66,1.86-3.85Z"/>
  <path class="cls-33" d="M47.94,53.28c-.92,1.3-1.43,1.49-1.13.42s1.29-2.98,2.21-4.27,1.43-1.49,1.13-.42c-.3,1.06-1.29,2.98-2.21,4.27Z"/>
  <path class="cls-17" d="M49.19,49.18c1.04-1.41,1.57-1.58,1.18-.38s-1.56,3.32-2.6,4.72c-1.04,1.41-1.57,1.58-1.18.38.39-1.2,1.56-3.32,2.6-4.72Z"/>
  <path class="cls-6" d="M47.57,53.8c-1.17,1.53-1.72,1.67-1.22.32.5-1.35,1.86-3.68,3.03-5.21,1.17-1.53,1.72-1.67,1.22-.32-.5,1.35-1.86,3.68-3.03,5.21Z"/>
  <path class="cls-14" d="M49.61,48.61c1.32-1.65,1.88-1.76,1.25-.24s-2.2,4.08-3.51,5.73-1.88,1.76-1.25.24c.62-1.51,2.2-4.08,3.51-5.73Z"/>
  <path class="cls-4" d="M47.1,54.42c-1.47,1.78-2.04,1.85-1.28.16.76-1.69,2.57-4.5,4.04-6.28s2.04-1.85,1.28-.16c-.76,1.69-2.57,4.5-4.04,6.28Z"/>
  <path class="cls-3" d="M50.13,47.95c1.63-1.91,2.22-1.93,1.3-.05-.91,1.88-2.98,4.95-4.62,6.86s-2.22,1.93-1.3.05c.91-1.88,2.98-4.95,4.62-6.86Z"/>
  <path class="cls-21" d="M46.51,55.13c-1.81,2.05-2.4,2.01-1.32-.07,1.09-2.09,3.44-5.44,5.25-7.48,1.81-2.05,2.4-2.01,1.32.07-1.09,2.09-3.44,5.44-5.25,7.48Z"/>
  <path class="cls-40" d="M50.79,47.18c2-2.19,2.59-2.09,1.32.22-1.28,2.31-3.94,5.95-5.94,8.13s-2.59,2.09-1.32-.22,3.94-5.95,5.94-8.13Z"/>
  <path class="cls-47" d="M45.78,55.96c-2.21,2.33-2.79,2.16-1.31-.39,1.49-2.54,4.48-6.49,6.69-8.82,2.21-2.33,2.79-2.16,1.31.39s-4.48,6.49-6.69,8.82Z"/>
  <path class="cls-27" d="M51.59,46.3c2.43-2.47,3-2.21,1.28.58-1.72,2.79-5.08,7.07-7.51,9.54-2.43,2.47-3,2.21-1.28-.58,1.72-2.79,5.08-7.07,7.51-9.54Z"/>
  <path class="cls-37" d="M44.9,56.9c-2.66,2.62-3.21,2.26-1.24-.8,1.98-3.06,5.74-7.67,8.4-10.29,2.66-2.62,3.21-2.26,1.24.8-1.98,3.06-5.74,7.67-8.4,10.29Z"/>
  <path class="cls-18" d="M52.57,45.29c2.91-2.76,3.43-2.29,1.17,1.06s-6.45,8.3-9.36,11.07c-2.91,2.76-3.43,2.29-1.17-1.06,2.26-3.35,6.45-8.3,9.36-11.07Z"/>
  <path class="cls-35" d="M43.83,57.96c-3.17,2.91-3.66,2.31-1.09-1.34s7.22-8.96,10.39-11.87c3.17-2.91,3.66-2.31,1.09,1.34-2.57,3.65-7.22,8.96-10.39,11.87Z"/>
  <path class="cls-16" d="M53.74,44.17c3.45-3.05,3.88-2.3.98,1.66-2.91,3.97-8.05,9.65-11.5,12.7-3.45,3.05-3.88,2.3-.98-1.66s8.05-9.65,11.5-12.7Z"/>
  <path class="cls-7" d="M42.55,59.14c-3.74,3.18-4.11,2.27-.84-2.03s8.95-10.36,12.69-13.54c3.74-3.18,4.11-2.27.84,2.03-3.27,4.3-8.95,10.36-12.69,13.54Z"/>
  <path class="cls-19" d="M55.13,42.94c4.04-3.31,4.34-2.22.66,2.43s-9.92,11.1-13.96,14.4c-4.04,3.31-4.34,2.22-.66-2.43s9.92-11.1,13.96-14.4Z"/>
  <path class="cls-8" d="M41.04,60.43c-4.35,3.42-4.56,2.13-.45-2.89,4.1-5.01,10.96-11.85,15.32-15.27,4.35-3.42,4.56-2.13.45,2.89-4.1,5.01-10.96,11.85-15.32,15.27Z"/>
  <path class="cls-49" d="M56.75,41.59c4.68-3.52,4.77-2,.2,3.39-4.57,5.39-12.07,12.62-16.76,16.14-4.68,3.52-4.77,2-.2-3.39s12.07-12.62,16.76-16.14Z"/>
  <path class="cls-26" d="M39.29,61.82c-5.02,3.6-4.98,1.84.09-3.95,5.07-5.78,13.26-13.39,18.28-16.99,5.02-3.6,4.98-1.84-.09,3.95-5.07,5.78-13.26,13.39-18.28,16.99Z"/>
  <path class="cls-34" d="M58.65,40.16c5.37-3.66,5.17-1.62-.44,4.56-5.62,6.18-14.52,14.17-19.89,17.83-5.37,3.66-5.17,1.62.44-4.56,5.62-6.18,14.52-14.17,19.89-17.83Z"/>
  <path class="cls-31" d="M37.26,63.29c-5.73,3.7-5.35,1.36.85-5.24,6.2-6.59,15.86-14.94,21.59-18.64,5.73-3.7,5.35-1.36-.85,5.24-6.2,6.59-15.86,14.94-21.59,18.64Z"/>
  <path class="cls-13" d="M60.82,38.66c6.09-3.71,5.5-1.03-1.31,5.98-6.81,7.01-17.27,15.7-23.36,19.4-6.09,3.71-5.5,1.03,1.31-5.98,6.81-7.01,17.27-15.7,23.36-19.4Z"/>
  <path class="cls-48" d="M34.94,64.81c-6.45,3.68-5.63.63,1.85-6.8,7.47-7.43,18.76-16.43,25.22-20.11s5.63-.63-1.85,6.8c-7.47,7.43-18.76,16.43-25.22,20.11Z"/>
  <path class="cls-43" d="M63.28,37.15c6.82-3.6,5.72-.16-2.46,7.68-8.17,7.85-20.33,17.13-27.15,20.74-6.82,3.6-5.72.16,2.46-7.68,8.17-7.85,20.33-17.13,27.15-20.74Z"/>
  <path class="cls-15" d="M32.33,66.32c-7.18,3.48-5.77-.39,3.15-8.65,8.92-8.26,21.96-17.78,29.14-21.27,7.18-3.48,5.77.39-3.15,8.65-8.92,8.26-21.96,17.78-29.14,21.27Z"/>
  <path class="cls-29" d="M66.04,35.66c7.53-3.31,5.77,1.04-3.93,9.7-9.7,8.67-23.67,18.37-31.2,21.68s-5.77-1.04,3.93-9.7c9.7-8.67,23.67-18.37,31.2-21.68Z"/>
  <path class="cls-23" d="M29.42,67.75c-7.87,3.07-5.71-1.78,4.81-10.84,10.52-9.06,25.43-18.89,33.3-21.96,7.87-3.07,5.71,1.78-4.81,10.84-10.52,9.06-25.43,18.89-33.3,21.96Z"/>
  <path class="cls-28" d="M69.09,34.29c8.19-2.76,5.59,2.65-5.79,12.07-11.39,9.42-27.25,19.3-35.44,22.06-8.19,2.76-5.59-2.65,5.79-12.07,11.39-9.42,27.25-19.3,35.44-22.06Z"/>
  <path class="cls-12" d="M26.23,69.03c-8.48,2.37-5.39-3.63,6.89-13.39s29.12-19.59,37.6-21.96,5.39,3.63-6.89,13.39c-12.29,9.76-29.12,19.59-37.6,21.96Z"/>
  <path class="cls-9" d="M72.42,33.13c8.74-1.88,5.11,4.75-8.12,14.82-13.22,10.06-31.03,19.75-39.77,21.63-8.74,1.88-5.11-4.75,8.12-14.82,13.22-10.06,31.03-19.75,39.77-21.63Z"/>
  <path class="cls-20" d="M22.78,70.04c-8.96,1.29-4.72-6.02,9.47-16.34s32.96-19.73,41.93-21.02c8.96-1.29,4.72,6.02-9.47,16.34-14.19,10.32-32.96,19.73-41.93,21.02Z"/>
  <path class="cls-39" d="M75.98,32.32c9.13-.59,4.22,7.46-10.97,17.97-15.19,10.51-34.91,19.51-44.04,20.1s-4.22-7.46,10.97-17.97c15.19-10.51,34.91-19.51,44.04-20.1Z"/>
  <path class="cls-51" d="M19.13,70.62c-9.24-.24-3.59-9.07,12.62-19.7,16.21-10.64,36.84-19.06,46.08-18.82,9.24.24,3.59,9.07-12.62,19.7-16.21,10.64-36.84,19.06-46.08,18.82Z"/>
  <path class="cls-30" d="M79.71,32.02c9.28,1.22,2.82,10.86-14.43,21.54-17.25,10.68-38.75,18.35-48.03,17.13-9.28-1.22-2.82-10.86,14.43-21.54,17.25-10.68,38.75-18.35,48.03-17.13Z"/>
  <path class="cls-38" d="M15.35,70.59c-9.23-2.35-1.88-12.87,16.42-23.49,18.3-10.62,40.61-17.33,49.84-14.98,9.23,2.35,1.88,12.87-16.42,23.49-18.3,10.62-40.61,17.33-49.84,14.98Z"/>
  <path class="cls-5" d="M83.51,32.43c9.08,3.66.76,15.1-18.59,25.55-19.35,10.45-42.39,15.96-51.47,12.3-9.08-3.66-.76-15.1,18.59-25.55,19.35-10.45,42.39-15.96,51.47-12.3Z"/>
  <path class="cls-22" d="M11.56,69.73c-8.81-5.16.57-17.57,20.96-27.71,20.39-10.15,44.06-14.19,52.87-9.03,8.81,5.16-.57,17.57-20.96,27.71-20.39,10.15-44.06,14.19-52.87,9.03Z"/>
  <path class="cls-10" d="M87.24,33.82c8.41,6.87-2.12,20.29-23.53,29.98-21.41,9.69-45.58,11.97-54,5.1-8.41-6.87,2.12-20.29,23.53-29.98,21.41-9.69,45.58-11.97,54-5.1Z"/>
  <path class="cls-44" d="M7.93,67.74c-7.86-8.81,3.92-23.29,26.31-32.34,22.39-9.05,46.92-9.24,54.78-.43,7.86,8.81-3.92,23.29-26.31,32.34-22.39,9.05-46.92,9.24-54.78.43Z"/>
  <path class="cls-1" d="M90.72,36.48c7.14,11-5.99,26.58-29.33,34.8-23.33,8.21-48.03,5.95-55.17-5.05-7.14-11,5.99-26.58,29.33-34.8,23.33-8.21,48.03-5.95,55.17,5.05Z"/>
  <path class="cls-2" d="M4.66,64.3c-6.21-13.47,8.37-30.18,32.57-37.33,24.2-7.15,48.85-2.03,55.07,11.44,6.21,13.47-8.37,30.18-32.57,37.33-24.2,7.15-48.85,2.03-55.07-11.44Z"/>
  <path class="cls-42" d="M93.71,40.8c5.06,16.23-11.08,34.12-36.06,39.95-24.98,5.83-49.34-2.6-54.4-18.83C-1.82,45.68,14.33,27.8,39.31,21.97c24.98-5.83,49.34,2.6,54.4,18.83Z"/>
  <path class="cls-46" d="M2.03,59C-1.64,39.69,16.19,20.61,41.84,16.38c25.65-4.22,49.42,8.01,53.09,27.33,3.67,19.31-14.15,38.39-39.81,42.62-25.65,4.22-49.42-8.01-53.09-27.33Z"/>
  <ellipse class="cls-24" cx="48.48" cy="51.36" rx="47.59" ry="41.34" transform="translate(-4.29 4.42) rotate(-5)"/>
  <circle class="cls-50" cx="48.48" cy="51.36" r="48.07"/>
</svg>