<?xml version="1.0" encoding="UTF-8"?>
<svg id="Calque_2" data-name="Calque 2" xmlns="http://www.w3.org/2000/svg" xmlns:xlink="http://www.w3.org/1999/xlink" viewBox="0 0 489.58 84.82">
  <defs>
    <style>
      .cls-1 {
        stroke: url(#Dégradé_sans_nom_9-46);
        stroke-width: .46px;
      }

      .cls-1, .cls-2, .cls-3, .cls-4, .cls-5, .cls-6, .cls-7, .cls-8, .cls-9, .cls-10, .cls-11, .cls-12, .cls-13, .cls-14, .cls-15, .cls-16, .cls-17, .cls-18, .cls-19, .cls-20, .cls-21, .cls-22, .cls-23, .cls-24, .cls-25, .cls-26, .cls-27, .cls-28, .cls-29, .cls-30, .cls-31, .cls-32, .cls-33, .cls-34, .cls-35, .cls-36, .cls-37, .cls-38, .cls-39, .cls-40, .cls-41, .cls-42, .cls-43, .cls-44, .cls-45, .cls-46, .cls-47, .cls-48, .cls-49, .cls-50, .cls-51 {
        fill: none;
        stroke-miterlimit: 10;
      }

      .cls-2 {
        stroke: url(#Dégradé_sans_nom_9-24);
        stroke-width: .08px;
      }

      .cls-3 {
        stroke: url(#Dégradé_sans_nom_9-33);
        stroke-width: .16px;
      }

      .cls-4 {
        stroke: url(#Dégradé_sans_nom_9-37);
        stroke-width: .22px;
      }

      .cls-5 {
        stroke: url(#Dégradé_sans_nom_9-22);
        stroke-width: .07px;
      }

      .cls-6 {
        stroke: url(#Dégradé_sans_nom_9-18);
        stroke-width: .05px;
      }

      .cls-7 {
        stroke: url(#Dégradé_sans_nom_9-9);
        stroke-width: .02px;
      }

      .cls-8 {
        stroke: url(#Dégradé_sans_nom_9-49);
        stroke-width: .59px;
      }

      .cls-9 {
        stroke: url(#Dégradé_sans_nom_9-11);
        stroke-width: .03px;
      }

      .cls-10 {
        stroke: url(#Dégradé_sans_nom_9-2);
        stroke-width: .01px;
      }

      .cls-11 {
        stroke: url(#Dégradé_sans_nom_9-7);
        stroke-width: .02px;
      }

      .cls-12 {
        stroke: url(#Dégradé_sans_nom_9-3);
        stroke-width: .01px;
      }

      .cls-13 {
        stroke: url(#Dégradé_sans_nom_9-44);
        stroke-width: .39px;
      }

      .cls-14 {
        stroke: url(#Dégradé_sans_nom_9-34);
        stroke-width: .18px;
      }

      .cls-15 {
        stroke: url(#Dégradé_sans_nom_9-10);
        stroke-width: .03px;
      }

      .cls-16 {
        stroke: url(#Dégradé_sans_nom_9-25);
        stroke-width: .08px;
      }

      .cls-17 {
        stroke: url(#Dégradé_sans_nom_9-14);
        stroke-width: .04px;
      }

      .cls-18 {
        stroke: url(#Dégradé_sans_nom_9-35);
        stroke-width: .19px;
      }

      .cls-19 {
        stroke: url(#Dégradé_sans_nom_9-48);
        stroke-width: .54px;
      }

      .cls-20 {
        stroke: url(#Dégradé_sans_nom_9-26);
        stroke-width: .09px;
      }

      .cls-21 {
        stroke: url(#Dégradé_sans_nom_9-30);
        stroke-width: .13px;
      }

      .cls-22 {
        stroke: url(#Dégradé_sans_nom_9-17);
        stroke-width: .04px;
      }

      .cls-23 {
        stroke: url(#Dégradé_sans_nom_9-31);
        stroke-width: .14px;
      }

      .cls-24 {
        stroke: url(#Dégradé_sans_nom_9-51);
        stroke-width: .69px;
      }

      .cls-25 {
        stroke: url(#Dégradé_sans_nom_9-45);
        stroke-width: .42px;
      }

      .cls-26 {
        stroke: url(#Dégradé_sans_nom_9-16);
        stroke-width: .04px;
      }

      .cls-27 {
        stroke: url(#Dégradé_sans_nom_9-27);
        stroke-width: .1px;
      }

      .cls-28 {
        stroke: url(#Dégradé_sans_nom_9);
        stroke-width: .01px;
      }

      .cls-29 {
        stroke: url(#Dégradé_sans_nom_9-13);
        stroke-width: .03px;
      }

      .cls-30 {
        stroke: url(#Dégradé_sans_nom_9-41);
        stroke-width: .31px;
      }

      .cls-31 {
        stroke: url(#Dégradé_sans_nom_9-32);
        stroke-width: .15px;
      }

      .cls-32 {
        stroke: url(#Dégradé_sans_nom_9-43);
        stroke-width: .36px;
      }

      .cls-33 {
        stroke: url(#Dégradé_sans_nom_9-4);
        stroke-width: .02px;
      }

      .cls-34 {
        stroke: url(#Dégradé_sans_nom_9-29);
        stroke-width: .12px;
      }

      .cls-35 {
        stroke: url(#Dégradé_sans_nom_9-21);
        stroke-width: .06px;
      }

      .cls-36 {
        stroke: url(#Dégradé_sans_nom_9-40);
        stroke-width: .28px;
      }

      .cls-37 {
        stroke: url(#Dégradé_sans_nom_9-28);
        stroke-width: .11px;
      }

      .cls-38 {
        stroke: url(#Dégradé_sans_nom_9-42);
        stroke-width: .33px;
      }

      .cls-39 {
        stroke: url(#Dégradé_sans_nom_9-20);
        stroke-width: .06px;
      }

      .cls-40 {
        stroke: url(#Dégradé_sans_nom_9-38);
        stroke-width: .24px;
      }

      .cls-52 {
        fill: #fff;
        stroke-width: 0px;
      }

      .cls-41 {
        stroke: url(#Dégradé_sans_nom_9-8);
        stroke-width: .02px;
      }

      .cls-42 {
        stroke: url(#Dégradé_sans_nom_9-39);
        stroke-width: .26px;
      }

      .cls-43 {
        stroke: url(#Dégradé_sans_nom_9-19);
        stroke-width: .05px;
      }

      .cls-44 {
        stroke: url(#Dégradé_sans_nom_9-50);
        stroke-width: .63px;
      }

      .cls-45 {
        stroke: url(#Dégradé_sans_nom_9-5);
        stroke-width: .02px;
      }

      .cls-46 {
        stroke: url(#Dégradé_sans_nom_9-23);
        stroke-width: .07px;
      }

      .cls-47 {
        stroke: url(#Dégradé_sans_nom_9-47);
        stroke-width: .5px;
      }

      .cls-48 {
        stroke: url(#Dégradé_sans_nom_9-36);
        stroke-width: .21px;
      }

      .cls-49 {
        stroke: url(#Dégradé_sans_nom_9-6);
        stroke-width: .02px;
      }

      .cls-50 {
        stroke: url(#Dégradé_sans_nom_9-12);
        stroke-width: .03px;
      }

      .cls-51 {
        stroke: url(#Dégradé_sans_nom_9-15);
        stroke-width: .04px;
      }
    </style>
    <linearGradient id="Dégradé_sans_nom_9" data-name="Dégradé sans nom 9" x1="40.39" y1="43.82" x2="41.63" y2="43.82" gradientUnits="userSpaceOnUse">
      <stop offset="0" stop-color="#e6007e"/>
      <stop offset="1" stop-color="#36a9e1"/>
    </linearGradient>
    <linearGradient id="Dégradé_sans_nom_9-2" data-name="Dégradé sans nom 9" x1="40.29" x2="41.72" xlink:href="#Dégradé_sans_nom_9"/>
    <linearGradient id="Dégradé_sans_nom_9-3" data-name="Dégradé sans nom 9" x1="40.17" x2="41.84" xlink:href="#Dégradé_sans_nom_9"/>
    <linearGradient id="Dégradé_sans_nom_9-4" data-name="Dégradé sans nom 9" x1="40.04" x2="41.97" xlink:href="#Dégradé_sans_nom_9"/>
    <linearGradient id="Dégradé_sans_nom_9-5" data-name="Dégradé sans nom 9" x1="39.88" y1="43.82" x2="42.13" y2="43.82" xlink:href="#Dégradé_sans_nom_9"/>
    <linearGradient id="Dégradé_sans_nom_9-6" data-name="Dégradé sans nom 9" x1="39.71" y1="43.82" x2="42.3" y2="43.82" xlink:href="#Dégradé_sans_nom_9"/>
    <linearGradient id="Dégradé_sans_nom_9-7" data-name="Dégradé sans nom 9" x1="39.51" y1="43.82" x2="42.5" y2="43.82" xlink:href="#Dégradé_sans_nom_9"/>
    <linearGradient id="Dégradé_sans_nom_9-8" data-name="Dégradé sans nom 9" x1="39.29" y1="43.82" x2="42.73" y2="43.82" xlink:href="#Dégradé_sans_nom_9"/>
    <linearGradient id="Dégradé_sans_nom_9-9" data-name="Dégradé sans nom 9" x1="39.04" x2="42.97" xlink:href="#Dégradé_sans_nom_9"/>
    <linearGradient id="Dégradé_sans_nom_9-10" data-name="Dégradé sans nom 9" x1="38.76" x2="43.25" xlink:href="#Dégradé_sans_nom_9"/>
    <linearGradient id="Dégradé_sans_nom_9-11" data-name="Dégradé sans nom 9" x1="38.46" x2="43.55" xlink:href="#Dégradé_sans_nom_9"/>
    <linearGradient id="Dégradé_sans_nom_9-12" data-name="Dégradé sans nom 9" x1="38.12" y1="43.82" x2="43.89" y2="43.82" xlink:href="#Dégradé_sans_nom_9"/>
    <linearGradient id="Dégradé_sans_nom_9-13" data-name="Dégradé sans nom 9" x1="37.75" x2="44.26" xlink:href="#Dégradé_sans_nom_9"/>
    <linearGradient id="Dégradé_sans_nom_9-14" data-name="Dégradé sans nom 9" x1="37.35" y1="43.82" x2="44.66" y2="43.82" xlink:href="#Dégradé_sans_nom_9"/>
    <linearGradient id="Dégradé_sans_nom_9-15" data-name="Dégradé sans nom 9" x1="36.91" y1="43.82" x2="45.11" y2="43.82" xlink:href="#Dégradé_sans_nom_9"/>
    <linearGradient id="Dégradé_sans_nom_9-16" data-name="Dégradé sans nom 9" x1="36.43" y1="43.82" x2="45.59" y2="43.82" xlink:href="#Dégradé_sans_nom_9"/>
    <linearGradient id="Dégradé_sans_nom_9-17" data-name="Dégradé sans nom 9" x1="35.91" y1="43.82" x2="46.11" y2="43.82" xlink:href="#Dégradé_sans_nom_9"/>
    <linearGradient id="Dégradé_sans_nom_9-18" data-name="Dégradé sans nom 9" x1="35.34" y1="43.82" x2="46.67" y2="43.82" xlink:href="#Dégradé_sans_nom_9"/>
    <linearGradient id="Dégradé_sans_nom_9-19" data-name="Dégradé sans nom 9" x1="34.73" y1="43.82" x2="47.28" y2="43.82" xlink:href="#Dégradé_sans_nom_9"/>
    <linearGradient id="Dégradé_sans_nom_9-20" data-name="Dégradé sans nom 9" x1="34.07" x2="47.94" xlink:href="#Dégradé_sans_nom_9"/>
    <linearGradient id="Dégradé_sans_nom_9-21" data-name="Dégradé sans nom 9" x1="33.37" x2="48.64" xlink:href="#Dégradé_sans_nom_9"/>
    <linearGradient id="Dégradé_sans_nom_9-22" data-name="Dégradé sans nom 9" x1="32.61" y1="43.82" x2="49.4" y2="43.82" xlink:href="#Dégradé_sans_nom_9"/>
    <linearGradient id="Dégradé_sans_nom_9-23" data-name="Dégradé sans nom 9" x1="31.8" y1="43.82" x2="50.21" y2="43.82" xlink:href="#Dégradé_sans_nom_9"/>
    <linearGradient id="Dégradé_sans_nom_9-24" data-name="Dégradé sans nom 9" x1="30.94" y1="43.82" x2="51.07" y2="43.82" xlink:href="#Dégradé_sans_nom_9"/>
    <linearGradient id="Dégradé_sans_nom_9-25" data-name="Dégradé sans nom 9" x1="30.03" y1="43.82" x2="51.98" y2="43.82" xlink:href="#Dégradé_sans_nom_9"/>
    <linearGradient id="Dégradé_sans_nom_9-26" data-name="Dégradé sans nom 9" x1="29.06" y1="43.82" x2="52.95" y2="43.82" xlink:href="#Dégradé_sans_nom_9"/>
    <linearGradient id="Dégradé_sans_nom_9-27" data-name="Dégradé sans nom 9" x1="28.03" x2="53.98" xlink:href="#Dégradé_sans_nom_9"/>
    <linearGradient id="Dégradé_sans_nom_9-28" data-name="Dégradé sans nom 9" x1="26.96" x2="55.06" xlink:href="#Dégradé_sans_nom_9"/>
    <linearGradient id="Dégradé_sans_nom_9-29" data-name="Dégradé sans nom 9" x1="25.82" y1="43.82" x2="56.19" y2="43.82" xlink:href="#Dégradé_sans_nom_9"/>
    <linearGradient id="Dégradé_sans_nom_9-30" data-name="Dégradé sans nom 9" x1="24.64" y1="43.82" x2="57.37" y2="43.82" xlink:href="#Dégradé_sans_nom_9"/>
    <linearGradient id="Dégradé_sans_nom_9-31" data-name="Dégradé sans nom 9" x1="23.41" y1="43.82" x2="58.61" y2="43.82" xlink:href="#Dégradé_sans_nom_9"/>
    <linearGradient id="Dégradé_sans_nom_9-32" data-name="Dégradé sans nom 9" x1="22.12" y1="43.82" x2="59.89" y2="43.82" xlink:href="#Dégradé_sans_nom_9"/>
    <linearGradient id="Dégradé_sans_nom_9-33" data-name="Dégradé sans nom 9" x1="20.8" y1="43.82" x2="61.21" y2="43.82" xlink:href="#Dégradé_sans_nom_9"/>
    <linearGradient id="Dégradé_sans_nom_9-34" data-name="Dégradé sans nom 9" x1="19.44" x2="62.58" xlink:href="#Dégradé_sans_nom_9"/>
    <linearGradient id="Dégradé_sans_nom_9-35" data-name="Dégradé sans nom 9" x1="18.04" y1="43.82" x2="63.97" y2="43.82" xlink:href="#Dégradé_sans_nom_9"/>
    <linearGradient id="Dégradé_sans_nom_9-36" data-name="Dégradé sans nom 9" x1="16.62" y1="43.82" x2="65.39" y2="43.82" xlink:href="#Dégradé_sans_nom_9"/>
    <linearGradient id="Dégradé_sans_nom_9-37" data-name="Dégradé sans nom 9" x1="15.18" y1="43.82" x2="66.83" y2="43.82" xlink:href="#Dégradé_sans_nom_9"/>
    <linearGradient id="Dégradé_sans_nom_9-38" data-name="Dégradé sans nom 9" x1="13.74" y1="43.82" x2="68.28" y2="43.82" xlink:href="#Dégradé_sans_nom_9"/>
    <linearGradient id="Dégradé_sans_nom_9-39" data-name="Dégradé sans nom 9" x1="12.29" y1="43.82" x2="69.72" y2="43.82" xlink:href="#Dégradé_sans_nom_9"/>
    <linearGradient id="Dégradé_sans_nom_9-40" data-name="Dégradé sans nom 9" x1="10.86" y1="43.82" x2="71.15" y2="43.82" xlink:href="#Dégradé_sans_nom_9"/>
    <linearGradient id="Dégradé_sans_nom_9-41" data-name="Dégradé sans nom 9" x1="9.46" x2="72.55" xlink:href="#Dégradé_sans_nom_9"/>
    <linearGradient id="Dégradé_sans_nom_9-42" data-name="Dégradé sans nom 9" x1="8.1" y1="43.82" x2="73.91" y2="43.82" xlink:href="#Dégradé_sans_nom_9"/>
    <linearGradient id="Dégradé_sans_nom_9-43" data-name="Dégradé sans nom 9" x1="6.8" y1="43.82" x2="75.21" y2="43.82" xlink:href="#Dégradé_sans_nom_9"/>
    <linearGradient id="Dégradé_sans_nom_9-44" data-name="Dégradé sans nom 9" x1="5.57" y1="43.82" x2="76.44" y2="43.82" xlink:href="#Dégradé_sans_nom_9"/>
    <linearGradient id="Dégradé_sans_nom_9-45" data-name="Dégradé sans nom 9" x1="4.43" y1="43.82" x2="77.58" y2="43.82" xlink:href="#Dégradé_sans_nom_9"/>
    <linearGradient id="Dégradé_sans_nom_9-46" data-name="Dégradé sans nom 9" x1="3.4" x2="78.62" xlink:href="#Dégradé_sans_nom_9"/>
    <linearGradient id="Dégradé_sans_nom_9-47" data-name="Dégradé sans nom 9" x1="2.48" y1="43.82" x2="79.53" y2="43.82" xlink:href="#Dégradé_sans_nom_9"/>
    <linearGradient id="Dégradé_sans_nom_9-48" data-name="Dégradé sans nom 9" x1="1.69" y1="43.82" x2="80.33" y2="43.82" xlink:href="#Dégradé_sans_nom_9"/>
    <linearGradient id="Dégradé_sans_nom_9-49" data-name="Dégradé sans nom 9" x1="1.02" y1="43.82" x2="80.99" y2="43.82" xlink:href="#Dégradé_sans_nom_9"/>
    <linearGradient id="Dégradé_sans_nom_9-50" data-name="Dégradé sans nom 9" x1=".47" y1="43.82" x2="81.54" y2="43.82" gradientTransform="translate(3.98 -3.41) rotate(5)" xlink:href="#Dégradé_sans_nom_9"/>
    <linearGradient id="Dégradé_sans_nom_9-51" data-name="Dégradé sans nom 9" x1="0" y1="43.82" x2="82.01" y2="43.82" xlink:href="#Dégradé_sans_nom_9"/>
  </defs>
  <path class="cls-52" d="M134.54,4.16l-14.35,35.88c-.21.53-.72.87-1.29.87h-5.85c-.57,0-1.08-.35-1.29-.87l-14.35-35.88c-.37-.91.31-1.91,1.29-1.91h5.81c.57,0,1.09.35,1.3.89l10.16,26.17,9.93-26.16c.21-.54.72-.9,1.3-.9h6.04c.98,0,1.66.99,1.29,1.91Z"/>
  <path class="cls-52" d="M246.87,39.44v-14.28l-14.23-21.34c-.65-.98.05-2.29,1.22-2.29h6.34c.48,0,.92.23,1.2.62l9.4,13.17,9.53-13.17c.28-.38.72-.61,1.19-.61h6.22c1.18,0,1.88,1.31,1.22,2.29l-14.23,21.34v14.28c0,.81-.66,1.47-1.47,1.47h-4.93c-.81,0-1.47-.66-1.47-1.47Z"/>
  <path class="cls-52" d="M335.61,33.03h-23.63v6.4c0,.81-.66,1.47-1.47,1.47h-4.93c-.81,0-1.47-.66-1.47-1.47v-18.22c0-5.42,1.93-10.05,5.78-13.91,3.85-3.85,8.49-5.78,13.9-5.78s10.05,1.93,13.91,5.78c3.85,3.86,5.78,8.49,5.78,13.91v18.22c0,.81-.66,1.47-1.47,1.47h-4.93c-.81,0-1.47-.66-1.47-1.47v-6.4ZM311.98,25.16h23.63v-3.94c0-3.28-1.15-6.07-3.44-8.37-2.3-2.3-5.09-3.44-8.37-3.44s-6.07,1.15-8.37,3.44c-2.3,2.3-3.45,5.09-3.45,8.37v3.94Z"/>
  <path class="cls-52" d="M416.85,18.75v20.68c0,.81-.66,1.47-1.47,1.47h-18.22c-5.5,0-10.15-1.93-13.96-5.78-3.68-3.72-5.76-8.84-5.72-14.08.04-5.34,1.95-9.92,5.72-13.73,3.81-3.85,8.47-5.78,13.97-5.78h18.22c.81,0,1.47.66,1.47,1.47v4.93c0,.81-.66,1.47-1.47,1.47h-18.22c-3.28,0-6.07,1.15-8.37,3.44-2.3,2.3-3.45,5.09-3.45,8.37s1.15,6.07,3.45,8.37c2.3,2.3,5.09,3.45,8.37,3.45h11.81v-7.88h-6.4c-.81,0-1.47-.66-1.47-1.47v-4.93c0-.81.66-1.47,1.47-1.47h12.81c.81,0,1.47.66,1.47,1.47Z"/>
  <path class="cls-52" d="M488.11,25.16h-29.42c.57,1.64,1.52,3.12,2.83,4.43,2.3,2.3,5.09,3.45,8.37,3.45h18.22c.81,0,1.47.66,1.47,1.47v4.93c0,.81-.66,1.47-1.47,1.47h-18.22c-5.5,0-10.15-1.93-13.97-5.78-3.68-3.72-5.76-8.84-5.72-14.08.04-5.34,1.95-9.92,5.72-13.73,3.81-3.85,8.47-5.78,13.97-5.78h18.22c.81,0,1.47.66,1.47,1.47v4.93c0,.81-.66,1.47-1.47,1.47h-18.22c-3.28,0-6.07,1.15-8.37,3.44-1.31,1.31-2.26,2.79-2.83,4.43h29.42c.81,0,1.47.66,1.47,1.47v4.93c0,.81-.66,1.47-1.47,1.47Z"/>
  <g>
    <path class="cls-52" d="M100.37,68.68h1.85c.3,0,.54.24.54.54v13.57c0,.3-.24.54-.54.54h-1.85c-.3,0-.54-.24-.54-.54v-13.57c0-.3.24-.54.54-.54Z"/>
    <path class="cls-52" d="M134.99,82.79v-6.59c0-1.31-.49-2.6-1.46-3.48-.82-.74-1.8-1.11-2.93-1.11-1.19,0-2.36.49-3.19,1.35s-1.21,1.85-1.21,3.04v6.79c0,.3-.24.54-.54.54h-1.85c-.3,0-.54-.24-.54-.54v-6.79c0-2.08.74-3.83,2.22-5.27,1.35-1.3,3.19-2.05,5.07-2.06,2.03,0,3.77.7,5.21,2.13,1.43,1.42,2.15,3.15,2.15,5.2v6.79c0,.3-.24.54-.54.54h-1.85c-.3,0-.54-.24-.54-.54Z"/>
    <path class="cls-52" d="M152.58,71.07v-1.85c0-.3.24-.54.54-.54h13.57c.3,0,.54.24.54.54v1.85c0,.3-.24.54-.54.54h-5.32v11.18c0,.3-.24.54-.54.54h-1.85c-.3,0-.54-.24-.54-.54v-11.18h-5.32c-.3,0-.54-.24-.54-.54Z"/>
    <path class="cls-52" d="M195.99,77.47h-10.95c.24.68.65,1.29,1.23,1.81.81.74,1.91,1.12,3.01,1.12h6.72c.3,0,.54.24.54.54v1.85c0,.3-.24.54-.54.54h-6.79c-2.08,0-3.84-.74-5.27-2.23-1.3-1.35-2.05-3.19-2.06-5.07,0-2.03.7-3.76,2.13-5.21,1.42-1.43,3.15-2.15,5.2-2.15h6.79c.3,0,.54.24.54.54v1.85c0,.3-.24.54-.54.54h-6.73c-1.1,0-2.18.38-3,1.12-.58.53-.99,1.13-1.22,1.81h10.95c.3,0,.54.24.54.54v1.85c0,.3-.24.54-.54.54Z"/>
    <path class="cls-52" d="M221.39,83.22l-7.27-5.74v5.32c0,.3-.24.54-.54.54h-1.85c-.3,0-.54-.24-.54-.54v-13.57c0-.3.24-.54.54-.54h8.25c3.91,0,5.86,1.47,5.86,4.4s-1.95,4.4-5.86,4.4h-1.33l6.01,4.9c.39.32.17.96-.34.96h-2.6c-.12,0-.24-.04-.33-.12ZM214.12,74.54h5.86c1.95,0,2.93-.49,2.93-1.47s-.98-1.47-2.93-1.47h-5.86v2.93Z"/>
    <path class="cls-52" d="M255.14,69.22v1.85c0,.3-.24.54-.54.54h-8.25c-1.95,0-2.93.49-2.93,1.47s.98,1.47,2.93,1.47h2.93c3.91,0,5.86,1.47,5.86,4.4s-1.95,4.4-5.86,4.4h-8.25c-.3,0-.54-.24-.54-.54v-1.85c0-.3.24-.54.54-.54h8.25c1.95,0,2.93-.49,2.93-1.47s-.98-1.47-2.93-1.47h-2.93c-3.91,0-5.86-1.47-5.86-4.4s1.95-4.4,5.86-4.4h8.25c.3,0,.54.24.54.54Z"/>
    <path class="cls-52" d="M269.8,71.07v-1.85c0-.3.24-.54.54-.54h13.57c.3,0,.54.24.54.54v1.85c0,.3-.24.54-.54.54h-5.32v11.18c0,.3-.24.54-.54.54h-1.85c-.3,0-.54-.24-.54-.54v-11.18h-5.32c-.3,0-.54-.24-.54-.54Z"/>
    <path class="cls-52" d="M313.21,77.47h-10.95c.24.68.65,1.29,1.23,1.81.81.74,1.91,1.12,3.01,1.12h6.72c.3,0,.54.24.54.54v1.85c0,.3-.24.54-.54.54h-6.79c-2.08,0-3.84-.74-5.27-2.23-1.3-1.35-2.05-3.19-2.06-5.07,0-2.03.7-3.76,2.13-5.21,1.42-1.43,3.15-2.15,5.2-2.15h6.79c.3,0,.54.24.54.54v1.85c0,.3-.24.54-.54.54h-6.73c-1.1,0-2.18.38-3,1.12-.58.53-.99,1.13-1.22,1.81h10.95c.3,0,.54.24.54.54v1.85c0,.3-.24.54-.54.54Z"/>
    <path class="cls-52" d="M331.34,69.22v6.79c0,1.03.34,2.04,1.01,2.82.9,1.05,2.03,1.57,3.38,1.57h6.79c.3,0,.54.24.54.54v1.85c0,.3-.24.54-.54.54h-6.79c-2.23,0-4.08-.85-5.57-2.55-1.16-1.33-1.76-3.06-1.76-4.83v-6.73c0-.3.24-.54.54-.54h1.85c.3,0,.54.24.54.54Z"/>
    <path class="cls-52" d="M360.64,69.22v6.79c0,1.03.34,2.04,1.01,2.82.9,1.05,2.03,1.57,3.38,1.57h6.79c.3,0,.54.24.54.54v1.85c0,.3-.24.54-.54.54h-6.79c-2.23,0-4.08-.85-5.57-2.55-1.16-1.33-1.76-3.06-1.76-4.83v-6.73c0-.3.24-.54.54-.54h1.85c.3,0,.54.24.54.54Z"/>
    <path class="cls-52" d="M398.74,80.4h-8.79v2.39c0,.3-.24.54-.54.54h-1.85c-.3,0-.54-.24-.54-.54v-6.79c0-2.01.72-3.74,2.15-5.17,1.43-1.43,3.16-2.15,5.17-2.15s3.74.72,5.17,2.15c1.43,1.43,2.15,3.16,2.15,5.17v6.79c0,.3-.24.54-.54.54h-1.85c-.3,0-.54-.24-.54-.54v-2.39ZM389.95,77.47h8.79v-1.27c0-1.31-.49-2.6-1.46-3.48-.82-.74-1.8-1.11-2.93-1.11-1.19,0-2.36.49-3.19,1.35s-1.21,1.85-1.21,3.04v1.47Z"/>
    <path class="cls-52" d="M422.72,68.68h1.85c.3,0,.54.24.54.54v13.57c0,.3-.24.54-.54.54h-1.85c-.3,0-.54-.24-.54-.54v-13.57c0-.3.24-.54.54-.54Z"/>
    <path class="cls-52" d="M455.83,83.22l-7.27-5.74v5.32c0,.3-.24.54-.54.54h-1.85c-.3,0-.54-.24-.54-.54v-13.57c0-.3.24-.54.54-.54h8.25c3.91,0,5.86,1.47,5.86,4.4s-1.95,4.4-5.86,4.4h-1.33l6.01,4.9c.39.32.17.96-.34.96h-2.6c-.12,0-.24-.04-.33-.12ZM448.56,74.54h5.86c1.95,0,2.93-.49,2.93-1.47s-.98-1.47-2.93-1.47h-5.86v2.93Z"/>
    <path class="cls-52" d="M489.04,77.47h-10.95c.24.68.65,1.29,1.23,1.81.81.74,1.91,1.12,3.01,1.12h6.72c.3,0,.54.24.54.54v1.85c0,.3-.24.54-.54.54h-6.79c-2.08,0-3.84-.74-5.27-2.23-1.3-1.35-2.05-3.19-2.06-5.07,0-2.03.7-3.76,2.13-5.21,1.42-1.43,3.15-2.15,5.2-2.15h6.79c.3,0,.54.24.54.54v1.85c0,.3-.24.54-.54.54h-6.73c-1.1,0-2.18.38-3,1.12-.58.53-.99,1.13-1.22,1.81h10.95c.3,0,.54.24.54.54v1.85c0,.3-.24.54-.54.54Z"/>
  </g>
  <path class="cls-52" d="M183.52,40.91c-5.62,0-10.44-2-14.44-6.01-4.01-4-6.01-8.82-6.01-14.44s2-10.44,6.01-14.45c4-4,8.82-6.01,14.44-6.01s10.44,2,14.45,6.01c4,4.01,6.01,8.82,6.01,14.45s-2,10.44-6.01,14.44c-4.01,4.01-8.82,6.01-14.45,6.01ZM183.52,32.73c3.41,0,6.31-1.19,8.69-3.58,2.39-2.39,3.58-5.28,3.58-8.69s-1.19-6.31-3.58-8.69c-2.39-2.39-5.29-3.58-8.69-3.58s-6.31,1.19-8.69,3.58c-2.39,2.39-3.58,5.29-3.58,8.69s1.19,6.31,3.58,8.69c2.39,2.39,5.28,3.58,8.69,3.58Z"/>
  <g>
    <path class="cls-28" d="M41.1,44.51c-.33.63-.65.83-.7.45s.17-1.21.51-1.84.65-.83.7-.45-.17,1.21-.51,1.84Z"/>
    <path class="cls-10" d="M40.97,43c.39-.7.72-.9.74-.44s-.28,1.38-.67,2.08-.72.9-.74.44.28-1.38.67-2.08Z"/>
    <path class="cls-12" d="M40.97,44.77c-.46.77-.81.96-.79.44s.4-1.57.86-2.34.81-.96.79-.44-.4,1.57-.86,2.34Z"/>
    <path class="cls-33" d="M41.13,42.72c.53-.84.9-1.03.83-.43s-.55,1.78-1.07,2.62-.9,1.03-.83.43.55-1.78,1.07-2.62Z"/>
    <path class="cls-45" d="M40.79,45.08c-.6.92-.99,1.11-.88.41.12-.69.71-2,1.31-2.93s.99-1.11.88-.41-.71,2-1.31,2.93Z"/>
    <path class="cls-49" d="M41.34,42.38c.69-1.01,1.1-1.18.92-.39-.18.79-.89,2.25-1.57,3.26s-1.1,1.18-.92.39.89-2.25,1.57-3.26Z"/>
    <path class="cls-11" d="M40.55,45.45c-.78,1.1-1.21,1.26-.96.36.25-.9,1.09-2.52,1.87-3.61s1.21-1.26.96-.36-1.09,2.52-1.87,3.61Z"/>
    <path class="cls-41" d="M41.61,41.98c.88-1.19,1.33-1.33.99-.32-.33,1.02-1.32,2.81-2.2,4s-1.33,1.33-.99.32c.33-1.02,1.32-2.81,2.2-4Z"/>
    <path class="cls-7" d="M40.24,45.89c-.99,1.29-1.45,1.41-1.03.27s1.57-3.12,2.57-4.41c.99-1.29,1.45-1.41,1.03-.27s-1.57,3.12-2.57,4.41Z"/>
    <path class="cls-15" d="M41.96,41.5c1.11-1.39,1.59-1.49,1.06-.21s-1.86,3.45-2.97,4.84c-1.11,1.39-1.59,1.49-1.06.21s1.86-3.45,2.97-4.84Z"/>
    <path class="cls-9" d="M39.84,46.41c-1.24,1.5-1.73,1.56-1.08.13.64-1.43,2.17-3.81,3.42-5.31s1.73-1.56,1.08-.13c-.64,1.43-2.17,3.81-3.42,5.31Z"/>
    <path class="cls-50" d="M42.41,40.94c1.38-1.61,1.88-1.63,1.1-.04s-2.52,4.19-3.9,5.81c-1.38,1.61-1.88,1.63-1.1.04s2.52-4.19,3.9-5.81Z"/>
    <path class="cls-29" d="M39.34,47.01c-1.53,1.73-2.03,1.7-1.11-.06.92-1.77,2.91-4.6,4.44-6.33s2.03-1.7,1.11.06c-.92,1.77-2.91,4.6-4.44,6.33Z"/>
    <path class="cls-17" d="M42.96,40.28c1.7-1.85,2.19-1.77,1.11.19s-3.33,5.03-5.02,6.88c-1.7,1.85-2.19,1.77-1.11-.19,1.08-1.95,3.33-5.03,5.02-6.88Z"/>
    <path class="cls-51" d="M38.73,47.71c-1.87,1.97-2.36,1.82-1.1-.33,1.26-2.15,3.79-5.49,5.66-7.46s2.36-1.82,1.1.33c-1.26,2.15-3.79,5.49-5.66,7.46Z"/>
    <path class="cls-26" d="M43.64,39.54c2.05-2.09,2.54-1.87,1.08.49-1.46,2.36-4.3,5.98-6.35,8.07-2.05,2.09-2.54,1.87-1.08-.49s4.3-5.98,6.35-8.07Z"/>
    <path class="cls-22" d="M37.98,48.51c-2.25,2.22-2.72,1.91-1.05-.68s4.85-6.49,7.1-8.7c2.25-2.22,2.72-1.91,1.05.68-1.67,2.59-4.85,6.49-7.1,8.7Z"/>
    <path class="cls-6" d="M44.47,38.69c2.46-2.34,2.9-1.94.99.89s-5.46,7.02-7.92,9.36c-2.46,2.34-2.9,1.94-.99-.89,1.91-2.83,5.46-7.02,7.92-9.36Z"/>
    <path class="cls-43" d="M37.07,49.41c-2.68,2.46-3.09,1.95-.92-1.13,2.17-3.09,6.11-7.58,8.79-10.04s3.09-1.95.92,1.13-6.11,7.58-8.79,10.04Z"/>
    <path class="cls-39" d="M45.46,37.74c2.91-2.58,3.28-1.95.83,1.41-2.46,3.36-6.81,8.16-9.73,10.74s-3.28,1.95-.83-1.41c2.46-3.36,6.81-8.16,9.73-10.74Z"/>
    <path class="cls-35" d="M35.99,50.4c-3.16,2.69-3.48,1.92-.71-1.71,2.77-3.64,7.57-8.77,10.73-11.46s3.48-1.92.71,1.71c-2.77,3.64-7.57,8.77-10.73,11.46Z"/>
    <path class="cls-5" d="M46.63,36.7c3.42-2.8,3.67-1.87.56,2.06-3.11,3.93-8.39,9.39-11.81,12.18s-3.67,1.87-.56-2.06c3.11-3.93,8.39-9.39,11.81-12.18Z"/>
    <path class="cls-46" d="M34.72,51.5c-3.68,2.89-3.86,1.8-.38-2.44,3.47-4.24,9.27-10.02,12.96-12.92,3.68-2.89,3.86-1.8.38,2.44-3.47,4.24-9.27,10.02-12.96,12.92Z"/>
    <path class="cls-2" d="M48.01,35.56c3.96-2.98,4.04-1.69.17,2.87-3.87,4.56-10.21,10.67-14.18,13.65-3.96,2.98-4.04,1.69-.17-2.87,3.87-4.56,10.21-10.67,14.18-13.65Z"/>
    <path class="cls-16" d="M33.23,52.67c-4.25,3.05-4.21,1.55.08-3.34,4.29-4.89,11.22-11.33,15.47-14.37,4.25-3.05,4.21-1.55-.08,3.34-4.29,4.89-11.22,11.33-15.47,14.37Z"/>
    <path class="cls-20" d="M49.61,34.35c4.54-3.1,4.38-1.37-.37,3.86s-12.28,11.98-16.83,15.08c-4.54,3.1-4.38,1.37.37-3.86,4.75-5.23,12.28-11.98,16.83-15.08Z"/>
    <path class="cls-27" d="M31.52,53.92c-4.84,3.13-4.52,1.15.72-4.43,5.24-5.58,13.42-12.64,18.26-15.77,4.84-3.13,4.52-1.15-.72,4.43-5.24,5.58-13.42,12.64-18.26,15.77Z"/>
    <path class="cls-37" d="M51.44,33.08c5.15-3.13,4.65-.87-1.11,5.06-5.76,5.93-14.61,13.28-19.76,16.41-5.15,3.13-4.65.87,1.11-5.06,5.76-5.93,14.61-13.28,19.76-16.41Z"/>
    <path class="cls-34" d="M29.56,55.2c-5.46,3.11-4.76.54,1.56-5.75,6.32-6.28,15.87-13.9,21.33-17.01,5.46-3.11,4.76-.54-1.56,5.75s-15.87,13.9-21.33,17.01Z"/>
    <path class="cls-21" d="M53.53,31.8c5.77-3.05,4.84-.14-2.08,6.5-6.92,6.64-17.2,14.49-22.96,17.54-5.77,3.05-4.84.14,2.08-6.5,6.92-6.64,17.2-14.49,22.96-17.54Z"/>
    <path class="cls-23" d="M27.35,56.47c-6.07,2.95-4.88-.33,2.66-7.32,7.54-6.99,18.58-15.04,24.65-17.99,6.07-2.95,4.88.33-2.66,7.32-7.54,6.99-18.58,15.04-24.65,17.99Z"/>
    <path class="cls-31" d="M55.86,30.54c6.37-2.8,4.88.88-3.33,8.21s-20.02,15.54-26.39,18.34c-6.37,2.8-4.88-.88,3.33-8.21,8.21-7.33,20.02-15.54,26.39-18.34Z"/>
    <path class="cls-3" d="M24.89,57.69c-6.65,2.6-4.83-1.51,4.07-9.17s21.51-15.98,28.17-18.57c6.65-2.6,4.83,1.51-4.07,9.17-8.9,7.66-21.51,15.98-28.17,18.57Z"/>
    <path class="cls-14" d="M58.45,29.38c6.93-2.33,4.73,2.24-4.9,10.21-9.63,7.97-23.05,16.33-29.98,18.66-6.93,2.33-4.73-2.24,4.9-10.21,9.63-7.97,23.05-16.33,29.98-18.66Z"/>
    <path class="cls-18" d="M22.19,58.77c-7.17,2-4.56-3.07,5.83-11.33,10.39-8.26,24.64-16.57,31.81-18.58,7.17-2,4.56,3.07-5.83,11.33-10.39,8.26-24.64,16.57-31.81,18.58Z"/>
    <path class="cls-48" d="M61.26,28.4c7.39-1.59,4.32,4.02-6.87,12.53-11.19,8.51-26.25,16.7-33.64,18.29s-4.32-4.02,6.87-12.53c11.19-8.51,26.25-16.7,33.64-18.29Z"/>
    <path class="cls-4" d="M19.27,59.62c-7.58,1.09-3.99-5.1,8.01-13.82,12.01-8.73,27.88-16.69,35.46-17.78,7.58-1.09,3.99,5.1-8.01,13.82-12.01,8.73-27.88,16.69-35.46,17.78Z"/>
    <path class="cls-40" d="M64.27,27.72c7.72-.5,3.57,6.31-9.28,15.2-12.85,8.89-29.53,16.5-37.25,17s-3.57-6.31,9.28-15.2c12.85-8.89,29.53-16.5,37.25-17Z"/>
    <path class="cls-42" d="M16.18,60.11c-7.82-.21-3.04-7.67,10.67-16.67,13.71-9,31.17-16.13,38.98-15.92,7.82.21,3.04,7.67-10.67,16.67-13.71,9-31.17,16.13-38.98,15.92Z"/>
    <path class="cls-36" d="M67.42,27.46c7.85,1.03,2.38,9.19-12.21,18.22-14.59,9.03-32.78,15.52-40.63,14.49-7.85-1.03-2.38-9.19,12.21-18.22,14.59-9.03,32.78-15.52,40.63-14.49Z"/>
    <path class="cls-30" d="M12.98,60.09c-7.81-1.99-1.59-10.89,13.89-19.87,15.48-8.99,34.35-14.66,42.16-12.67,7.81,1.99,1.59,10.89-13.89,19.87-15.48,8.99-34.35,14.66-42.16,12.67Z"/>
    <path class="cls-38" d="M70.64,27.81c7.68,3.1.64,12.77-15.73,21.61-16.36,8.84-35.86,13.5-43.54,10.4-7.68-3.1-.64-12.77,15.73-21.61,16.36-8.84,35.86-13.5,43.54-10.4Z"/>
    <path class="cls-32" d="M9.78,59.36c-7.46-4.36.48-14.86,17.73-23.44,17.25-8.58,37.27-12,44.72-7.64,7.46,4.36-.48,14.86-17.73,23.44s-37.27,12-44.72,7.64Z"/>
    <path class="cls-13" d="M73.8,28.98c7.12,5.81-1.79,17.16-19.9,25.36-18.11,8.19-38.56,10.12-45.68,4.31-7.12-5.81,1.79-17.16,19.9-25.36,18.11-8.19,38.56-10.12,45.68-4.31Z"/>
    <path class="cls-25" d="M6.71,57.68C.06,50.23,10.02,37.98,28.97,30.32c18.94-7.66,39.69-7.82,46.34-.37,6.65,7.45-3.32,19.7-22.26,27.36-18.94,7.66-39.69,7.82-46.34.37Z"/>
    <path class="cls-1" d="M76.74,31.24c6.04,9.31-5.07,22.49-24.81,29.43-19.74,6.95-40.63,5.04-46.66-4.27-6.04-9.31,5.07-22.49,24.81-29.43s40.63-5.04,46.66,4.27Z"/>
    <path class="cls-47" d="M3.94,54.77c-5.25-11.39,7.08-25.53,27.55-31.58,20.47-6.05,41.33-1.72,46.58,9.68,5.25,11.39-7.08,25.53-27.55,31.58-20.47,6.05-41.33,1.72-46.58-9.68Z"/>
    <path class="cls-19" d="M79.27,34.89c4.28,13.73-9.37,28.86-30.51,33.79-21.13,4.93-41.74-2.2-46.02-15.93-4.28-13.73,9.37-28.86,30.51-33.79,21.13-4.93,41.74,2.2,46.02,15.93Z"/>
    <path class="cls-8" d="M1.72,50.28C-1.38,33.95,13.69,17.81,35.39,14.24c21.7-3.57,41.8,6.78,44.91,23.12,3.1,16.34-11.97,32.48-33.67,36.05-21.7,3.57-41.8-6.78-44.91-23.12Z"/>
    <ellipse class="cls-44" cx="41.01" cy="43.82" rx="40.26" ry="34.97" transform="translate(-3.66 3.74) rotate(-5)"/>
    <circle class="cls-24" cx="41.01" cy="43.82" r="40.66"/>
  </g>
</svg>