<svg width="42" height="42" viewBox="0 0 42 42" fill="none" xmlns="http://www.w3.org/2000/svg">
<path fill-rule="evenodd" clip-rule="evenodd" d="M12.6728 21.9774C12.4083 22.5267 12.178 22.991 11.9591 23.4612C10.8638 25.8162 9.95657 28.2364 9.48833 30.8004C9.2278 32.2264 9.08539 33.6629 9.45782 35.0945C9.77774 36.3247 10.4435 36.9563 11.5824 37.0085C12.0808 37.0318 12.6022 36.9261 13.0875 36.7893C14.3725 36.4254 15.4904 35.7226 16.5716 34.9613C16.8341 34.7763 17.1025 34.6608 17.4299 34.7825C18.0101 34.9984 18.2201 35.7675 17.7308 36.1327C15.9652 37.4482 14.0965 38.5825 11.8085 38.6527C9.93458 38.7105 8.57811 37.7054 7.98027 35.9191C7.53402 34.5863 7.50777 33.2154 7.6715 31.8399C8.15778 27.7455 9.73804 24.0256 11.6356 20.4195C11.7987 20.1097 11.8085 19.8636 11.693 19.5326C11.2192 18.1718 10.7785 16.7993 10.3457 15.4248C10.2637 15.1642 10.1797 15.0901 9.89685 15.1521C8.03769 15.5609 6.2061 16.06 4.55694 17.0368C3.92005 17.4142 3.30908 17.8827 2.79983 18.4176C1.95294 19.3068 1.93686 20.2909 2.62888 21.3061C3.23263 22.1923 4.08346 22.7984 4.98121 23.346C5.26208 23.518 5.55838 23.6643 5.84122 23.833C6.25236 24.0787 6.39313 24.5552 6.18214 24.9515C5.9705 25.3482 5.49571 25.5054 5.06455 25.2836C3.80324 24.6352 2.62691 23.8658 1.68355 22.7862C1.10539 22.1248 0.681785 21.3812 0.541675 20.4999C0.367113 19.4007 0.682113 18.432 1.3423 17.5618C2.02316 16.6651 2.9173 16.0252 3.89347 15.4937C5.62466 14.551 7.49005 13.9879 9.4063 13.5728C9.53755 13.5443 9.66749 13.5088 9.84533 13.4645C9.7551 12.9533 9.6583 12.4572 9.58086 11.9575C9.26685 9.92506 9.12214 7.89101 9.62122 5.86517C9.81875 5.06389 10.1288 4.30658 10.6683 3.66837C11.7695 2.3667 13.1856 2.07697 14.7738 2.46481C16.3435 2.84839 17.6616 3.71759 18.8908 4.7292C19.2386 5.01533 19.2481 5.53212 18.9643 5.86517C18.6745 6.20478 18.224 6.24908 17.8296 5.98034C17.2101 5.5587 16.6077 5.10819 15.9639 4.72723C15.2263 4.29116 14.4342 3.98173 13.5515 3.97747C12.8224 3.97386 12.2557 4.27048 11.8403 4.86111C11.314 5.61022 11.126 6.4745 11.0266 7.36076C10.8163 9.23534 11.066 11.0781 11.4312 12.912C11.4702 13.1069 11.545 13.1758 11.7501 13.1551C13.2299 13.0075 14.7101 12.8601 16.1923 12.7364C16.5145 12.7099 16.7248 12.5934 16.9246 12.3407C18.8507 9.90767 20.9622 7.65477 23.4461 5.77494C24.8298 4.72789 26.2919 3.81505 27.9742 3.31662C29.0282 3.00458 30.0949 2.88908 31.1564 3.26216C32.482 3.72809 33.2229 4.73544 33.6049 6.03547C34.0098 7.41556 33.9464 8.82256 33.7821 10.2292C33.737 10.5896 33.6792 10.9482 33.6088 11.3045C33.5166 11.7895 33.157 12.0464 32.6727 11.99C32.2323 11.9388 31.9449 11.5847 31.9911 11.0932C32.0551 10.4153 32.2097 9.74098 32.2166 9.06439C32.2248 8.26376 32.2077 7.44247 32.041 6.66481C31.6935 5.04781 30.575 4.41355 28.9202 4.77842C27.6789 5.05175 26.5781 5.63581 25.53 6.32651C23.3772 7.74533 21.5394 9.5195 19.8331 11.4377C19.5158 11.7944 19.2107 12.1622 18.9022 12.5264C18.8835 12.5481 18.8848 12.5868 18.8612 12.679H19.3078C23.7017 12.7233 28.031 13.2457 32.2618 14.4634C34.2765 15.0435 36.2213 15.7995 38.0109 16.9128C38.9631 17.5051 39.8373 18.1905 40.5286 19.085C41.9386 20.9094 41.8201 22.9575 40.1982 24.5913C39.1029 25.6947 37.754 26.3917 36.3171 26.9331C35.9106 27.0857 35.463 26.8616 35.3075 26.4721C35.1365 26.0442 35.3219 25.6016 35.757 25.3906C36.4205 25.069 37.1105 24.7904 37.7379 24.4085C38.2623 24.091 38.742 23.7048 39.1643 23.2604C40.0427 22.3256 40.0752 21.3038 39.3303 20.2577C38.7725 19.4742 38.0231 18.9012 37.2172 18.4005C35.2288 17.1648 33.0467 16.3993 30.8 15.8018C28.4579 15.1787 26.0783 14.7439 23.6617 14.572C21.7359 14.4351 19.8033 14.3958 17.8739 14.3042C17.5953 14.2908 17.405 14.3731 17.2501 14.612C16.1191 16.3563 14.9752 18.0924 13.8501 19.8407C13.7681 19.968 13.7333 20.197 13.7894 20.3319C15.6942 24.8646 18.1065 29.0954 21.3035 32.8515C22.6494 34.4321 24.1132 35.8939 25.8906 37C26.7247 37.5187 27.5953 37.9515 28.6049 38.0188C29.5197 38.0805 30.1871 37.6976 30.6412 36.9212C31.0691 36.1898 31.2407 35.3807 31.3175 34.5492C31.5656 31.8661 31.035 29.2782 30.3315 26.7169C29.6109 24.0932 28.5911 21.5804 27.4227 19.1254C27.3285 18.9278 27.2514 18.6932 27.2615 18.4806C27.2803 18.0937 27.5854 17.8184 27.967 17.7587C28.3024 17.7062 28.6554 17.8906 28.8231 18.2502C29.2411 19.1454 29.6654 20.0389 30.0483 20.9494C31.2302 23.7618 32.1818 26.6473 32.6845 29.6654C33.0352 31.7719 33.2029 33.8861 32.716 35.9962C32.6052 36.4714 32.4471 36.9341 32.2438 37.3776C31.4146 39.1902 29.7333 40.0092 27.7852 39.5833C26.2014 39.2365 24.8646 38.4089 23.6174 37.4203C21.3235 35.6022 19.4623 33.3853 17.7791 31.0104C15.8602 28.305 14.2396 25.428 12.8818 22.4023C12.8309 22.2898 12.7725 22.1805 12.6728 21.9774ZM11.8433 14.7751L12.892 18.1101C13.7205 16.8455 14.4929 15.6669 15.3237 14.3981L11.8433 14.7751ZM21.1535 23.3844C19.8354 23.3828 18.7628 22.3144 18.7654 21.0058C18.7677 19.6763 19.839 18.6168 21.1791 18.6171C22.4962 18.6177 23.5665 19.6851 23.5675 20.9976C23.5682 22.3256 22.4955 23.3861 21.1535 23.3844Z" fill="url(#paint0_linear_501_73)"/>
<defs>
<linearGradient id="paint0_linear_501_73" x1="0.494141" y1="20.9996" x2="41.5066" y2="20.9996" gradientUnits="userSpaceOnUse">
<stop stop-color="#E6007E"/>
<stop offset="1" stop-color="#006AFF"/>
</linearGradient>
</defs>
</svg>
