<svg width="24" height="24" viewBox="0 0 24 24" fill="none" xmlns="http://www.w3.org/2000/svg">
<path d="M4.15 21.46L5.47 19.58C4.38089 18.6401 3.50717 17.4765 2.90837 16.1684C2.30956 14.8604 1.99974 13.4386 2 12C2 9.34783 3.05357 6.8043 4.92893 4.92893C6.8043 3.05357 9.34784 2 12 2C13.78 2 15.44 2.46 16.89 3.27L18.21 1.39L19.85 2.54L18.53 4.42C20.65 6.26 22 8.97 22 12C22 14.6522 20.9464 17.1957 19.0711 19.0711C17.1957 20.9464 14.6522 22 12 22C10.22 22 8.56 21.54 7.11 20.73L5.79 22.61L4.15 21.46ZM12 4C9.87827 4 7.84344 4.84285 6.34315 6.34315C4.84285 7.84344 4 9.87827 4 12C4 14.35 5 16.46 6.63 17.93L15.73 4.92C14.5813 4.31108 13.3001 3.99507 12 4ZM12 20C14.1217 20 16.1566 19.1571 17.6569 17.6569C19.1571 16.1566 20 14.1217 20 12C20 9.65 19 7.54 17.37 6.07L8.27 19.08C9.38 19.67 10.65 20 12 20Z" fill="url(#paint0_linear_533_23)"/>
<defs>
<linearGradient id="paint0_linear_533_23" x1="12" y1="1.39" x2="12" y2="22.61" gradientUnits="userSpaceOnUse">
<stop stop-color="#FF6A00"/>
<stop offset="1" stop-color="#0099FF"/>
</linearGradient>
</defs>
</svg>
