<svg width="24" height="24" viewBox="0 0 24 24" fill="none" xmlns="http://www.w3.org/2000/svg">
<path d="M4.15 21.4601L5.47 19.5801C4.38089 18.6402 3.50717 17.4766 2.90837 16.1686C2.30956 14.8605 1.99974 13.4387 2 12.0001C2 9.34797 3.05357 6.80443 4.92893 4.92907C6.8043 3.05371 9.34784 2.00014 12 2.00014C13.78 2.00014 15.44 2.46014 16.89 3.27014L18.21 1.39014L19.85 2.54014L18.53 4.42014C20.65 6.26014 22 8.97014 22 12.0001C22 14.6523 20.9464 17.1958 19.0711 19.0712C17.1957 20.9466 14.6522 22.0001 12 22.0001C10.22 22.0001 8.56 21.5401 7.11 20.7301L5.79 22.6101L4.15 21.4601ZM12 4.00014C9.87827 4.00014 7.84344 4.84299 6.34315 6.34328C4.84285 7.84357 4 9.8784 4 12.0001C4 14.3501 5 16.4601 6.63 17.9301L15.73 4.92014C14.5813 4.31122 13.3001 3.99521 12 4.00014ZM12 20.0001C14.1217 20.0001 16.1566 19.1573 17.6569 17.657C19.1571 16.1567 20 14.1219 20 12.0001C20 9.65014 19 7.54014 17.37 6.07014L8.27 19.0801C9.38 19.6701 10.65 20.0001 12 20.0001Z" fill="url(#paint0_linear_624_25)"/>
<defs>
<linearGradient id="paint0_linear_624_25" x1="12" y1="1.39014" x2="12" y2="22.6101" gradientUnits="userSpaceOnUse">
<stop stop-color="#2672FF"/>
<stop offset="1" stop-color="#0022FF"/>
</linearGradient>
</defs>
</svg>
