<svg width="44" height="47" viewBox="0 0 44 47" fill="none" xmlns="http://www.w3.org/2000/svg">
<g filter="url(#filter0_d_501_71)">
<path d="M20.6439 18.4187C21.2564 18.4187 21.7744 18.207 22.1979 17.7835C22.6214 17.36 22.8326 16.8426 22.8314 16.2312C22.8303 15.6199 22.6191 15.1019 22.1979 14.6772C21.7768 14.2526 21.2588 14.0414 20.6439 14.0437C20.0291 14.0461 19.5117 14.2578 19.0917 14.679C18.6717 15.1002 18.4599 15.6176 18.4564 16.2312C18.4529 16.8449 18.6647 17.3629 19.0917 17.7852C19.5187 18.2076 20.0361 18.4187 20.6439 18.4187ZM36.9627 38.5C35.7377 38.5 34.0898 37.9896 32.0189 36.9688C29.9481 35.9479 27.7314 34.5625 25.3689 32.8125C24.8148 32.9583 24.2536 33.068 23.6854 33.1415C23.1173 33.215 22.5409 33.2512 21.9564 33.25C18.5439 33.25 15.6564 32.0688 13.2939 29.7063C10.9314 27.3438 9.7502 24.4562 9.7502 21.0437C9.7502 20.4604 9.79394 19.8771 9.88144 19.2937C9.96894 18.7104 10.0856 18.1417 10.2314 17.5875C8.51061 15.225 7.13278 13.0159 6.09795 10.9602C5.06311 8.90458 4.54511 7.26367 4.54395 6.0375C4.54395 5.25 4.7627 4.6305 5.2002 4.179C5.6377 3.7275 6.23561 3.50117 6.99394 3.5C7.66478 3.5 8.48903 3.68958 9.46669 4.06875C10.4444 4.44792 11.7639 5.10417 13.4252 6.0375C13.8335 6.27083 14.1036 6.62842 14.2354 7.11025C14.3673 7.59208 14.3159 8.03658 14.0814 8.44375C13.8469 8.85092 13.4969 9.121 13.0314 9.254C12.5659 9.387 12.1284 9.33567 11.7189 9.1C11.1648 8.77917 10.6252 8.50208 10.1002 8.26875C9.57519 8.03542 9.02103 7.7875 8.43769 7.525C8.96269 8.63333 9.52444 9.7125 10.1229 10.7625C10.7214 11.8125 11.3555 12.8479 12.0252 13.8688C13.1335 12.2938 14.5481 11.0542 16.2689 10.15C17.9898 9.24583 19.8856 8.79375 21.9564 8.79375C25.3689 8.79375 28.264 9.98258 30.6417 12.3603C33.0194 14.7379 34.2076 17.6324 34.2064 21.0437C34.2064 23.1146 33.7468 25.0104 32.8274 26.7312C31.9081 28.4521 30.6615 29.8667 29.0877 30.975C30.1085 31.6458 31.1515 32.2875 32.2167 32.9C33.2819 33.5125 34.368 34.0667 35.4752 34.5625C35.2419 34.0083 35.0015 33.4688 34.7542 32.9438C34.5069 32.4188 34.2222 31.8792 33.9002 31.325C33.6669 30.9167 33.6155 30.4722 33.7462 29.9915C33.8769 29.5108 34.1469 29.1532 34.5564 28.9187C34.9659 28.6842 35.411 28.6335 35.8917 28.7665C36.3724 28.8995 36.7294 29.169 36.9627 29.575C37.9544 31.325 38.6252 32.6597 38.9752 33.579C39.3252 34.4983 39.5002 35.2928 39.5002 35.9625C39.5002 36.8083 39.2669 37.443 38.8002 37.8665C38.3335 38.29 37.721 38.5012 36.9627 38.5ZM25.0189 26.2937C25.5148 26.2937 25.9307 26.1258 26.2667 25.7898C26.6027 25.4538 26.7701 25.0384 26.7689 24.5437C26.7678 24.0491 26.6004 23.6337 26.2667 23.2977C25.933 22.9618 25.5171 22.7937 25.0189 22.7937C24.5208 22.7937 24.1054 22.9618 23.7729 23.2977C23.4404 23.6337 23.2724 24.0491 23.2689 24.5437C23.2654 25.0384 23.4334 25.4543 23.7729 25.7915C24.1124 26.1287 24.5278 26.2961 25.0189 26.2937ZM27.2064 20.1687C27.5856 20.1687 27.8994 20.0445 28.1479 19.796C28.3964 19.5475 28.5201 19.2342 28.5189 18.8562C28.5178 18.4782 28.3941 18.165 28.1479 17.9165C27.9018 17.668 27.5879 17.5437 27.2064 17.5437C26.8249 17.5437 26.5117 17.668 26.2667 17.9165C26.0217 18.165 25.8974 18.4782 25.8939 18.8562C25.8904 19.2342 26.0147 19.5481 26.2667 19.7977C26.5187 20.0474 26.8319 20.1711 27.2064 20.1687Z" fill="url(#paint0_linear_501_71)"/>
</g>
<defs>
<filter id="filter0_d_501_71" x="-3" y="0" width="50" height="50" filterUnits="userSpaceOnUse" color-interpolation-filters="sRGB">
<feFlood flood-opacity="0" result="BackgroundImageFix"/>
<feColorMatrix in="SourceAlpha" type="matrix" values="0 0 0 0 0 0 0 0 0 0 0 0 0 0 0 0 0 0 127 0" result="hardAlpha"/>
<feOffset dy="4"/>
<feGaussianBlur stdDeviation="2"/>
<feComposite in2="hardAlpha" operator="out"/>
<feColorMatrix type="matrix" values="0 0 0 0 0 0 0 0 0 0 0 0 0 0 0 0 0 0 0.25 0"/>
<feBlend mode="normal" in2="BackgroundImageFix" result="effect1_dropShadow_501_71"/>
<feBlend mode="normal" in="SourceGraphic" in2="effect1_dropShadow_501_71" result="shape"/>
</filter>
<linearGradient id="paint0_linear_501_71" x1="4.54395" y1="21" x2="39.5002" y2="21" gradientUnits="userSpaceOnUse">
<stop stop-color="#E6007E"/>
<stop offset="1" stop-color="#006AFF"/>
</linearGradient>
</defs>
</svg>
