<svg width="26" height="26" viewBox="0 0 26 26" fill="none" xmlns="http://www.w3.org/2000/svg">
<g clip-path="url(#clip0_569_30)">
<path fill-rule="evenodd" clip-rule="evenodd" d="M13 6C12.0807 6 11.1705 6.18106 10.3212 6.53284C9.47194 6.88463 8.70026 7.40024 8.05025 8.05025C7.40024 8.70026 6.88463 9.47194 6.53284 10.3212C6.18106 11.1705 6 12.0807 6 13C6 13.9193 6.18106 14.8295 6.53284 15.6788C6.88463 16.5281 7.40024 17.2997 8.05025 17.9497C8.70026 18.5998 9.47194 19.1154 10.3212 19.4672C11.1705 19.8189 12.0807 20 13 20C14.8565 20 16.637 19.2625 17.9497 17.9497C19.2625 16.637 20 14.8565 20 13C20 11.1435 19.2625 9.36301 17.9497 8.05025C16.637 6.7375 14.8565 6 13 6ZM4 13C4 11.8181 4.23279 10.6478 4.68508 9.55585C5.13738 8.46392 5.80031 7.47177 6.63604 6.63604C7.47177 5.80031 8.46392 5.13738 9.55585 4.68508C10.6478 4.23279 11.8181 4 13 4C14.1819 4 15.3522 4.23279 16.4442 4.68508C17.5361 5.13738 18.5282 5.80031 19.364 6.63604C20.1997 7.47177 20.8626 8.46392 21.3149 9.55585C21.7672 10.6478 22 11.8181 22 13C22 15.3869 21.0518 17.6761 19.364 19.364C17.6761 21.0518 15.3869 22 13 22C10.6131 22 8.32387 21.0518 6.63604 19.364C4.94821 17.6761 4 15.3869 4 13Z" fill="url(#paint0_linear_569_30)"/>
<path fill-rule="evenodd" clip-rule="evenodd" d="M19.8061 7.93C19.9383 8.15971 19.9739 8.43251 19.9051 8.68845C19.8363 8.9444 19.6687 9.16256 19.4391 9.295C18.7631 9.685 17.8751 9.983 16.8891 10.192C16.7595 10.2224 16.6251 10.2266 16.4939 10.2044C16.3626 10.1822 16.2371 10.1341 16.1247 10.0627C16.0123 9.99137 15.9153 9.8983 15.8393 9.78896C15.7634 9.67963 15.71 9.55623 15.6824 9.426C15.6548 9.29577 15.6534 9.16134 15.6784 9.03058C15.7034 8.89983 15.7543 8.77538 15.828 8.66454C15.9018 8.5537 15.9969 8.4587 16.1079 8.38512C16.2188 8.31153 16.3433 8.26083 16.4741 8.236C17.3461 8.051 18.0111 7.809 18.4411 7.562C18.6708 7.4298 18.9436 7.39419 19.1995 7.46301C19.4555 7.53182 19.6737 7.70043 19.8061 7.93ZM6.3921 8.1C6.5111 7.86308 6.71931 7.68311 6.97097 7.59966C7.22262 7.51622 7.49712 7.53612 7.7341 7.655C8.7671 8.173 10.6921 8.57 13.0001 8.57C13.2653 8.57 13.5197 8.67536 13.7072 8.86289C13.8947 9.05043 14.0001 9.30478 14.0001 9.57C14.0001 9.83522 13.8947 10.0896 13.7072 10.2771C13.5197 10.4646 13.2653 10.57 13.0001 10.57C10.5381 10.57 8.2611 10.156 6.8381 9.443C6.72057 9.38417 6.6158 9.30274 6.52976 9.20339C6.44373 9.10403 6.37812 8.98869 6.3367 8.86395C6.29528 8.73922 6.27885 8.60755 6.28836 8.47646C6.29786 8.34538 6.33311 8.21745 6.3921 8.1ZM20.7551 11.417C20.8129 11.5349 20.8469 11.6631 20.8551 11.7941C20.8634 11.9252 20.8457 12.0566 20.8032 12.1809C20.7607 12.3051 20.6941 12.4198 20.6073 12.5183C20.5204 12.6168 20.415 12.6972 20.2971 12.755C18.6991 13.538 15.9101 14 12.8671 14C9.9971 14 7.3731 13.59 5.7511 12.898C5.63028 12.8465 5.52079 12.7718 5.42887 12.678C5.33695 12.5842 5.2644 12.4732 5.21537 12.3514C5.16635 12.2295 5.14179 12.0992 5.14312 11.9679C5.14444 11.8366 5.17162 11.7068 5.2231 11.586C5.27458 11.4652 5.34935 11.3557 5.44314 11.2638C5.53694 11.1719 5.64792 11.0993 5.76975 11.0503C5.89158 11.0012 6.02187 10.9767 6.15319 10.978C6.28451 10.9793 6.41428 11.0065 6.5351 11.058C7.8051 11.599 10.1231 12 12.8671 12C15.7981 12 18.2251 11.543 19.4171 10.96C19.6551 10.8432 19.9298 10.8258 20.1807 10.9115C20.4316 10.9972 20.6382 11.179 20.7551 11.417ZM20.7551 14.846C20.8129 14.9639 20.8469 15.0921 20.8551 15.2231C20.8634 15.3542 20.8457 15.4856 20.8032 15.6099C20.7607 15.7341 20.6941 15.8488 20.6073 15.9473C20.5204 16.0458 20.415 16.1262 20.2971 16.184C19.4441 16.602 18.0501 16.903 16.5911 17.104C15.022 17.3163 13.4405 17.4249 11.8571 17.429C11.5919 17.429 11.3375 17.3236 11.15 17.1361C10.9625 16.9486 10.8571 16.6942 10.8571 16.429C10.8571 16.1638 10.9625 15.9094 11.15 15.7219C11.3375 15.5344 11.5919 15.429 11.8571 15.429C13.3489 15.425 14.8388 15.3227 16.3171 15.123C17.7621 14.923 18.8761 14.653 19.4171 14.388C19.535 14.3302 19.6632 14.2962 19.7942 14.288C19.9253 14.2797 20.0567 14.2974 20.181 14.3399C20.3052 14.3824 20.4198 14.449 20.5184 14.5358C20.6169 14.6227 20.6973 14.7281 20.7551 14.846ZM5.2231 15.015C5.27457 14.8942 5.34934 14.7847 5.44314 14.6928C5.53693 14.6008 5.64791 14.5283 5.76974 14.4793C5.89157 14.4302 6.02187 14.4057 6.15319 14.407C6.28451 14.4083 6.41428 14.4355 6.5351 14.487C6.9741 14.674 7.5551 14.85 8.2581 14.999C8.3877 15.0249 8.51088 15.0763 8.62051 15.1501C8.73015 15.2239 8.82406 15.3188 8.89681 15.4291C8.96957 15.5394 9.01973 15.6631 9.0444 15.793C9.06907 15.9228 9.06775 16.0563 9.04052 16.1856C9.01329 16.3149 8.96069 16.4376 8.88577 16.5465C8.81084 16.6553 8.71508 16.7483 8.60401 16.8199C8.49294 16.8916 8.36876 16.9405 8.23867 16.9638C8.10858 16.9872 7.97515 16.9845 7.8461 16.956C7.0571 16.789 6.3441 16.579 5.7511 16.326C5.50734 16.222 5.31482 16.0256 5.21582 15.7798C5.11682 15.5339 5.11944 15.2589 5.2231 15.015Z" fill="url(#paint1_linear_569_30)"/>
<path fill-rule="evenodd" clip-rule="evenodd" d="M9.85697 16.286C9.79895 16.2832 9.74098 16.2922 9.68655 16.3125C9.63212 16.3327 9.58237 16.3639 9.54032 16.4039C9.49827 16.444 9.4648 16.4922 9.44193 16.5456C9.41905 16.5989 9.40726 16.6564 9.40726 16.7145C9.40726 16.7726 9.41905 16.8301 9.44193 16.8834C9.4648 16.9368 9.49827 16.985 9.54032 17.0251C9.58237 17.0651 9.63212 17.0963 9.68655 17.1165C9.74098 17.1368 9.79895 17.1458 9.85697 17.143C9.96703 17.1377 10.0708 17.0902 10.1468 17.0104C10.2229 16.9307 10.2653 16.8247 10.2653 16.7145C10.2653 16.6043 10.2229 16.4983 10.1468 16.4186C10.0708 16.3388 9.96703 16.2913 9.85697 16.286ZM7.42897 16.714C7.42241 16.3909 7.48038 16.0698 7.59948 15.7694C7.71858 15.4691 7.89641 15.1955 8.12257 14.9647C8.34872 14.7339 8.61866 14.5505 8.91656 14.4254C9.21446 14.3002 9.53434 14.2357 9.85747 14.2357C10.1806 14.2357 10.5005 14.3002 10.7984 14.4254C11.0963 14.5505 11.3662 14.7339 11.5924 14.9647C11.8185 15.1955 11.9964 15.4691 12.1155 15.7694C12.2346 16.0698 12.2925 16.3909 12.286 16.714C12.2731 17.3495 12.0115 17.9547 11.5575 18.3996C11.1035 18.8445 10.4931 19.0937 9.85747 19.0937C9.22179 19.0937 8.61145 18.8445 8.15742 18.3996C7.70339 17.9547 7.44186 17.3495 7.42897 16.714Z" fill="url(#paint2_linear_569_30)"/>
<path fill-rule="evenodd" clip-rule="evenodd" d="M13 24C19.075 24 24 19.075 24 13C24 6.925 19.075 2 13 2C6.925 2 2 6.925 2 13C2 19.075 6.925 24 13 24ZM13 26C20.18 26 26 20.18 26 13C26 5.82 20.18 0 13 0C5.82 0 0 5.82 0 13C0 20.18 5.82 26 13 26Z" fill="url(#paint3_linear_569_30)"/>
</g>
<defs>
<linearGradient id="paint0_linear_569_30" x1="13" y1="4" x2="13" y2="22" gradientUnits="userSpaceOnUse">
<stop stop-color="#FF0004"/>
<stop offset="1" stop-color="#770202"/>
</linearGradient>
<linearGradient id="paint1_linear_569_30" x1="13.0001" y1="7.42871" x2="13.0001" y2="17.429" gradientUnits="userSpaceOnUse">
<stop stop-color="#FF0004"/>
<stop offset="1" stop-color="#770202"/>
</linearGradient>
<linearGradient id="paint2_linear_569_30" x1="9.85747" y1="14.2357" x2="9.85747" y2="19.0937" gradientUnits="userSpaceOnUse">
<stop stop-color="#FF0004"/>
<stop offset="1" stop-color="#770202"/>
</linearGradient>
<linearGradient id="paint3_linear_569_30" x1="13" y1="0" x2="13" y2="26" gradientUnits="userSpaceOnUse">
<stop stop-color="#FF0004"/>
<stop offset="1" stop-color="#770202"/>
</linearGradient>
<clipPath id="clip0_569_30">
<rect width="26" height="26" fill="white"/>
</clipPath>
</defs>
</svg>
