<?xml version="1.0" encoding="utf-8"?>
<!-- Generator: Adobe Illustrator 28.3.0, SVG Export Plug-In . SVG Version: 6.00 Build 0)  -->
<svg version="1.1" id="Calque_1" xmlns="http://www.w3.org/2000/svg" xmlns:xlink="http://www.w3.org/1999/xlink" x="0px" y="0px"
	 viewBox="0 0 500 500" style="enable-background:new 0 0 500 500;" xml:space="preserve">
<style type="text/css">
	
		.st0{fill:url(#SVGID_1_);stroke:url(#SVGID_00000042018379910414175480000016340984380229548178_);stroke-width:0.7999;stroke-miterlimit:10;}
	
		.st1{fill:url(#SVGID_00000159469032646260475470000017903386436642265520_);stroke:url(#SVGID_00000159435714788436935020000009895744413359151264_);stroke-width:0.7999;stroke-miterlimit:10;}
	.st2{fill:url(#SVGID_00000117655857920144586170000001255667386543535006_);}
	.st3{fill:url(#SVGID_00000013911503862756259470000002603751170755146174_);}
	.st4{filter:url(#Adobe_OpacityMaskFilter);}
	.st5{mask:url(#SVGID_00000030467470906074548590000014395031204333243814_);}
	.st6{fill:#FFFFFF;}
	.st7{filter:url(#Adobe_OpacityMaskFilter_00000172431508447318992110000012397428187365392053_);}
	.st8{mask:url(#SVGID_00000165226450944137464630000004875506672317479080_);}
	.st9{fill:#28211C;}
	.st10{filter:url(#Adobe_OpacityMaskFilter_00000168838910482540039500000014368217369250916256_);}
	.st11{mask:url(#SVGID_00000024718524383886571310000007980996349529348787_);}
	.st12{fill:#FFFEFD;}
	.st13{opacity:6.000000e-02;}
	.st14{filter:url(#Adobe_OpacityMaskFilter_00000058546971437933474090000000792042923652657064_);}
	.st15{mask:url(#SVGID_00000023277837155311953570000010749324563560836759_);}
	.st16{opacity:0.36;}
	.st17{filter:url(#Adobe_OpacityMaskFilter_00000163033016637346309030000010917815369756764077_);}
	.st18{mask:url(#SVGID_00000109019925164574648060000011201117910849359294_);}
	.st19{fill:url(#SVGID_00000180343659227953107570000004497610993426147235_);}
	.st20{fill:url(#SVGID_00000128468913876716757190000003168750990183748793_);}
</style>
<g>
	
		<radialGradient id="SVGID_1_" cx="321.7894" cy="376.018" r="174.3719" gradientTransform="matrix(1.3885 0.256 -4.514175e-02 0.2449 -181.288 76.3371)" gradientUnits="userSpaceOnUse">
		<stop  offset="0" style="stop-color:#CFBA9C"/>
		<stop  offset="0" style="stop-color:#D2B17F"/>
		<stop  offset="0.2908" style="stop-color:#BA966A"/>
		<stop  offset="0.3294" style="stop-color:#856C49"/>
		<stop  offset="0.4137" style="stop-color:#B59262"/>
		<stop  offset="0.4953" style="stop-color:#D1B384"/>
		<stop  offset="0.6732" style="stop-color:#8E744E"/>
		<stop  offset="0.7264" style="stop-color:#BC9A65"/>
		<stop  offset="1" style="stop-color:#28211C"/>
	</radialGradient>
	
		<linearGradient id="SVGID_00000034785392443410318720000007869394064042035602_" gradientUnits="userSpaceOnUse" x1="1.7967" y1="250.7914" x2="494.9712" y2="250.7914" gradientTransform="matrix(0.9834 0.1813 -0.1813 0.9834 49.7282 -40.8886)">
		<stop  offset="0" style="stop-color:#CFBA9C"/>
		<stop  offset="0" style="stop-color:#D2B17F"/>
		<stop  offset="0.153" style="stop-color:#D1B384"/>
		<stop  offset="0.2908" style="stop-color:#BA966A"/>
		<stop  offset="0.4137" style="stop-color:#B59262"/>
		<stop  offset="0.558" style="stop-color:#BC9A65"/>
		<stop  offset="0.6732" style="stop-color:#8E744E"/>
		<stop  offset="0.7998" style="stop-color:#856C49"/>
		<stop  offset="1" style="stop-color:#28211C"/>
	</linearGradient>
	
		<path style="fill:url(#SVGID_1_);stroke:url(#SVGID_00000034785392443410318720000007869394064042035602_);stroke-width:0.7999;stroke-miterlimit:10;" d="
		M256.4,208.1c-133.7-24.7-245.6-25.5-250-1.9s100.5,62.7,234.2,87.3s245.6,25.5,250,1.9C495,271.8,390.1,232.7,256.4,208.1z
		 M243.3,288c-115.4-21.3-206.3-55.1-202.5-75.5c3.8-20.4,100.7-19.6,216.1,1.7s206.3,55.1,202.5,75.5
		C455.7,310,358.7,309.3,243.3,288z"/>
	
		<radialGradient id="SVGID_00000121245960679667305380000009987364069931408781_" cx="322.94" cy="376.018" r="146.8442" gradientTransform="matrix(1.3885 0.256 -4.514175e-02 0.2449 -181.288 76.3371)" gradientUnits="userSpaceOnUse">
		<stop  offset="0" style="stop-color:#CFBA9C"/>
		<stop  offset="0" style="stop-color:#D2B17F"/>
		<stop  offset="0.153" style="stop-color:#D1B384"/>
		<stop  offset="0.2908" style="stop-color:#BA966A"/>
		<stop  offset="0.4137" style="stop-color:#B59262"/>
		<stop  offset="0.558" style="stop-color:#BC9A65"/>
		<stop  offset="0.6732" style="stop-color:#8E744E"/>
		<stop  offset="0.7998" style="stop-color:#856C49"/>
		<stop  offset="1" style="stop-color:#28211C"/>
	</radialGradient>
	
		<linearGradient id="SVGID_00000046323486264589566410000004436754383867557505_" gradientUnits="userSpaceOnUse" x1="42.2861" y1="250.7914" x2="457.7306" y2="250.7914" gradientTransform="matrix(0.9834 0.1813 -0.1813 0.9834 49.7282 -40.8886)">
		<stop  offset="0" style="stop-color:#CFBA9C"/>
		<stop  offset="0" style="stop-color:#D2B17F"/>
		<stop  offset="0.153" style="stop-color:#D1B384"/>
		<stop  offset="0.2908" style="stop-color:#BA966A"/>
		<stop  offset="0.4137" style="stop-color:#B59262"/>
		<stop  offset="0.558" style="stop-color:#BC9A65"/>
		<stop  offset="0.6732" style="stop-color:#8E744E"/>
		<stop  offset="0.7998" style="stop-color:#856C49"/>
		<stop  offset="1" style="stop-color:#28211C"/>
	</linearGradient>
	
		<path style="fill:url(#SVGID_00000121245960679667305380000009987364069931408781_);stroke:url(#SVGID_00000046323486264589566410000004436754383867557505_);stroke-width:0.7999;stroke-miterlimit:10;" d="
		M256.8,215.1c-112.4-20.7-206.9-21.5-210.5-1.6s84.8,52.8,197.3,73.5c112.4,20.7,206.9,21.5,210.5,1.6
		C457.7,268.8,369.2,235.8,256.8,215.1z M243.8,276.4c-80.2-14.8-143.1-38.2-140.5-52.4c2.6-14.1,69.8-13.6,150,1.2
		c80.2,14.8,143.2,38.2,140.5,52.4C391.2,291.7,324,291.2,243.8,276.4z"/>
</g>
<g>
	<image style="overflow:visible;" width="315" height="316" xlink:href="3ACCDE5A.png"  transform="matrix(1 0 0 1 84 98)">
	</image>
</g>
<linearGradient id="SVGID_00000011723371061523578140000004723059341182124693_" gradientUnits="userSpaceOnUse" x1="150.3965" y1="217.0954" x2="336.9268" y2="217.0954" gradientTransform="matrix(0.9997 -2.419786e-02 2.419786e-02 0.9997 -1.8307 42.2078)">
	<stop  offset="0" style="stop-color:#CFBA9C"/>
	<stop  offset="0" style="stop-color:#D2B17F"/>
	<stop  offset="0.153" style="stop-color:#D1B384"/>
	<stop  offset="0.3178" style="stop-color:#5A4C35"/>
	<stop  offset="0.625" style="stop-color:#BC9A65"/>
	<stop  offset="0.7998" style="stop-color:#856C49"/>
	<stop  offset="1" style="stop-color:#28211C"/>
</linearGradient>
<circle style="fill:url(#SVGID_00000011723371061523578140000004723059341182124693_);" cx="247" cy="253.3" r="93.3"/>
<linearGradient id="SVGID_00000078013690872161319030000002727029112201186747_" gradientUnits="userSpaceOnUse" x1="418.3473" y1="334.5819" x2="604.9261" y2="334.5819" gradientTransform="matrix(0.4706 0.8824 -0.8824 0.4706 301.465 -355.5507)">
	<stop  offset="0" style="stop-color:#CFBA9C"/>
	<stop  offset="0" style="stop-color:#D2B17F"/>
	<stop  offset="0.153" style="stop-color:#D1B384"/>
	<stop  offset="0.2908" style="stop-color:#BA966A"/>
	<stop  offset="0.4137" style="stop-color:#B59262"/>
	<stop  offset="0.558" style="stop-color:#BC9A65"/>
	<stop  offset="0.6732" style="stop-color:#8E744E"/>
	<stop  offset="0.7998" style="stop-color:#856C49"/>
	<stop  offset="1" style="stop-color:#28211C"/>
</linearGradient>
<circle style="fill:url(#SVGID_00000078013690872161319030000002727029112201186747_);" cx="247" cy="253.3" r="93.3"/>
<g>
	<defs>
		<filter id="Adobe_OpacityMaskFilter" filterUnits="userSpaceOnUse" x="167.5" y="210.1" width="159.1" height="86.6">
			<feFlood  style="flood-color:white;flood-opacity:1" result="back"/>
			<feBlend  in="SourceGraphic" in2="back" mode="normal"/>
		</filter>
	</defs>
	
		<mask maskUnits="userSpaceOnUse" x="167.5" y="210.1" width="159.1" height="86.6" id="SVGID_00000120543293411317980250000008111842179300662691_">
		<g class="st4">
			<image style="overflow:visible;" width="164" height="91" xlink:href="3ACCDE5E.jpg"  transform="matrix(1 0 0 1 165 208)">
			</image>
		</g>
	</mask>
	<g style="mask:url(#SVGID_00000120543293411317980250000008111842179300662691_);">
		<path class="st6" d="M167.5,275.3c1-10.3,61.1-10.7,90.2-31.1c94.4-66.2,66.5-17.2,60-8.9c-18.8,24.1-75.5,73.7-110.7,58.5
			C199.4,290.5,167.4,276.2,167.5,275.3z"/>
	</g>
</g>
<g>
	<defs>
		
			<filter id="Adobe_OpacityMaskFilter_00000002357055418386171740000013608599825058793621_" filterUnits="userSpaceOnUse" x="170.2" y="199.3" width="153.6" height="108.1">
			<feFlood  style="flood-color:white;flood-opacity:1" result="back"/>
			<feBlend  in="SourceGraphic" in2="back" mode="normal"/>
		</filter>
	</defs>
	
		<mask maskUnits="userSpaceOnUse" x="170.2" y="199.3" width="153.6" height="108.1" id="SVGID_00000003813794970695265050000010026795709791053472_">
		<g style="filter:url(#Adobe_OpacityMaskFilter_00000002357055418386171740000013608599825058793621_);">
			<image style="overflow:visible;" width="158" height="113" xlink:href="3ACCDE59.jpg"  transform="matrix(1 0 0 1 168 197)">
			</image>
		</g>
	</mask>
	<g style="mask:url(#SVGID_00000003813794970695265050000010026795709791053472_);">
		<path class="st9" d="M170.2,293.3c1-10.3,53.4-43.6,86-62.9c99.3-58.7,57.7-17.8,64.5-9.8c5.7,6.7-106.1,81.1-142.4,86.7
			C170.2,308.6,170.2,294.1,170.2,293.3z"/>
	</g>
</g>
<g>
	<defs>
		
			<filter id="Adobe_OpacityMaskFilter_00000112624104806632422880000012646035368568937871_" filterUnits="userSpaceOnUse" x="192.6" y="209.9" width="108.8" height="86.8">
			<feFlood  style="flood-color:white;flood-opacity:1" result="back"/>
			<feBlend  in="SourceGraphic" in2="back" mode="normal"/>
		</filter>
	</defs>
	
		<mask maskUnits="userSpaceOnUse" x="192.6" y="209.9" width="108.8" height="86.8" id="SVGID_00000173133365555975205620000003917250806891191938_">
		<g style="filter:url(#Adobe_OpacityMaskFilter_00000112624104806632422880000012646035368568937871_);">
			<image style="overflow:visible;" width="114" height="92" xlink:href="3ACCDE5A.jpg"  transform="matrix(1 0 0 1 190 207)">
			</image>
		</g>
	</mask>
	<g style="mask:url(#SVGID_00000173133365555975205620000003917250806891191938_);">
		<path class="st12" d="M193.4,278.2c27.1-66.2,58.6-55.4,96.4-56.9c32.5-1.3-14.4-17.2-7.6-9.2c5.7,6.7-62.6,47-86.7,83.3
			C190.9,302.4,193,279,193.4,278.2z"/>
	</g>
</g>
<g class="st13">
	<defs>
		
			<filter id="Adobe_OpacityMaskFilter_00000000937525952248635980000000375603937282250423_" filterUnits="userSpaceOnUse" x="174.8" y="198" width="144.4" height="110.6">
			<feFlood  style="flood-color:white;flood-opacity:1" result="back"/>
			<feBlend  in="SourceGraphic" in2="back" mode="normal"/>
		</filter>
	</defs>
	
		<mask maskUnits="userSpaceOnUse" x="174.8" y="198" width="144.4" height="110.6" id="SVGID_00000078027787196317794910000001655639915448657069_">
		<g style="filter:url(#Adobe_OpacityMaskFilter_00000000937525952248635980000000375603937282250423_);">
			<image style="overflow:visible;" width="150" height="115" xlink:href="3ACCDE58.jpg"  transform="matrix(1 0 0 1 172 196)">
			</image>
		</g>
	</mask>
	<g style="mask:url(#SVGID_00000078027787196317794910000001655639915448657069_);">
		<path class="st9" d="M192.1,308.7c-35.1-15.3-9.5-43,12.9-59.1c58.6-42.2,105.3-57.5,112.1-49.5c5.7,6.7,1,74.3-32.7,86.7
			C276.7,289.6,192.9,309,192.1,308.7z"/>
	</g>
</g>
<g class="st16">
	<defs>
		
			<filter id="Adobe_OpacityMaskFilter_00000066515699776934211580000010260078419872195479_" filterUnits="userSpaceOnUse" x="157" y="172.6" width="138" height="102.3">
			<feFlood  style="flood-color:white;flood-opacity:1" result="back"/>
			<feBlend  in="SourceGraphic" in2="back" mode="normal"/>
		</filter>
	</defs>
	
		<mask maskUnits="userSpaceOnUse" x="157" y="172.6" width="138" height="102.3" id="SVGID_00000095334433353554639630000008053059738784667815_">
		<g style="filter:url(#Adobe_OpacityMaskFilter_00000066515699776934211580000010260078419872195479_);">
			<image style="overflow:visible;" width="143" height="107" xlink:href="3ACCDE66.jpg"  transform="matrix(1 0 0 1 155 170)">
			</image>
		</g>
	</mask>
	<g style="mask:url(#SVGID_00000095334433353554639630000008053059738784667815_);">
		<path class="st9" d="M174.3,274.8c-35.1-15.3-9.5-43,12.9-59.1c58.6-42.2,99.3-48.1,106.1-40.1c5.7,6.7-1.5,18.7-35.2,31.1
			C250.3,209.5,175.1,275.2,174.3,274.8z"/>
	</g>
</g>
<g>
	
		<radialGradient id="SVGID_00000073693624410514944190000007535013539479082639_" cx="321.7894" cy="376.018" r="174.3719" gradientTransform="matrix(1.3885 0.256 -0.256 1.3885 -102.0143 -353.673)" gradientUnits="userSpaceOnUse">
		<stop  offset="0" style="stop-color:#CFBA9C"/>
		<stop  offset="0" style="stop-color:#D2B17F"/>
		<stop  offset="0.2908" style="stop-color:#BA966A"/>
		<stop  offset="0.3294" style="stop-color:#856C49"/>
		<stop  offset="0.4137" style="stop-color:#B59262"/>
		<stop  offset="0.4953" style="stop-color:#D1B384"/>
		<stop  offset="0.6732" style="stop-color:#8E744E"/>
		<stop  offset="0.7264" style="stop-color:#BC9A65"/>
		<stop  offset="1" style="stop-color:#28211C"/>
	</radialGradient>
	<path style="fill:url(#SVGID_00000073693624410514944190000007535013539479082639_);" d="M457,294c-16.2,15.8-107.1,13.7-213.7-6
		c-106.6-19.7-192.2-50-201.7-70.6L7,211c9,23.8,108.8,59.5,233.7,82.5s230.8,25.3,247.7,6.3L457,294z"/>
	
		<radialGradient id="SVGID_00000061430698592385987620000011023753522089094797_" cx="322.9399" cy="376.018" r="146.8442" gradientTransform="matrix(1.3885 0.256 -0.256 1.3885 -102.0143 -353.673)" gradientUnits="userSpaceOnUse">
		<stop  offset="0" style="stop-color:#CFBA9C"/>
		<stop  offset="0" style="stop-color:#D2B17F"/>
		<stop  offset="0.153" style="stop-color:#D1B384"/>
		<stop  offset="0.2908" style="stop-color:#BA966A"/>
		<stop  offset="0.4137" style="stop-color:#B59262"/>
		<stop  offset="0.558" style="stop-color:#BC9A65"/>
		<stop  offset="0.6732" style="stop-color:#8E744E"/>
		<stop  offset="0.7998" style="stop-color:#856C49"/>
		<stop  offset="1" style="stop-color:#28211C"/>
	</radialGradient>
	<path style="fill:url(#SVGID_00000061430698592385987620000011023753522089094797_);" d="M390.6,281.7
		c-14.5,9.7-75.5,7.8-146.8-5.3c-71.3-13.2-129-33.2-139.1-47.4L47,218.4c9.6,20,92.8,49.5,196.4,68.6
		c103.6,19.1,191.9,21.2,208,5.9L390.6,281.7z"/>
</g>
</svg>
