<?xml version="1.0" encoding="UTF-8"?>
<svg id="Calque_2" data-name="Calque 2" xmlns="http://www.w3.org/2000/svg" viewBox="0 0 180.23 180.23">
  <defs>
    <style>
      .cls-1 {
        stroke-width: .1px;
      }

      .cls-1, .cls-2, .cls-3, .cls-4, .cls-5, .cls-6, .cls-7, .cls-8, .cls-9, .cls-10, .cls-11, .cls-12, .cls-13, .cls-14, .cls-15, .cls-16, .cls-17, .cls-18, .cls-19, .cls-20, .cls-21, .cls-22, .cls-23, .cls-24, .cls-25, .cls-26, .cls-27, .cls-28, .cls-29, .cls-30, .cls-31, .cls-32, .cls-33, .cls-34, .cls-35, .cls-36, .cls-37, .cls-38, .cls-39, .cls-40, .cls-41, .cls-42, .cls-43, .cls-44, .cls-45, .cls-46, .cls-47, .cls-48, .cls-49, .cls-50, .cls-51 {
        fill: none;
        stroke: #fff;
        stroke-miterlimit: 10;
      }

      .cls-2 {
        stroke-width: 1.39px;
      }

      .cls-3 {
        stroke-width: .93px;
      }

      .cls-4 {
        stroke-width: .38px;
      }

      .cls-5 {
        stroke-width: .04px;
      }

      .cls-6 {
        stroke-width: 1.01px;
      }

      .cls-7 {
        stroke-width: .45px;
      }

      .cls-8 {
        stroke-width: .04px;
      }

      .cls-9 {
        stroke-width: .11px;
      }

      .cls-10 {
        stroke-width: .14px;
      }

      .cls-11 {
        stroke-width: .68px;
      }

      .cls-12 {
        stroke-width: .07px;
      }

      .cls-13 {
        stroke-width: 1.09px;
      }

      .cls-14 {
        stroke-width: .07px;
      }

      .cls-15 {
        stroke-width: 1.29px;
      }

      .cls-16 {
        stroke-width: .2px;
      }

      .cls-17 {
        stroke-width: 1.19px;
      }

      .cls-18 {
        stroke-width: .12px;
      }

      .cls-19 {
        stroke-width: .05px;
      }

      .cls-20 {
        stroke-width: .09px;
      }

      .cls-21 {
        stroke-width: .62px;
      }

      .cls-22 {
        stroke-width: .28px;
      }

      .cls-23 {
        stroke-width: .26px;
      }

      .cls-24 {
        stroke-width: .12px;
      }

      .cls-25 {
        stroke-width: .33px;
      }

      .cls-26 {
        stroke-width: 1.51px;
      }

      .cls-27 {
        stroke-width: .17px;
      }

      .cls-28 {
        stroke-width: .03px;
      }

      .cls-29 {
        stroke-width: .22px;
      }

      .cls-30 {
        stroke-width: .49px;
      }

      .cls-31 {
        stroke-width: .08px;
      }

      .cls-32 {
        stroke-width: .15px;
      }

      .cls-33 {
        stroke-width: .19px;
      }

      .cls-34 {
        stroke-width: .3px;
      }

      .cls-35 {
        stroke-width: .08px;
      }

      .cls-36 {
        stroke-width: .06px;
      }

      .cls-37 {
        stroke-width: .35px;
      }

      .cls-38 {
        stroke-width: .86px;
      }

      .cls-39 {
        stroke-width: .06px;
      }

      .cls-40 {
        stroke-width: .16px;
      }

      .cls-41 {
        stroke-width: .24px;
      }

      .cls-42 {
        stroke-width: .79px;
      }

      .cls-43 {
        stroke-width: .05px;
      }

      .cls-44 {
        stroke-width: .58px;
      }

      .cls-45 {
        stroke-width: .03px;
      }

      .cls-46 {
        stroke-width: .42px;
      }

      .cls-47 {
        stroke-width: .04px;
      }

      .cls-48 {
        stroke-width: .03px;
      }

      .cls-49 {
        stroke-width: .53px;
      }

      .cls-50 {
        stroke-width: .73px;
      }

      .cls-51 {
        stroke-width: .03px;
      }
    </style>
  </defs>
  <path class="cls-28" d="M88.4,90.23c-1.32-.74-1.62-1.39-.67-1.45s2.78.49,4.1,1.23,1.62,1.39.67,1.45-2.78-.49-4.1-1.23Z"/>
  <path class="cls-45" d="M92.11,90.15c1.45.86,1.73,1.54.63,1.52s-3.17-.74-4.62-1.6-1.73-1.54-.63-1.52,3.17.74,4.62,1.6Z"/>
  <path class="cls-51" d="M87.81,89.9c-1.59-.99-1.85-1.7-.58-1.59s3.6,1.02,5.19,2.02,1.85,1.7.58,1.59-3.6-1.02-5.19-2.02Z"/>
  <path class="cls-48" d="M92.77,90.53c1.74,1.14,1.97,1.88.51,1.65s-4.07-1.34-5.81-2.49-1.97-1.88-.51-1.65,4.07,1.34,5.81,2.49Z"/>
  <path class="cls-8" d="M87.08,89.46c-1.91-1.3-2.09-2.06-.42-1.7s4.58,1.71,6.48,3.01,2.09,2.06.42,1.7-4.58-1.71-6.48-3.01Z"/>
  <path class="cls-47" d="M93.56,91.04c2.08,1.48,2.22,2.26.31,1.75s-5.13-2.12-7.2-3.6-2.22-2.26-.31-1.75,5.13,2.12,7.2,3.6Z"/>
  <path class="cls-5" d="M86.22,88.88c-2.25-1.67-2.34-2.47-.19-1.79s5.72,2.59,7.98,4.26,2.34,2.47.19,1.79-5.72-2.59-7.98-4.26Z"/>
  <path class="cls-19" d="M94.5,91.7c2.44,1.88,2.46,2.69.03,1.81s-6.37-3.11-8.81-4.99-2.46-2.69-.03-1.81,6.37,3.11,8.81,4.99Z"/>
  <path class="cls-43" d="M85.19,88.13c-2.64-2.11-2.57-2.92.14-1.83s7.06,3.69,9.7,5.79,2.57,2.92-.14,1.83-7.06-3.69-9.7-5.79Z"/>
  <path class="cls-36" d="M95.61,92.54c2.84,2.35,2.69,3.17-.35,1.83s-7.81-4.33-10.65-6.68-2.69-3.17.35-1.83,7.81,4.33,10.65,6.68Z"/>
  <path class="cls-39" d="M83.99,87.19c-3.06-2.62-2.79-3.43.59-1.81s8.6,5.05,11.66,7.66,2.79,3.43-.59,1.81-8.6-5.05-11.66-7.66Z"/>
  <path class="cls-12" d="M96.91,93.6c3.27,2.9,2.88,3.69-.87,1.77s-9.45-5.84-12.73-8.74-2.88-3.69.87-1.77,9.45,5.84,12.73,8.74Z"/>
  <path class="cls-14" d="M82.59,86.01c-3.5-3.21-2.97-3.97,1.19-1.7s10.36,6.71,13.86,9.91,2.97,3.97-1.19,1.7-10.36-6.71-13.86-9.91Z"/>
  <path class="cls-35" d="M98.41,94.91c3.73,3.54,3.04,4.26-1.55,1.61s-11.32-7.66-15.05-11.2-3.04-4.26,1.55-1.61,11.32,7.66,15.05,11.2Z"/>
  <path class="cls-31" d="M80.99,84.56c-3.96-3.89-3.08-4.55,1.96-1.48s12.34,8.7,16.3,12.59c3.96,3.89,3.08,4.55-1.96,1.48s-12.34-8.7-16.3-12.59Z"/>
  <path class="cls-20" d="M100.12,96.51c4.19,4.26,3.11,4.85-2.41,1.32s-13.41-9.84-17.6-14.1-3.11-4.85,2.41-1.32,13.41,9.84,17.6,14.1Z"/>
  <path class="cls-1" d="M79.17,82.8c-4.43-4.65-3.11-5.15,2.93-1.11s14.53,11.09,18.96,15.74c4.43,4.65,3.11,5.15-2.93,1.11s-14.53-11.09-18.96-15.74Z"/>
  <path class="cls-9" d="M102.05,98.44c4.66,5.07,3.08,5.46-3.51.86-6.59-4.6-15.71-12.44-20.37-17.51-4.66-5.07-3.08-5.46,3.51-.86,6.59,4.6,15.71,12.44,20.37,17.51Z"/>
  <path class="cls-18" d="M77.13,80.69c-4.88-5.51-3.02-5.77,4.15-.56,7.17,5.21,16.94,13.9,21.82,19.41,4.88,5.51,3.02,5.77-4.15.56-7.17-5.21-16.94-13.9-21.82-19.41Z"/>
  <path class="cls-24" d="M104.2,100.74c5.09,5.98,2.91,6.07-4.87.2-7.78-5.87-18.21-15.47-23.3-21.45-5.09-5.98-2.91-6.07,4.87-.2,7.78,5.87,18.21,15.47,23.3,21.45Z"/>
  <path class="cls-10" d="M74.88,78.18c-5.29-6.46-2.76-6.36,5.66.23,8.42,6.59,19.53,17.17,24.82,23.64,5.29,6.46,2.76,6.36-5.66-.23-8.42-6.59-19.53-17.17-24.82-23.64Z"/>
  <path class="cls-32" d="M106.56,103.46c5.48,6.97,2.55,6.64-6.53-.73-9.08-7.37-20.88-19-26.36-25.97-5.48-6.97-2.55-6.64,6.53.73,9.08,7.37,20.88,19,26.36,25.97Z"/>
  <path class="cls-40" d="M72.42,75.23c-5.64-7.5-2.28-6.91,7.49,1.31,9.77,8.22,22.26,20.96,27.9,28.45,5.64,7.5,2.28,6.91-7.49-1.31-9.77-8.22-22.26-20.96-27.9-28.45Z"/>
  <path class="cls-27" d="M109.1,106.65c5.77,8.04,1.94,7.16-8.54-1.98-10.49-9.13-23.66-23.05-29.43-31.09-5.77-8.04-1.94-7.16,8.54,1.98,10.49,9.13,23.66,23.05,29.43,31.09Z"/>
  <path class="cls-33" d="M69.8,71.81c-5.87-8.6-1.53-7.37,9.69,2.74s25.08,25.28,30.94,33.87c5.87,8.6,1.53,7.37-9.69-2.74-11.22-10.11-25.08-25.28-30.94-33.87Z"/>
  <path class="cls-16" d="M111.8,110.32c5.93,9.17,1.02,7.55-10.95-3.61s-26.48-27.64-32.41-36.81-1.02-7.55,10.95,3.61c11.97,11.16,26.48,27.64,32.41,36.81Z"/>
  <path class="cls-29" d="M67.05,67.87c-5.93-9.75-.42-7.69,12.32,4.6,12.74,12.29,27.88,30.15,33.81,39.89s.42,7.69-12.32-4.6c-12.74-12.29-27.88-30.15-33.81-39.89Z"/>
  <path class="cls-41" d="M114.58,114.53c5.89,10.33-.29,7.77-13.81-5.71s-29.24-32.79-35.12-43.12c-5.89-10.33.29-7.77,13.81,5.71,13.51,13.48,29.24,32.79,35.12,43.12Z"/>
  <path class="cls-23" d="M64.25,63.39c-5.77-10.91,1.13-7.8,15.41,6.96s30.54,35.57,36.32,46.48-1.13,7.8-15.41-6.96c-14.28-14.76-30.54-35.57-36.32-46.48Z"/>
  <path class="cls-22" d="M117.37,119.28c5.58,11.49-2.1,7.75-17.15-8.36s-31.78-38.48-37.36-49.97,2.1-7.75,17.15,8.36c15.05,16.11,31.78,38.48,37.36,49.97Z"/>
  <path class="cls-34" d="M61.5,58.37c-5.3-12.05,3.22-7.61,19.02,9.92s32.91,41.52,38.21,53.57c5.3,12.05-3.22,7.61-19.02-9.92-15.8-17.53-32.91-41.52-38.21-53.57Z"/>
  <path class="cls-25" d="M120.04,124.58c4.92,12.59-4.5,7.37-21.02-11.66-16.53-19.03-33.91-44.68-38.83-57.27-4.92-12.59,4.5-7.37,21.02,11.66,16.53,19.03,33.91,44.68,38.83,57.27Z"/>
  <path class="cls-37" d="M58.94,52.8c-4.42-13.11,5.96-7.02,23.17,13.58,17.22,20.61,34.76,47.94,39.17,61.05,4.42,13.11-5.96,7.02-23.17-13.58-17.22-20.61-34.76-47.94-39.17-61.05Z"/>
  <path class="cls-4" d="M122.44,130.41c3.79,13.58-7.61,6.54-25.47-15.71-17.85-22.25-35.4-51.3-39.19-64.88s7.61-6.54,25.47,15.71c17.85,22.25,35.4,51.3,39.19,64.88Z"/>
  <path class="cls-46" d="M56.75,46.72c-3.01-14,9.48-5.92,27.91,18.05s35.81,54.74,38.82,68.73-9.48,5.92-27.91-18.05S59.76,60.72,56.75,46.72Z"/>
  <path class="cls-7" d="M124.37,136.72c2.07,14.35-11.58,5.12-30.5-20.62S57.94,57.86,55.86,43.51s11.58-5.12,30.5,20.62c18.92,25.74,35.93,58.23,38.01,72.58Z"/>
  <path class="cls-30" d="M55.16,40.21c-.95-14.62,13.93-4.13,33.24,23.43,19.3,27.56,35.72,61.76,36.67,76.38.95,14.62-13.93,4.13-33.24-23.43-19.3-27.56-35.72-61.76-36.67-76.38Z"/>
  <path class="cls-49" d="M125.54,143.41c-.38,14.8-16.56,2.93-36.12-26.51S54.3,51.61,54.68,36.82c.38-14.8,16.56-2.93,36.12,26.51,19.57,29.44,35.12,65.29,34.74,80.09Z"/>
  <path class="cls-44" d="M54.47,33.36c1.94-14.86,19.48-1.49,39.16,29.85s34.06,68.79,32.12,83.65c-1.94,14.86-19.48,1.49-39.16-29.85-19.68-31.34-34.06-68.79-32.12-83.65Z"/>
  <path class="cls-21" d="M125.65,150.36c-3.76,14.78-22.71-.21-42.34-33.49-19.62-33.27-32.49-72.22-28.73-87,3.76-14.78,22.71.21,42.34,33.49,19.62,33.27,32.49,72.22,28.73,87Z"/>
  <path class="cls-11" d="M55.06,26.37c5.85-14.54,26.29,2.22,45.65,37.42,19.36,35.21,30.31,75.53,24.46,90.07-5.85,14.54-26.29-2.22-45.65-37.42-19.36-35.21-30.31-75.53-24.46-90.07Z"/>
  <path class="cls-50" d="M124.26,157.35c-8.25,14.11-30.22-4.54-49.08-41.68-18.86-37.13-27.46-78.67-19.21-92.79,8.25-14.11,30.22,4.54,49.08,41.68s27.46,78.67,19.21,92.79Z"/>
  <path class="cls-42" d="M57.38,19.46c10.99-13.48,34.55,7.23,52.63,46.26,18.08,39.02,23.83,81.58,12.85,95.06-10.99,13.48-34.55-7.23-52.63-46.26-18.08-39.02-23.83-81.58-12.85-95.06Z"/>
  <path class="cls-38" d="M120.88,164.1c-14.09,12.59-39.29-10.32-56.28-51.18-16.99-40.86-19.34-84.19-5.25-96.79,14.09-12.59,39.29,10.32,56.28,51.18,16.99,40.86,19.34,84.19,5.25,96.79Z"/>
  <path class="cls-3" d="M61.98,12.96c17.6-11.43,44.47,13.84,60,56.45,15.54,42.61,13.87,86.42-3.73,97.85-17.6,11.43-44.47-13.84-60-56.45-15.54-42.61-13.87-86.42,3.73-97.85Z"/>
  <path class="cls-6" d="M114.89,170.23c-21.55,9.95-50.1-17.84-63.79-62.09-13.68-44.25-7.31-88.18,14.24-98.14C86.89.05,115.44,27.84,129.13,72.09c13.68,44.25,7.31,88.18-14.24,98.14Z"/>
  <path class="cls-13" d="M69.54,7.32c25.97-8.12,56.23,22.37,67.6,68.09,11.36,45.73-.47,89.38-26.44,97.5-25.97,8.12-56.23-22.37-67.6-68.09-11.36-45.73.47-89.38,26.44-97.5Z"/>
  <ellipse class="cls-17" cx="90.11" cy="90.11" rx="56.95" ry="86.52" transform="translate(-14.16 16.84) rotate(-9.9)"/>
  <path class="cls-15" d="M80.85,3.1C117.24-.11,150.89,36.26,156.01,84.32c5.12,48.06-20.24,89.61-56.63,92.81-36.39,3.2-70.04-33.16-75.16-81.22C19.1,47.85,44.46,6.3,80.85,3.1Z"/>
  <path class="cls-2" d="M92.03,178.49c-42.48.02-77.77-39.54-78.83-88.35C12.14,41.34,45.72,1.75,88.2,1.74c42.48-.02,77.77,39.54,78.83,88.35,1.06,48.81-32.52,88.39-75,88.41Z"/>
  <circle class="cls-26" cx="90.11" cy="90.11" r="89.36"/>
</svg>