<svg width="44" height="48" viewBox="0 0 44 48" fill="none" xmlns="http://www.w3.org/2000/svg">
<g filter="url(#filter0_d_500_3)">
<path d="M38.0413 28.2275C38.0502 28.6101 37.9334 28.9851 37.7088 29.295C37.4871 29.6109 37.1671 29.8447 36.7988 29.96L33.8063 30.9575C32.8845 31.2636 32.046 31.7787 31.3563 32.4625C30.6673 33.1482 30.1514 33.988 29.8513 34.9125L28.8013 37.8875C28.6919 38.2446 28.4711 38.5573 28.1713 38.78C27.8512 38.9973 27.4731 39.1132 27.0863 39.1125C26.698 39.1291 26.3153 39.016 25.9984 38.791C25.6816 38.566 25.4486 38.242 25.3363 37.87L24.3388 34.8775C24.0386 33.953 23.5227 33.1132 22.8338 32.4275C22.1383 31.7468 21.302 31.2271 20.3838 30.905L17.3913 29.925C17.037 29.8008 16.7268 29.5757 16.4988 29.2775C16.269 28.9615 16.1408 28.5831 16.1313 28.1925C16.1147 27.8042 16.2278 27.4215 16.4528 27.1046C16.6777 26.7878 17.0018 26.5548 17.3738 26.4425L20.3838 25.445C21.3173 25.1433 22.1658 24.6243 22.8594 23.9306C23.5531 23.237 24.0721 22.3885 24.3738 21.455L25.3713 18.4975C25.4733 18.1336 25.6904 17.8125 25.99 17.5822C26.2897 17.3519 26.6559 17.2248 27.0338 17.22C27.41 17.22 27.7793 17.3232 28.1013 17.5175C28.4198 17.7362 28.6648 18.0477 28.8013 18.41L29.8163 21.455C30.1179 22.3885 30.6369 23.237 31.3306 23.9306C32.0243 24.6243 32.8728 25.1433 33.8063 25.445L36.7813 26.495C37.1432 26.6136 37.4566 26.8471 37.6738 27.16C37.9108 27.4654 38.0401 27.8408 38.0413 28.2275ZM20.543 17.0975C20.5403 17.4405 20.4369 17.7752 20.2455 18.06C20.0387 18.3417 19.7522 18.555 19.423 18.6725L17.218 19.4075C16.6003 19.621 16.0403 19.9675 15.573 20.4225C15.1163 20.8883 14.7695 21.4503 14.558 22.0675L13.8055 24.2375C13.6988 24.5723 13.4832 24.8618 13.193 25.06C12.9053 25.2609 12.5639 25.3706 12.213 25.375C11.8543 25.369 11.5061 25.2529 11.2155 25.0425C10.9403 24.8331 10.7332 24.5469 10.6205 24.22L9.90302 22.0325C9.69249 21.42 9.3454 20.8635 8.88802 20.405C8.43984 19.9348 7.87997 19.5856 7.26052 19.39L5.07302 18.655C4.73359 18.5481 4.43853 18.333 4.23302 18.0425C4.09373 17.8243 4.00456 17.578 3.97195 17.3212C3.93934 17.0644 3.9641 16.8036 4.04445 16.5575C4.12479 16.3115 4.25873 16.0863 4.43659 15.8982C4.61445 15.7102 4.83182 15.5639 5.07302 15.47L7.26052 14.7525C7.87949 14.5364 8.44172 14.1834 8.90531 13.7198C9.3689 13.2562 9.7219 12.6939 9.93802 12.075L10.6555 9.92248C10.7587 9.5999 10.9532 9.31418 11.2155 9.09998C11.4943 8.88994 11.8295 8.76805 12.178 8.74998C12.5312 8.74049 12.8789 8.8381 13.1755 9.02998C13.4674 9.22704 13.6931 9.5076 13.823 9.83498L14.558 12.075C14.7741 12.6939 15.1272 13.2562 15.5907 13.7198C16.0543 14.1834 16.6166 14.5364 17.2355 14.7525L19.423 15.505C19.7502 15.6174 20.0325 15.8321 20.228 16.1175C20.4352 16.402 20.5456 16.7455 20.543 17.0975ZM30.6738 7.71748C30.6579 8.03656 30.555 8.34521 30.3763 8.60998C30.1942 8.85953 29.9364 9.04366 29.6413 9.13498L28.5563 9.50248C28.3455 9.57522 28.1541 9.69495 27.9964 9.8526C27.8387 10.0103 27.719 10.2017 27.6463 10.4125L27.2613 11.515C27.1556 11.7834 26.9804 12.019 26.7538 12.1975C26.4958 12.4042 26.1743 12.5154 25.8438 12.5125C25.5413 12.4937 25.2475 12.4038 24.9863 12.25C24.7246 12.0572 24.529 11.7883 24.4263 11.48L24.0588 10.395C23.9956 10.1798 23.8745 9.98609 23.7088 9.83498C23.5545 9.67309 23.3619 9.55271 23.1488 9.48498L22.0638 9.13498C21.7751 9.02241 21.5214 8.8352 21.3288 8.59248C21.1472 8.3302 21.0496 8.01897 21.0488 7.69998C21.0589 7.37986 21.1623 7.06967 21.3463 6.80748C21.5348 6.56447 21.7903 6.38197 22.0813 6.28248L23.1488 5.93248C23.3643 5.85894 23.5613 5.73953 23.7263 5.58248C23.8833 5.41755 24.0027 5.22052 24.0763 5.00498L24.4438 3.91998C24.5488 3.64873 24.715 3.40898 24.9338 3.21998C25.1849 3.03467 25.4809 2.91988 25.7913 2.88748C26.1215 2.88559 26.4447 2.98315 26.7188 3.16748C26.9655 3.35307 27.1587 3.60061 27.2788 3.88498L27.6463 5.00498C27.7198 5.22052 27.8392 5.41755 27.9963 5.58248C28.159 5.73363 28.3491 5.85241 28.5563 5.93248L29.6588 6.29998C29.9391 6.41029 30.1863 6.59113 30.3763 6.82498C30.5672 7.08361 30.6713 7.39603 30.6738 7.71748Z" fill="url(#paint0_linear_500_3)"/>
</g>
<defs>
<filter id="filter0_d_500_3" x="-5.8" y="-5.8" width="53.6" height="55.8" filterUnits="userSpaceOnUse" color-interpolation-filters="sRGB">
<feFlood flood-opacity="0" result="BackgroundImageFix"/>
<feColorMatrix in="SourceAlpha" type="matrix" values="0 0 0 0 0 0 0 0 0 0 0 0 0 0 0 0 0 0 127 0" result="hardAlpha"/>
<feOffset dx="1" dy="4"/>
<feGaussianBlur stdDeviation="2"/>
<feComposite in2="hardAlpha" operator="out"/>
<feColorMatrix type="matrix" values="0 0 0 0 0 0 0 0 0 0 0 0 0 0 0 0 0 0 0.25 0"/>
<feBlend mode="normal" in2="BackgroundImageFix" result="effect1_dropShadow_500_3"/>
<feBlend mode="normal" in="SourceGraphic" in2="effect1_dropShadow_500_3" result="shape"/>
</filter>
<linearGradient id="paint0_linear_500_3" x1="3.95801" y1="21.0007" x2="38.0417" y2="21.0007" gradientUnits="userSpaceOnUse">
<stop stop-color="#E6007E"/>
<stop offset="1" stop-color="#006AFF"/>
</linearGradient>
</defs>
</svg>
