<svg width="37" height="37" viewBox="0 0 37 37" fill="none" xmlns="http://www.w3.org/2000/svg">
<path fill-rule="evenodd" clip-rule="evenodd" d="M25.6086 5.16922C26.2808 4.78106 27.0746 4.6607 27.8316 4.83216C28.5887 5.00363 29.2532 5.45431 29.6925 6.09422L29.8204 6.29772L33.6746 12.9731C34.0628 13.6453 34.1831 14.4392 34.0117 15.1962C33.8402 15.9532 33.3895 16.6177 32.7496 17.057L32.5461 17.185L24.5356 21.81C23.7879 22.2416 22.9323 22.3249 22.1614 22.1091L21.9086 22.0258L26.0834 31.7691C26.2356 32.1302 26.2446 32.5357 26.1085 32.9031C25.9725 33.2706 25.7016 33.5724 25.351 33.7473C25.0004 33.9223 24.5963 33.9571 24.2209 33.8448C23.8455 33.7325 23.527 33.4815 23.33 33.1428L23.2498 32.9824L20.0416 25.4976L16.835 32.9824C16.6825 33.3476 16.3954 33.6402 16.0332 33.7996C15.671 33.959 15.2613 33.973 14.8891 33.8386C14.5168 33.7043 14.2105 33.432 14.0334 33.078C13.8564 32.7241 13.8223 32.3156 13.9382 31.9372L13.9998 31.7676L17.2204 24.2535L14.4192 25.8723C13.946 26.1454 13.4087 26.288 12.8623 26.2853C12.3159 26.2825 11.7801 26.1347 11.3096 25.8568L11.1478 25.9709L10.9782 26.0773L8.30801 27.619C7.63584 28.0071 6.842 28.1275 6.08498 27.956C5.32795 27.7846 4.66345 27.3339 4.22414 26.694L4.09618 26.4905L3.32535 25.1554C2.93719 24.4832 2.81682 23.6894 2.98829 22.9323C3.15976 22.1753 3.61043 21.5108 4.25035 21.0715L4.45385 20.9436L7.12401 19.4019C7.23928 19.3351 7.35875 19.2759 7.48168 19.2246C7.47681 18.7228 7.59446 18.2275 7.82443 17.7815C8.05441 17.3355 8.38975 16.9524 8.80135 16.6654L9.02335 16.5251L15.6988 12.671C15.814 12.6042 15.9335 12.545 16.0564 12.4937C16.0516 11.9919 16.1692 11.4966 16.3992 11.0506C16.6292 10.6046 16.9645 10.2215 17.3761 9.93451L17.5981 9.79422L25.6086 5.16922ZM8.66568 22.0721L5.99551 23.6137L6.76635 24.9488L9.43651 23.4071L8.66568 22.0721ZM17.2404 15.3411L10.565 19.1953L12.8775 23.2006L19.5529 19.3464L17.2404 15.3411ZM27.1503 7.83939L19.1398 12.4644L22.9939 19.1398L31.0044 14.5148L27.1503 7.83939Z" fill="url(#paint0_linear_346_74)"/>
<defs>
<linearGradient id="paint0_linear_346_74" x1="2.91211" y1="19.343" x2="34.0878" y2="19.343" gradientUnits="userSpaceOnUse">
<stop stop-color="#E6007E"/>
<stop offset="1" stop-color="#006AFF"/>
</linearGradient>
</defs>
</svg>
