<svg width="37" height="37" viewBox="0 0 37 37" fill="none" xmlns="http://www.w3.org/2000/svg">
<path d="M33.7625 13.7209L31.1417 15.2625L24.9751 4.62504L27.5959 3.08337L33.7625 13.7209ZM15.1084 12.1792L19.7334 20.1959L29.1375 14.8L24.5125 6.78337L15.1084 12.1792ZM17.575 19.5792L14.4917 14.1834L7.86255 18.0375L10.9459 23.4334L17.575 19.5792ZM3.23755 22.5084L4.77922 25.1292L8.78755 22.8167L7.24588 20.1959L3.23755 22.5084ZM18.6542 21.5834L18.1917 20.9667L11.5625 24.8209L12.025 25.4375C12.3334 25.9 12.7959 26.3625 13.2584 26.6709L10.7917 33.9167H13.875L16.0334 27.2875H16.1875L18.5 33.9167H21.5834L18.6542 25.2834C19.425 24.2042 19.425 22.8167 18.6542 21.5834Z" fill="url(#paint0_linear_346_68)"/>
<defs>
<linearGradient id="paint0_linear_346_68" x1="3.23755" y1="18.5" x2="33.7625" y2="18.5" gradientUnits="userSpaceOnUse">
<stop stop-color="#E6007E"/>
<stop offset="1" stop-color="#006AFF"/>
</linearGradient>
</defs>
</svg>
